<svg width="1479" height="1436" viewBox="0 0 1479 1436" fill="none" xmlns="http://www.w3.org/2000/svg">
<path d="M1149 520.64C1149 557.241 1126.67 577.944 1114.49 584.37C1113.8 584.729 1113.36 585.425 1113.36 586.195V867.503C1113.36 1014.41 994.27 1133.5 847.362 1133.5H579.466H461.793L431.971 1131.37C377.471 1127.48 338.348 1077.23 347.931 1023.44C349.846 1012.7 354.314 1002.57 360.961 993.914L374.587 976.168C377.941 971.801 379.759 966.449 379.759 960.943V394.365C379.759 298.267 457.661 220.365 553.759 220.365H915.362C1024.71 220.365 1113.36 309.012 1113.36 418.365V458.162C1113.36 459.099 1114.02 459.905 1114.92 460.154C1140.57 467.23 1148.34 503.205 1149 520.64Z" fill="#88A2FF" stroke="#054AEA" stroke-width="8" stroke-linecap="round"/>
<path d="M577.595 1255.1V1134.09C577.595 1131.33 579.833 1129.09 582.595 1129.09H744.6C747.362 1129.09 749.6 1131.33 749.6 1134.09V1362.1C749.6 1364.86 747.362 1367.1 744.6 1367.1H522.683C520.789 1367.1 519.036 1366.04 518.395 1364.26C516.054 1357.75 514.124 1346.04 519.592 1335.1C525.43 1323.42 555.003 1318.63 572.805 1317.37C575.482 1317.18 577.595 1314.98 577.595 1312.29V1255.1Z" fill="#88A2FF" stroke="#054AEA" stroke-width="8" stroke-linecap="round"/>
<path d="M590.766 1246.74V1254.66" stroke="#5277FF" stroke-width="8" stroke-linecap="round"/>
<path d="M598.684 1255.98C598.974 1257.28 599.264 1258.59 599.414 1260.21C599.563 1261.82 599.563 1263.71 599.563 1265.65" stroke="#5277FF" stroke-width="8" stroke-linecap="round"/>
<path d="M591.206 1269.17C591.351 1270.48 591.496 1271.79 591.571 1273.11C591.646 1274.44 591.646 1275.75 592.086 1277.53" stroke="#5277FF" stroke-width="8" stroke-linecap="round"/>
<path d="M598.245 1278.85C598.099 1281.03 597.954 1283.21 597.879 1284.62C597.805 1286.03 597.805 1286.61 597.805 1287.21" stroke="#5277FF" stroke-width="8" stroke-linecap="round"/>
<path d="M609.682 1277.09C609.682 1277.53 609.682 1277.96 609.537 1278.99C609.392 1280.01 609.102 1281.61 608.88 1282.65C608.657 1283.69 608.512 1284.12 607.923 1284.57" stroke="#5277FF" stroke-width="8" stroke-linecap="round"/>
<path d="M616.721 1249.82C616.866 1252.43 617.011 1255.04 617.086 1256.68C617.161 1258.32 617.161 1258.9 617.161 1259.5" stroke="#5277FF" stroke-width="8" stroke-linecap="round"/>
<path d="M617.159 1271.81C617.304 1271.81 617.45 1271.81 617.742 1273.12C618.035 1274.43 618.47 1277.04 618.767 1278.6C619.064 1280.17 619.209 1280.6 619.359 1281.05" stroke="#5277FF" stroke-width="8" stroke-linecap="round"/>
<path d="M608.362 1248.5C608.507 1248.93 608.653 1249.37 608.727 1249.88C608.802 1250.4 608.802 1250.98 608.802 1251.58" stroke="#5277FF" stroke-width="8" stroke-linecap="round"/>
<path d="M631.677 1243.22L632.557 1248.94" stroke="#5277FF" stroke-width="8" stroke-linecap="round"/>
<path d="M640.035 1268.73C640.035 1270.77 640.035 1272.8 640.108 1274.06C640.18 1275.33 640.325 1275.76 640.475 1276.21" stroke="#5277FF" stroke-width="8" stroke-linecap="round"/>
<path d="M629.918 1289.85V1299.09" stroke="#5277FF" stroke-width="8" stroke-linecap="round"/>
<path d="M618.48 1297.77V1302.61" stroke="#5277FF" stroke-width="8" stroke-linecap="round"/>
<path d="M603.963 1296.01C603.963 1297.75 603.963 1299.49 603.891 1300.61C603.818 1301.72 603.673 1302.16 603.523 1303.49" stroke="#5277FF" stroke-width="8" stroke-linecap="round"/>
<path d="M592.966 1295.13V1301.29" stroke="#5277FF" stroke-width="8" stroke-linecap="round"/>
<path d="M957.901 1255.1V1134.09C957.901 1131.33 955.663 1129.09 952.901 1129.09H790.896C788.134 1129.09 785.896 1131.33 785.896 1134.09V1362.1C785.896 1364.86 788.134 1367.1 790.896 1367.1H1012.81C1014.71 1367.1 1016.46 1366.04 1017.1 1364.26C1019.44 1357.75 1021.37 1346.04 1015.9 1335.1C1010.07 1323.42 980.493 1318.63 962.691 1317.37C960.014 1317.18 957.901 1314.98 957.901 1312.29V1255.1Z" fill="#88A2FF" stroke="#054AEA" stroke-width="8" stroke-linecap="round"/>
<path d="M944.729 1246.74V1254.66" stroke="#5277FF" stroke-width="8" stroke-linecap="round"/>
<path d="M936.812 1255.98C936.522 1257.28 936.232 1258.59 936.082 1260.21C935.933 1261.82 935.933 1263.71 935.933 1265.65" stroke="#5277FF" stroke-width="8" stroke-linecap="round"/>
<path d="M944.291 1269.17C944.146 1270.48 944.001 1271.79 943.926 1273.11C943.851 1274.44 943.851 1275.75 943.411 1277.53" stroke="#5277FF" stroke-width="8" stroke-linecap="round"/>
<path d="M937.252 1278.85C937.397 1281.03 937.542 1283.21 937.617 1284.62C937.691 1286.03 937.691 1286.61 937.691 1287.21" stroke="#5277FF" stroke-width="8" stroke-linecap="round"/>
<path d="M925.815 1277.09C925.815 1277.53 925.815 1277.96 925.96 1278.99C926.105 1280.01 926.395 1281.61 926.617 1282.65C926.84 1283.69 926.985 1284.12 927.574 1284.57" stroke="#5277FF" stroke-width="8" stroke-linecap="round"/>
<path d="M918.775 1249.82C918.63 1252.43 918.485 1255.04 918.41 1256.68C918.335 1258.32 918.335 1258.9 918.335 1259.5" stroke="#5277FF" stroke-width="8" stroke-linecap="round"/>
<path d="M918.337 1271.81C918.192 1271.81 918.047 1271.81 917.754 1273.12C917.462 1274.43 917.026 1277.04 916.729 1278.6C916.432 1280.17 916.287 1280.6 916.137 1281.05" stroke="#5277FF" stroke-width="8" stroke-linecap="round"/>
<path d="M927.134 1248.5C926.989 1248.93 926.843 1249.37 926.769 1249.88C926.694 1250.4 926.694 1250.98 926.694 1251.58" stroke="#5277FF" stroke-width="8" stroke-linecap="round"/>
<path d="M903.819 1243.22L902.94 1248.94" stroke="#5277FF" stroke-width="8" stroke-linecap="round"/>
<path d="M895.461 1268.73C895.461 1270.77 895.461 1272.8 895.388 1274.06C895.316 1275.33 895.171 1275.76 895.021 1276.21" stroke="#5277FF" stroke-width="8" stroke-linecap="round"/>
<path d="M905.578 1289.85V1299.09" stroke="#5277FF" stroke-width="8" stroke-linecap="round"/>
<path d="M917.017 1297.77V1302.61" stroke="#5277FF" stroke-width="8" stroke-linecap="round"/>
<path d="M931.533 1296.01C931.533 1297.75 931.533 1299.49 931.605 1300.61C931.678 1301.72 931.823 1302.16 931.973 1303.49" stroke="#5277FF" stroke-width="8" stroke-linecap="round"/>
<path d="M942.53 1295.13V1301.29" stroke="#5277FF" stroke-width="8" stroke-linecap="round"/>
<path d="M405.777 453.28C397.845 442.593 378.243 427.631 363.292 453.28C348.341 478.929 381.34 489.349 399.708 491.353" stroke="#054AEA" stroke-width="8" stroke-linecap="round"/>
<path d="M496.065 348.723C525.26 364.98 589.185 292.053 564.319 270.861C564.216 270.774 564.105 270.698 563.986 270.634C532.466 253.742 470.386 206.218 472.85 150.42C474.832 105.509 459.691 82.6919 447.263 73.4607C445.525 72.1701 443.802 74.4824 444.882 76.358C451.611 88.0433 451.361 104.01 450.053 111.959C450.032 112.083 450.003 112.193 449.959 112.311C442.342 132.883 429.565 184.567 438.917 228.194C448.245 271.708 480.32 326.043 495.435 348.148C495.6 348.389 495.81 348.581 496.065 348.723Z" fill="url(#paint0_linear_3343_4240)" stroke="#054AEA" stroke-width="8" stroke-linecap="round"/>
<path d="M1023.56 348.725C994.69 364.973 931.484 292.055 956.068 270.863C956.171 270.774 956.282 270.697 956.402 270.633C987.572 253.739 1048.96 206.216 1046.52 150.42C1044.56 105.534 1059.52 82.7176 1071.8 73.4763C1073.53 72.1769 1075.26 74.4684 1074.19 76.3465C1067.52 88.0337 1067.77 104.01 1069.07 111.961C1069.09 112.084 1069.12 112.192 1069.16 112.309C1076.69 132.881 1089.33 184.566 1080.08 228.194C1070.85 271.707 1039.14 326.041 1024.19 348.146C1024.03 348.388 1023.82 348.582 1023.56 348.725Z" fill="url(#paint1_linear_3343_4240)" stroke="#054AEA" stroke-width="8" stroke-linecap="round"/>
<circle cx="784.248" cy="415.066" r="48.0019" fill="#FAFAFA" stroke="#054AEA" stroke-width="8" stroke-linecap="round"/>
<circle cx="924.252" cy="415.066" r="48.0019" fill="#FAFAFA" stroke="#054AEA" stroke-width="8" stroke-linecap="round"/>
<circle cx="782.247" cy="413.067" r="18.0008" fill="black" stroke="#054AEA" stroke-width="8" stroke-linecap="round"/>
<circle cx="922.253" cy="413.067" r="18.0008" fill="black" stroke="#054AEA" stroke-width="8" stroke-linecap="round"/>
<path d="M678.245 453.067C690.912 457.068 715.846 476.268 714.246 521.07C712.646 565.871 678.911 581.072 662.244 583.072" stroke="#054AEA" stroke-width="8" stroke-linecap="round"/>
<path d="M1020.33 453.067C1007.66 457.068 982.73 476.268 984.33 521.07C985.93 565.871 1019.66 581.072 1036.33 583.072" stroke="#054AEA" stroke-width="8" stroke-linecap="round"/>
<path d="M710.566 539.088C757.19 579.681 877.602 636.512 986.256 539.088" stroke="#054AEA" stroke-width="8" stroke-linecap="round"/>
<path d="M746.449 603.56C722.533 595.55 726.175 568.224 730.986 555.563C747.849 567.28 795.37 591.013 850.553 592.208C870.841 592.975 923.659 587.73 965.858 556.571L966.514 559.403C970.558 571.243 973.286 596.238 951.839 601.506C930.392 606.774 916.46 592.57 912.176 584.81C914.315 594.488 912.422 615.115 887.735 620.189C863.048 625.263 849.816 608.372 846.287 599.292C841.989 617.046 825.903 623.316 818.397 624.232C789.041 625.752 783.224 600.299 783.985 587.383C781.438 596.113 770.365 611.57 746.449 603.56Z" fill="#FAFAFA" stroke="#054AEA" stroke-width="8" stroke-linecap="round"/>
<path d="M961.38 1119.16C1052.63 1083.82 1085.85 998.033 1094.53 965.909L379.264 968.925C366.034 982.425 341.054 1016.31 346.973 1043.85C346.525 1069.95 364.195 1124.31 438.463 1132.95H577.19V1151.28V1231.59H751.276V1151.28C762.482 1127.19 777.289 1141.24 783.292 1151.28V1231.59H961.38V1119.16Z" fill="#CCE5FF" stroke="#054AEA" stroke-width="8" stroke-linecap="round"/>
<path d="M364.785 453.28C379.736 427.631 399.338 442.593 407.271 453.28L401.201 491.353C382.833 489.349 349.834 478.929 364.785 453.28Z" fill="#88A2FF" stroke="#054AEA" stroke-width="8" stroke-linecap="round"/>
<ellipse cx="646.056" cy="517.469" rx="53.7268" ry="49.9958" fill="#BDA5F6"/>
<ellipse cx="1054.98" cy="518.963" rx="53.7268" ry="49.9958" fill="#BDA5F6"/>
<path d="M959.463 1116.67C788.237 1142.56 633.749 1133.94 577.405 1132.58V1159.14L751.431 1179.36V1151.05C764.366 1128.4 778.157 1141.61 783.436 1151.05V1179.36L959.463 1116.67Z" fill="#001970" stroke="#054AEA" stroke-width="8" stroke-linecap="round"/>
<path d="M411.587 1057.09V719.078C411.587 699.077 433.588 647.075 493.59 647.075C554.916 647.075 586.26 693.743 589.593 719.078V783.08V1061.09C590.26 1069.09 587.593 1086.29 571.593 1091.09C555.592 1095.89 544.925 1081.09 541.592 1073.09C543.192 1095.49 530.258 1111.76 523.591 1117.09C501.19 1134.69 483.59 1123.09 477.589 1115.09C443.988 1124.69 439.588 1101.76 441.588 1089.09C417.587 1087.49 411.587 1067.09 411.587 1057.09Z" fill="#88A2FF" stroke="#054AEA" stroke-width="8" stroke-linecap="round"/>
<path d="M435.206 749.103V759.861" stroke="#5277FF" stroke-width="8" stroke-linecap="round"/>
<path d="M453.789 742.256V753.992" stroke="#5277FF" stroke-width="8" stroke-linecap="round"/>
<path d="M445.965 786.268V796.048" stroke="#5277FF" stroke-width="8" stroke-linecap="round"/>
<path d="M431.295 777.466L433.251 789.202" stroke="#5277FF" stroke-width="8" stroke-linecap="round"/>
<path d="M460.636 771.597L461.614 793.113" stroke="#5277FF" stroke-width="8" stroke-linecap="round"/>
<path d="M476.284 811.696L475.306 815.608" stroke="#5277FF" stroke-width="8" stroke-linecap="round"/>
<path d="M449.877 813.652C450.2 813.652 450.522 813.652 451.173 815.75C451.823 817.848 452.791 822.044 453.789 826.367" stroke="#5277FF" stroke-width="8" stroke-linecap="round"/>
<path d="M439.118 816.586L440.096 829.3" stroke="#5277FF" stroke-width="8" stroke-linecap="round"/>
<path d="M438.14 857.664V863.532" stroke="#5277FF" stroke-width="8" stroke-linecap="round"/>
<path d="M458.68 850.818L460.636 862.555" stroke="#5277FF" stroke-width="8" stroke-linecap="round"/>
<path d="M750.525 706.26L746.048 733.123" stroke="#5277FF" stroke-width="8" stroke-linecap="round"/>
<path d="M734.109 728.646C734.109 728.975 734.109 729.303 733.616 731.771C733.124 734.238 732.139 738.835 731.124 743.571" stroke="#5277FF" stroke-width="8" stroke-linecap="round"/>
<path d="M707.245 730.139V746.555" stroke="#5277FF" stroke-width="8" stroke-linecap="round"/>
<path d="M672.92 734.616C672.92 734.945 672.92 735.273 673.166 737.74C673.412 740.208 673.905 744.804 674.412 749.54" stroke="#5277FF" stroke-width="8" stroke-linecap="round"/>
<path d="M696.798 752.524C697.29 752.524 697.783 752.524 698.037 754.987C698.29 757.449 698.29 762.374 698.29 767.449" stroke="#5277FF" stroke-width="8" stroke-linecap="round"/>
<path d="M722.169 758.494L725.154 776.403" stroke="#5277FF" stroke-width="8" stroke-linecap="round"/>
<path d="M741.57 758.494V773.418" stroke="#5277FF" stroke-width="8" stroke-linecap="round"/>
<path d="M755.002 752.524L757.987 765.956" stroke="#5277FF" stroke-width="8" stroke-linecap="round"/>
<path d="M774.404 752.524L772.911 771.926" stroke="#5277FF" stroke-width="8" stroke-linecap="round"/>
<path d="M793.805 758.494L796.79 771.926" stroke="#5277FF" stroke-width="8" stroke-linecap="round"/>
<path d="M816.191 765.956V780.88" stroke="#5277FF" stroke-width="8" stroke-linecap="round"/>
<path d="M799.774 789.835V800.282" stroke="#5277FF" stroke-width="8" stroke-linecap="round"/>
<path d="M799.774 734.616L801.267 748.048" stroke="#5277FF" stroke-width="8" stroke-linecap="round"/>
<path d="M781.865 724.169L783.358 739.093" stroke="#5277FF" stroke-width="8" stroke-linecap="round"/>
<path d="M740.078 792.82V806.252" stroke="#5277FF" stroke-width="8" stroke-linecap="round"/>
<path d="M723.662 792.82V810.729" stroke="#5277FF" stroke-width="8" stroke-linecap="round"/>
<path d="M704.26 786.851V795.805" stroke="#5277FF" stroke-width="8" stroke-linecap="round"/>
<path d="M680.381 789.835L677.396 803.267" stroke="#5277FF" stroke-width="8" stroke-linecap="round"/>
<path d="M662.473 771.926V785.357" stroke="#5277FF" stroke-width="8" stroke-linecap="round"/>
<path d="M840.069 742.078V762.972" stroke="#5277FF" stroke-width="8" stroke-linecap="round"/>
<path d="M828.13 731.631C828.13 731.95 828.13 732.268 827.884 734.982C827.638 737.695 827.145 742.794 826.638 748.047" stroke="#5277FF" stroke-width="8" stroke-linecap="round"/>
<path d="M805.744 719.691V730.138" stroke="#5277FF" stroke-width="8" stroke-linecap="round"/>
<path d="M843.055 770.434V797.297" stroke="#5277FF" stroke-width="8" stroke-linecap="round"/>
<path d="M832.608 792.82L831.115 806.252" stroke="#5277FF" stroke-width="8" stroke-linecap="round"/>
<path d="M857.979 755.51L859.471 776.404" stroke="#5277FF" stroke-width="8" stroke-linecap="round"/>
<path d="M869.918 748.048L874.395 761.48" stroke="#5277FF" stroke-width="8" stroke-linecap="round"/>
<path d="M844.547 721.185L846.039 731.631" stroke="#5277FF" stroke-width="8" stroke-linecap="round"/>
<defs>
<linearGradient id="paint0_linear_3343_4240" x1="502.785" y1="69" x2="502.785" y2="351.066" gradientUnits="userSpaceOnUse">
<stop stop-color="#314799"/>
<stop offset="1" stop-color="#5277FF"/>
</linearGradient>
<linearGradient id="paint1_linear_3343_4240" x1="1016.92" y1="69" x2="1016.92" y2="351.066" gradientUnits="userSpaceOnUse">
<stop stop-color="#314799"/>
<stop offset="1" stop-color="#5277FF"/>
</linearGradient>
</defs>
</svg>
