<svg width="1479" height="1436" viewBox="0 0 1479 1436" fill="none" xmlns="http://www.w3.org/2000/svg">
<g clip-path="url(#clip0_3343_5208)">
<path d="M1762.03 741.364C1762.03 844.905 1697.59 902.565 1664.31 919.113C1663.62 919.455 1663.2 920.141 1663.2 920.91V2259.79C1663.2 2359.75 1582.17 2440.79 1482.2 2440.79H182.749H-143.548L-287.379 2430.51C-405.827 2422.05 -490.858 2312.85 -470.029 2195.94L-457.531 2125.79C-453.371 2102.44 -443.658 2080.43 -429.212 2061.62L-376.194 1992.57C-372.841 1988.2 -371.023 1982.85 -371.023 1977.34V82.723C-371.023 -13.3745 -293.121 -91.2769 -197.023 -91.2769H1465.2C1574.56 -91.2769 1663.2 -2.62904 1663.2 106.723V570.958C1663.2 571.894 1663.87 572.706 1664.78 572.927C1738.1 590.702 1760.17 692.399 1762.03 741.364Z" fill="#88A2FF" stroke="#054AEA" stroke-width="10" stroke-linecap="round"/>
<path d="M-49.204 264.261C31.5406 310.945 210.38 107.124 140.466 48.507C140.362 48.4202 140.251 48.3441 140.132 48.2804C52.8276 1.58405 -119.727 -130.324 -112.889 -285.229C-106.594 -427.824 -162.553 -490.097 -198.192 -507.463C-200.137 -508.411 -201.669 -505.918 -200.233 -504.298C-171.517 -471.881 -171.932 -416.77 -176.157 -391.555C-176.178 -391.431 -176.207 -391.323 -176.251 -391.205C-197.358 -334.365 -232.959 -190.756 -206.981 -69.5671C-181.028 51.5092 -91.5645 202.796 -49.8313 263.684C-49.6664 263.924 -49.4566 264.115 -49.204 264.261Z" fill="url(#paint0_linear_3343_5208)" stroke="#054AEA" stroke-width="10" stroke-linecap="round"/>
<path d="M1414.88 264.263C1335.03 310.938 1158.19 107.126 1227.32 48.5083C1227.43 48.4205 1227.54 48.3438 1227.66 48.2792C1313.99 1.58179 1484.63 -130.326 1477.86 -285.229C1471.64 -427.781 1526.94 -490.06 1562.19 -507.447C1564.13 -508.404 1565.66 -505.926 1564.24 -504.3C1535.84 -471.882 1536.25 -416.768 1540.43 -391.554C1540.45 -391.431 1540.48 -391.323 1540.52 -391.207C1561.39 -334.367 1596.6 -190.757 1570.91 -69.5671C1545.25 51.5082 1456.78 202.794 1415.51 263.682C1415.34 263.924 1415.13 264.115 1414.88 264.263Z" fill="url(#paint1_linear_3343_5208)" stroke="#054AEA" stroke-width="10" stroke-linecap="round"/>
<circle cx="750.595" cy="448.617" r="139.197" fill="#FAFAFA" stroke="#054AEA" stroke-width="10" stroke-linecap="round"/>
<circle cx="1138.82" cy="448.617" r="139.197" fill="#FAFAFA" stroke="#054AEA" stroke-width="10" stroke-linecap="round"/>
<path d="M456.656 553.992C491.781 565.084 560.921 618.326 556.484 742.558C552.048 866.789 458.504 908.939 412.287 914.486" stroke="#054AEA" stroke-width="10" stroke-linecap="round"/>
<path d="M1405.24 553.992C1370.11 565.084 1300.97 618.326 1305.41 742.558C1309.84 866.789 1403.39 908.939 1449.61 914.486" stroke="#054AEA" stroke-width="10" stroke-linecap="round"/>
<path d="M546.283 792.521C675.568 905.083 1009.46 1062.67 1310.75 792.521" stroke="#054AEA" stroke-width="10" stroke-linecap="round"/>
<path d="M645.782 971.293C579.464 949.082 589.564 873.311 602.904 838.202C649.664 870.693 781.438 936.503 934.456 939.815C990.713 941.944 1137.17 927.398 1254.19 840.998L1256.01 848.851C1267.22 881.681 1274.78 950.992 1215.31 965.599C1155.84 980.206 1117.21 940.819 1105.33 919.3C1111.26 946.139 1106.01 1003.33 1037.56 1017.4C969.102 1031.47 932.413 984.637 922.625 959.46C910.707 1008.69 866.101 1026.08 845.288 1028.62C763.887 1032.83 747.758 962.253 749.868 926.436C742.805 950.643 712.1 993.504 645.782 971.293Z" fill="#FAFAFA" stroke="#054AEA" stroke-width="10" stroke-linecap="round"/>
<ellipse cx="367.4" cy="732.573" rx="148.98" ry="138.635" fill="#BDA5F6"/>
<ellipse cx="1501.31" cy="736.711" rx="148.98" ry="138.635" fill="#BDA5F6"/>
<path d="M-282.765 2228.9V1291.62C-282.765 1236.16 -221.758 1091.96 -55.3765 1091.96C114.677 1091.96 201.591 1221.37 210.834 1291.62V1469.09V2239.99C212.683 2262.17 205.288 2309.87 160.919 2323.18C116.551 2336.49 86.9721 2295.45 77.7287 2273.27C82.1655 2335.38 46.3011 2380.49 27.8142 2395.28C-34.3015 2444.08 -83.1068 2411.92 -99.7449 2389.73C-192.919 2416.35 -205.12 2352.76 -199.574 2317.63C-266.126 2313.2 -282.765 2256.63 -282.765 2228.9Z" fill="#88A2FF" stroke="#054AEA" stroke-width="10" stroke-linecap="round"/>
<path d="M657.085 1256.07L644.67 1330.56" stroke="#5277FF" stroke-width="10" stroke-linecap="round"/>
<path d="M611.563 1318.15C611.563 1319.06 611.563 1319.97 610.197 1326.81C608.832 1333.65 606.1 1346.4 603.286 1359.53" stroke="#5277FF" stroke-width="10" stroke-linecap="round"/>
<path d="M537.072 1322.29V1367.81" stroke="#5277FF" stroke-width="10" stroke-linecap="round"/>
<path d="M441.891 1334.7C441.891 1335.61 441.891 1336.52 442.573 1343.37C443.256 1350.21 444.622 1362.95 446.029 1376.09" stroke="#5277FF" stroke-width="10" stroke-linecap="round"/>
<path d="M508.104 1384.36C509.47 1384.36 510.836 1384.36 511.539 1391.19C512.243 1398.02 512.243 1411.68 512.243 1425.75" stroke="#5277FF" stroke-width="10" stroke-linecap="round"/>
<path d="M578.456 1400.92L586.733 1450.58" stroke="#5277FF" stroke-width="10" stroke-linecap="round"/>
<path d="M632.254 1400.92V1442.3" stroke="#5277FF" stroke-width="10" stroke-linecap="round"/>
<path d="M669.5 1384.36L677.777 1421.61" stroke="#5277FF" stroke-width="10" stroke-linecap="round"/>
<path d="M723.299 1384.36L719.16 1438.16" stroke="#5277FF" stroke-width="10" stroke-linecap="round"/>
<path d="M777.097 1400.92L785.373 1438.16" stroke="#5277FF" stroke-width="10" stroke-linecap="round"/>
<path d="M839.172 1421.61V1462.99" stroke="#5277FF" stroke-width="10" stroke-linecap="round"/>
<path d="M793.65 1334.7L797.789 1371.95" stroke="#5277FF" stroke-width="10" stroke-linecap="round"/>
<path d="M743.99 1305.73L748.129 1347.12" stroke="#5277FF" stroke-width="10" stroke-linecap="round"/>
<path d="M412.922 1438.16V1475.41" stroke="#5277FF" stroke-width="10" stroke-linecap="round"/>
<path d="M905.385 1355.39V1413.33" stroke="#5277FF" stroke-width="10" stroke-linecap="round"/>
<path d="M872.278 1326.43C872.278 1327.31 872.278 1328.19 871.595 1335.72C870.912 1343.24 869.547 1357.38 868.14 1371.95" stroke="#5277FF" stroke-width="10" stroke-linecap="round"/>
<path d="M810.203 1293.32V1322.29" stroke="#5277FF" stroke-width="10" stroke-linecap="round"/>
<path d="M913.662 1434.02V1508.51" stroke="#5277FF" stroke-width="10" stroke-linecap="round"/>
<path d="M955.045 1392.64L959.183 1450.58" stroke="#5277FF" stroke-width="10" stroke-linecap="round"/>
<path d="M988.152 1371.95L1000.57 1409.19" stroke="#5277FF" stroke-width="10" stroke-linecap="round"/>
<path d="M917.8 1297.46L921.938 1326.43" stroke="#5277FF" stroke-width="10" stroke-linecap="round"/>
</g>
<defs>
<linearGradient id="paint0_linear_3343_5208" x1="-29.8818" y1="-511" x2="-29.8818" y2="271.148" gradientUnits="userSpaceOnUse">
<stop stop-color="#314799"/>
<stop offset="0.0001" stop-color="#5277FF"/>
</linearGradient>
<linearGradient id="paint1_linear_3343_5208" x1="1395.78" y1="-511" x2="1395.78" y2="271.148" gradientUnits="userSpaceOnUse">
<stop stop-color="#314799"/>
<stop offset="0.0001" stop-color="#5277FF"/>
</linearGradient>
<clipPath id="clip0_3343_5208">
<rect width="1479" height="1436" fill="white"/>
</clipPath>
</defs>
</svg>
