<svg width="1479" height="1436" viewBox="0 0 1479 1436" fill="none" xmlns="http://www.w3.org/2000/svg">
<path d="M458.181 350.203C487.376 366.546 551.301 293.233 526.435 271.929C526.332 271.841 526.221 271.765 526.102 271.701C494.582 254.719 432.503 206.943 434.966 150.851C436.95 105.666 421.783 82.7275 409.349 73.462C407.615 72.1695 405.891 74.4727 406.97 76.3479C413.729 88.1003 413.479 104.186 412.168 112.188C412.148 112.312 412.119 112.421 412.076 112.538C404.459 133.219 391.681 185.177 401.033 229.036C410.361 272.782 442.437 327.405 457.552 349.626C457.716 349.867 457.926 350.061 458.181 350.203Z" fill="url(#paint0_linear_3343_4094)" stroke="#054AEA" stroke-width="8" stroke-linecap="round"/>
<path d="M985.678 350.205C956.806 366.54 893.6 293.235 918.185 271.93C918.287 271.841 918.399 271.765 918.518 271.7C949.688 254.717 1011.07 206.942 1008.64 150.851C1006.68 105.692 1021.66 82.7535 1033.95 73.4778C1035.67 72.1763 1037.4 74.459 1036.33 76.3367C1029.64 88.0908 1029.89 104.186 1031.18 112.19C1031.2 112.312 1031.23 112.42 1031.27 112.537C1038.81 133.216 1051.44 185.176 1042.19 229.036C1032.97 272.781 1001.25 327.403 986.305 349.624C986.142 349.867 985.933 350.061 985.678 350.205Z" fill="url(#paint1_linear_3343_4094)" stroke="#054AEA" stroke-width="8" stroke-linecap="round"/>
<path d="M910.203 1255.47V1092.1C910.203 1089.34 907.965 1087.1 905.203 1087.1H743.198C740.436 1087.1 738.198 1089.34 738.198 1092.1V1362.48C738.198 1365.24 740.436 1367.48 743.198 1367.48H965.115C967.009 1367.48 968.762 1366.42 969.403 1364.63C971.744 1358.13 973.674 1346.41 968.205 1335.47C962.368 1323.8 932.795 1319 914.993 1317.74C912.316 1317.55 910.203 1315.35 910.203 1312.67V1255.47Z" fill="#88A2FF" stroke="#054AEA" stroke-width="8" stroke-linecap="round"/>
<path d="M897.031 1247.11V1255.03" stroke="#5277FF" stroke-width="8" stroke-linecap="round"/>
<path d="M889.114 1256.35C888.824 1257.66 888.534 1258.96 888.384 1260.58C888.234 1262.2 888.234 1264.08 888.234 1266.03" stroke="#5277FF" stroke-width="8" stroke-linecap="round"/>
<path d="M896.593 1269.55C896.448 1270.85 896.302 1272.16 896.228 1273.49C896.153 1274.81 896.153 1276.12 895.713 1277.91" stroke="#5277FF" stroke-width="8" stroke-linecap="round"/>
<path d="M889.553 1279.23C889.698 1281.4 889.844 1283.58 889.918 1284.99C889.993 1286.4 889.993 1286.99 889.993 1287.58" stroke="#5277FF" stroke-width="8" stroke-linecap="round"/>
<path d="M878.116 1277.47C878.116 1277.9 878.116 1278.34 878.262 1279.36C878.407 1280.38 878.697 1281.98 878.919 1283.02C879.141 1284.06 879.287 1284.5 879.876 1284.94" stroke="#5277FF" stroke-width="8" stroke-linecap="round"/>
<path d="M871.077 1250.19C870.932 1252.8 870.787 1255.42 870.712 1257.05C870.637 1258.69 870.637 1259.27 870.637 1259.87" stroke="#5277FF" stroke-width="8" stroke-linecap="round"/>
<path d="M870.639 1272.19C870.494 1272.19 870.348 1272.19 870.056 1273.49C869.763 1274.8 869.328 1277.41 869.031 1278.98C868.734 1280.54 868.589 1280.98 868.439 1281.43" stroke="#5277FF" stroke-width="8" stroke-linecap="round"/>
<path d="M879.436 1248.87C879.29 1249.31 879.145 1249.74 879.07 1250.26C878.996 1250.77 878.996 1251.35 878.996 1251.95" stroke="#5277FF" stroke-width="8" stroke-linecap="round"/>
<path d="M856.121 1243.59L855.241 1249.31" stroke="#5277FF" stroke-width="8" stroke-linecap="round"/>
<path d="M847.763 1269.11C847.763 1271.14 847.763 1273.17 847.69 1274.44C847.618 1275.7 847.472 1276.14 847.323 1276.59" stroke="#5277FF" stroke-width="8" stroke-linecap="round"/>
<path d="M857.88 1290.22V1299.46" stroke="#5277FF" stroke-width="8" stroke-linecap="round"/>
<path d="M869.318 1298.14V1302.98" stroke="#5277FF" stroke-width="8" stroke-linecap="round"/>
<path d="M883.835 1296.38C883.835 1298.12 883.835 1299.87 883.907 1300.98C883.98 1302.1 884.125 1302.53 884.274 1303.86" stroke="#5277FF" stroke-width="8" stroke-linecap="round"/>
<path d="M894.832 1295.5V1301.66" stroke="#5277FF" stroke-width="8" stroke-linecap="round"/>
<path d="M514.445 1255.47V1092.1C514.445 1089.34 516.684 1087.1 519.445 1087.1H681.451C684.212 1087.1 686.451 1089.34 686.451 1092.1V1362.48C686.451 1365.24 684.212 1367.48 681.451 1367.48H459.533C457.639 1367.48 455.886 1366.42 455.245 1364.63C452.904 1358.13 450.975 1346.41 456.443 1335.47C462.28 1323.8 491.854 1319 509.655 1317.74C512.332 1317.55 514.445 1315.35 514.445 1312.67V1255.47Z" fill="#88A2FF" stroke="#054AEA" stroke-width="8" stroke-linecap="round"/>
<path d="M527.617 1247.11V1255.03" stroke="#5277FF" stroke-width="8" stroke-linecap="round"/>
<path d="M535.535 1256.35C535.825 1257.66 536.116 1258.96 536.265 1260.58C536.415 1262.2 536.415 1264.08 536.415 1266.03" stroke="#5277FF" stroke-width="8" stroke-linecap="round"/>
<path d="M528.056 1269.55C528.201 1270.85 528.346 1272.16 528.421 1273.49C528.496 1274.81 528.496 1276.12 528.935 1277.91" stroke="#5277FF" stroke-width="8" stroke-linecap="round"/>
<path d="M535.095 1279.23C534.95 1281.4 534.805 1283.58 534.73 1284.99C534.655 1286.4 534.655 1286.99 534.655 1287.58" stroke="#5277FF" stroke-width="8" stroke-linecap="round"/>
<path d="M546.532 1277.47C546.532 1277.9 546.532 1278.34 546.387 1279.36C546.242 1280.38 545.951 1281.98 545.729 1283.02C545.507 1284.06 545.362 1284.5 544.772 1284.94" stroke="#5277FF" stroke-width="8" stroke-linecap="round"/>
<path d="M553.571 1250.19C553.716 1252.8 553.862 1255.42 553.936 1257.05C554.011 1258.69 554.011 1259.27 554.011 1259.87" stroke="#5277FF" stroke-width="8" stroke-linecap="round"/>
<path d="M554.011 1272.19C554.156 1272.19 554.301 1272.19 554.594 1273.49C554.886 1274.8 555.322 1277.41 555.619 1278.98C555.916 1280.54 556.061 1280.98 556.21 1281.43" stroke="#5277FF" stroke-width="8" stroke-linecap="round"/>
<path d="M545.213 1248.87C545.358 1249.31 545.503 1249.74 545.578 1250.26C545.653 1250.77 545.653 1251.35 545.653 1251.95" stroke="#5277FF" stroke-width="8" stroke-linecap="round"/>
<path d="M568.527 1243.59L569.407 1249.31" stroke="#5277FF" stroke-width="8" stroke-linecap="round"/>
<path d="M576.886 1269.11C576.886 1271.14 576.886 1273.17 576.958 1274.44C577.031 1275.7 577.176 1276.14 577.326 1276.59" stroke="#5277FF" stroke-width="8" stroke-linecap="round"/>
<path d="M566.768 1290.22V1299.46" stroke="#5277FF" stroke-width="8" stroke-linecap="round"/>
<path d="M555.33 1298.14V1302.98" stroke="#5277FF" stroke-width="8" stroke-linecap="round"/>
<path d="M540.814 1296.38C540.814 1298.12 540.814 1299.87 540.741 1300.98C540.669 1302.1 540.524 1302.53 540.374 1303.86" stroke="#5277FF" stroke-width="8" stroke-linecap="round"/>
<path d="M529.816 1295.5V1301.66" stroke="#5277FF" stroke-width="8" stroke-linecap="round"/>
<path d="M451.937 1097.33C367.451 1037.23 346.778 945.516 347.002 907.168V499.778V425.703C347.002 315.246 436.545 225.703 547.002 225.703H568.981H844.773H880.86C990.213 225.703 1078.86 314.351 1078.86 423.703V442.461C1078.86 443.495 1079.65 444.353 1080.67 444.494C1098.44 446.931 1130.95 462.699 1131.99 509.252C1133.03 556.098 1098.99 576.461 1080.41 581.286C1079.51 581.522 1078.86 582.328 1078.86 583.264V910.551C1067.02 1034.53 983.79 1096.65 943.655 1112.22C811.305 1158.9 735.745 1116.7 712.926 1088.24C712.183 1087.31 710.808 1087.22 709.923 1088.01C627.054 1162.34 503.61 1125.34 451.937 1097.33Z" fill="#88A2FF" stroke="#054AEA" stroke-width="8" stroke-linecap="round"/>
<path d="M678.825 1021.88C688.015 1025.92 707.873 1036.41 713.791 1046.09M713.791 1046.09C717.825 1040.04 729.66 1026.72 744.722 1021.88M713.791 1046.09V1065.59" stroke="#054AEA" stroke-width="8" stroke-linecap="round"/>
<ellipse cx="1093.95" cy="510.007" rx="30.5944" ry="48.5034" fill="#BDA5F6"/>
<path d="M870.464 1063.81V725.802C870.464 705.802 892.465 653.8 952.467 653.8C1013.79 653.8 1045.14 700.468 1048.47 725.802V789.804V1067.81C1049.14 1075.81 1046.47 1093.02 1030.47 1097.82C1014.47 1102.62 1003.8 1087.82 1000.47 1079.82C1002.07 1102.22 989.135 1118.48 982.468 1123.82C960.067 1141.42 942.466 1129.82 936.466 1121.82C902.865 1131.42 898.465 1108.48 900.465 1095.82C876.464 1094.22 870.464 1073.81 870.464 1063.81Z" fill="#88A2FF" stroke="#054AEA" stroke-width="8" stroke-linecap="round"/>
<path d="M894.083 755.827V766.586" stroke="#5277FF" stroke-width="8" stroke-linecap="round"/>
<path d="M912.665 748.98V760.717" stroke="#5277FF" stroke-width="8" stroke-linecap="round"/>
<path d="M904.842 792.992V802.773" stroke="#5277FF" stroke-width="8" stroke-linecap="round"/>
<path d="M890.171 784.19L892.127 795.927" stroke="#5277FF" stroke-width="8" stroke-linecap="round"/>
<path d="M919.512 778.321L920.49 799.838" stroke="#5277FF" stroke-width="8" stroke-linecap="round"/>
<path d="M935.161 818.421L934.183 822.333" stroke="#5277FF" stroke-width="8" stroke-linecap="round"/>
<path d="M908.753 820.377C909.076 820.377 909.398 820.377 910.049 822.475C910.699 824.573 911.667 828.768 912.665 833.091" stroke="#5277FF" stroke-width="8" stroke-linecap="round"/>
<path d="M897.994 823.311L898.972 836.025" stroke="#5277FF" stroke-width="8" stroke-linecap="round"/>
<path d="M897.017 864.389V870.257" stroke="#5277FF" stroke-width="8" stroke-linecap="round"/>
<path d="M917.555 857.543L919.511 869.279" stroke="#5277FF" stroke-width="8" stroke-linecap="round"/>
<path d="M560.794 1057.12C489.341 1051.13 451.888 1008.74 439.566 983.846C437.932 980.544 434.834 978.035 431.152 977.91C380.172 976.186 423.48 1046.3 469.898 1081.35C518.02 1117.68 581.616 1108.74 588.865 1106.92C599.558 1104.22 657.037 1065.2 560.794 1057.12Z" fill="#A3B7FF"/>
<path d="M743.306 1043.96C745.656 1039.14 745.365 1037.02 757.268 1028.61C758.848 1027.36 761.951 1026.05 762.502 1025.74C764.462 1024.49 768.858 1023.87 771.982 1024.26C774.025 1024.5 777.84 1025.36 780.132 1027.15C782.327 1028.87 786.06 1029.59 786.161 1033.08C786.229 1035.42 786.07 1038.46 784.664 1040.64C783.409 1042.59 781.258 1048.88 784.053 1053.2C786.869 1057.56 790.158 1062.33 795.418 1065.36C798.942 1067.39 802.014 1070.15 805.444 1071.91C808.505 1073.47 811.472 1074.45 813.596 1076.67C816.958 1080.18 819.403 1082.84 818.359 1085.87C817.578 1088.13 816.419 1090.41 815.853 1092.65C815.378 1094.52 813.724 1096.75 810.987 1098.18C807.837 1099.83 804.202 1101.91 800.799 1102.31C798.133 1102.62 795.619 1103.51 793.122 1103.16C788.054 1102.46 777.491 1101.07 771.486 1098.87C766.785 1097.15 759.697 1095.36 752.84 1086.54C750.179 1083.11 748.063 1080.77 746.108 1077.19C744.237 1073.76 742.966 1070.77 742.511 1066.74C742.036 1062.53 738.925 1052.95 743.306 1043.96Z" fill="#A3B7FF"/>
<defs>
<linearGradient id="paint0_linear_3343_4094" x1="464.901" y1="69" x2="464.901" y2="352.558" gradientUnits="userSpaceOnUse">
<stop stop-color="#314799"/>
<stop offset="1" stop-color="#5277FF"/>
</linearGradient>
<linearGradient id="paint1_linear_3343_4094" x1="979.037" y1="69" x2="979.037" y2="352.558" gradientUnits="userSpaceOnUse">
<stop stop-color="#314799"/>
<stop offset="1" stop-color="#5277FF"/>
</linearGradient>
</defs>
</svg>
