<svg width="1479" height="1436" viewBox="0 0 1479 1436" fill="none" xmlns="http://www.w3.org/2000/svg">
<path d="M458.181 350.203C487.376 366.546 551.301 293.233 526.435 271.929C526.332 271.841 526.221 271.765 526.102 271.701C494.582 254.719 432.503 206.943 434.966 150.851C436.95 105.666 421.783 82.7275 409.349 73.462C407.615 72.1695 405.891 74.4727 406.97 76.3479C413.729 88.1003 413.479 104.186 412.168 112.188C412.148 112.312 412.119 112.421 412.076 112.538C404.459 133.219 391.681 185.177 401.033 229.036C410.361 272.782 442.437 327.405 457.552 349.626C457.716 349.867 457.926 350.061 458.181 350.203Z" fill="url(#paint0_linear_3362_691)" stroke="#054AEA" stroke-width="8" stroke-linecap="round"/>
<path d="M985.678 350.205C956.806 366.54 893.6 293.235 918.185 271.93C918.287 271.841 918.399 271.765 918.518 271.7C949.688 254.717 1011.07 206.942 1008.64 150.851C1006.68 105.692 1021.66 82.7535 1033.95 73.4778C1035.67 72.1763 1037.4 74.459 1036.33 76.3367C1029.64 88.0908 1029.89 104.186 1031.18 112.19C1031.2 112.312 1031.23 112.42 1031.27 112.537C1038.81 133.216 1051.44 185.176 1042.19 229.036C1032.97 272.781 1001.25 327.403 986.305 349.624C986.142 349.867 985.933 350.061 985.678 350.205Z" fill="url(#paint1_linear_3362_691)" stroke="#054AEA" stroke-width="8" stroke-linecap="round"/>
<path d="M910.203 1255.47V1092.1C910.203 1089.34 907.965 1087.1 905.203 1087.1H743.198C740.436 1087.1 738.198 1089.34 738.198 1092.1V1362.48C738.198 1365.24 740.436 1367.48 743.198 1367.48H965.115C967.009 1367.48 968.762 1366.42 969.403 1364.63C971.744 1358.13 973.674 1346.41 968.205 1335.47C962.368 1323.8 932.795 1319 914.993 1317.74C912.316 1317.55 910.203 1315.35 910.203 1312.67V1255.47Z" fill="#88A2FF" stroke="#054AEA" stroke-width="8" stroke-linecap="round"/>
<path d="M897.031 1247.11V1255.03" stroke="#5277FF" stroke-width="8" stroke-linecap="round"/>
<path d="M889.114 1256.35C888.824 1257.66 888.534 1258.96 888.384 1260.58C888.234 1262.2 888.234 1264.08 888.234 1266.03" stroke="#5277FF" stroke-width="8" stroke-linecap="round"/>
<path d="M896.593 1269.55C896.448 1270.85 896.302 1272.16 896.228 1273.49C896.153 1274.81 896.153 1276.12 895.713 1277.91" stroke="#5277FF" stroke-width="8" stroke-linecap="round"/>
<path d="M889.553 1279.23C889.698 1281.4 889.844 1283.58 889.918 1284.99C889.993 1286.4 889.993 1286.98 889.993 1287.58" stroke="#5277FF" stroke-width="8" stroke-linecap="round"/>
<path d="M878.116 1277.47C878.116 1277.9 878.116 1278.34 878.262 1279.36C878.407 1280.38 878.697 1281.98 878.919 1283.02C879.141 1284.06 879.287 1284.5 879.876 1284.94" stroke="#5277FF" stroke-width="8" stroke-linecap="round"/>
<path d="M871.077 1250.19C870.932 1252.8 870.787 1255.42 870.712 1257.05C870.637 1258.69 870.637 1259.27 870.637 1259.87" stroke="#5277FF" stroke-width="8" stroke-linecap="round"/>
<path d="M870.639 1272.19C870.494 1272.19 870.348 1272.19 870.056 1273.49C869.763 1274.8 869.328 1277.41 869.031 1278.98C868.734 1280.54 868.589 1280.98 868.439 1281.43" stroke="#5277FF" stroke-width="8" stroke-linecap="round"/>
<path d="M879.436 1248.87C879.29 1249.31 879.145 1249.74 879.07 1250.26C878.996 1250.77 878.996 1251.35 878.996 1251.95" stroke="#5277FF" stroke-width="8" stroke-linecap="round"/>
<path d="M856.121 1243.59L855.241 1249.31" stroke="#5277FF" stroke-width="8" stroke-linecap="round"/>
<path d="M847.763 1269.11C847.763 1271.14 847.763 1273.17 847.69 1274.44C847.618 1275.7 847.472 1276.14 847.323 1276.59" stroke="#5277FF" stroke-width="8" stroke-linecap="round"/>
<path d="M857.88 1290.22V1299.46" stroke="#5277FF" stroke-width="8" stroke-linecap="round"/>
<path d="M869.318 1298.14V1302.98" stroke="#5277FF" stroke-width="8" stroke-linecap="round"/>
<path d="M883.835 1296.38C883.835 1298.12 883.835 1299.87 883.907 1300.98C883.98 1302.1 884.125 1302.53 884.274 1303.86" stroke="#5277FF" stroke-width="8" stroke-linecap="round"/>
<path d="M894.832 1295.5V1301.66" stroke="#5277FF" stroke-width="8" stroke-linecap="round"/>
<path d="M514.445 1255.47V1092.1C514.445 1089.34 516.684 1087.1 519.445 1087.1H681.451C684.212 1087.1 686.451 1089.34 686.451 1092.1V1362.48C686.451 1365.24 684.212 1367.48 681.451 1367.48H459.533C457.639 1367.48 455.886 1366.42 455.245 1364.63C452.904 1358.13 450.975 1346.41 456.443 1335.47C462.28 1323.8 491.854 1319 509.655 1317.74C512.332 1317.55 514.445 1315.35 514.445 1312.67V1255.47Z" fill="#88A2FF" stroke="#054AEA" stroke-width="8" stroke-linecap="round"/>
<path d="M527.617 1247.11V1255.03" stroke="#5277FF" stroke-width="8" stroke-linecap="round"/>
<path d="M535.535 1256.35C535.825 1257.66 536.116 1258.96 536.265 1260.58C536.415 1262.2 536.415 1264.08 536.415 1266.03" stroke="#5277FF" stroke-width="8" stroke-linecap="round"/>
<path d="M528.056 1269.55C528.201 1270.85 528.346 1272.16 528.421 1273.49C528.496 1274.81 528.496 1276.12 528.935 1277.91" stroke="#5277FF" stroke-width="8" stroke-linecap="round"/>
<path d="M535.095 1279.23C534.95 1281.4 534.805 1283.58 534.73 1284.99C534.655 1286.4 534.655 1286.98 534.655 1287.58" stroke="#5277FF" stroke-width="8" stroke-linecap="round"/>
<path d="M546.532 1277.47C546.532 1277.9 546.532 1278.34 546.387 1279.36C546.242 1280.38 545.951 1281.98 545.729 1283.02C545.507 1284.06 545.362 1284.5 544.772 1284.94" stroke="#5277FF" stroke-width="8" stroke-linecap="round"/>
<path d="M553.571 1250.19C553.716 1252.8 553.862 1255.42 553.936 1257.05C554.011 1258.69 554.011 1259.27 554.011 1259.87" stroke="#5277FF" stroke-width="8" stroke-linecap="round"/>
<path d="M554.011 1272.19C554.156 1272.19 554.301 1272.19 554.594 1273.49C554.886 1274.8 555.322 1277.41 555.619 1278.98C555.916 1280.54 556.061 1280.98 556.21 1281.43" stroke="#5277FF" stroke-width="8" stroke-linecap="round"/>
<path d="M545.213 1248.87C545.358 1249.31 545.503 1249.74 545.578 1250.26C545.653 1250.77 545.653 1251.35 545.653 1251.95" stroke="#5277FF" stroke-width="8" stroke-linecap="round"/>
<path d="M568.527 1243.59L569.407 1249.31" stroke="#5277FF" stroke-width="8" stroke-linecap="round"/>
<path d="M576.886 1269.11C576.886 1271.14 576.886 1273.17 576.958 1274.44C577.031 1275.7 577.176 1276.14 577.326 1276.59" stroke="#5277FF" stroke-width="8" stroke-linecap="round"/>
<path d="M566.768 1290.22V1299.46" stroke="#5277FF" stroke-width="8" stroke-linecap="round"/>
<path d="M555.33 1298.14V1302.98" stroke="#5277FF" stroke-width="8" stroke-linecap="round"/>
<path d="M540.814 1296.38C540.814 1298.12 540.814 1299.87 540.741 1300.98C540.669 1302.1 540.524 1302.53 540.374 1303.86" stroke="#5277FF" stroke-width="8" stroke-linecap="round"/>
<path d="M529.816 1295.5V1301.66" stroke="#5277FF" stroke-width="8" stroke-linecap="round"/>
<path d="M451.937 1097.33C367.451 1037.23 346.778 945.516 347.002 907.168V499.778V425.703C347.002 315.246 436.545 225.703 547.002 225.703H568.981H844.773H880.86C990.213 225.703 1078.86 314.351 1078.86 423.703V442.461C1078.86 443.495 1079.65 444.353 1080.67 444.494C1098.44 446.931 1130.95 462.699 1131.99 509.252C1133.03 556.098 1098.99 576.461 1080.41 581.286C1079.51 581.522 1078.86 582.328 1078.86 583.264V910.551C1067.02 1034.53 983.79 1096.65 943.655 1112.22C811.305 1158.9 735.745 1116.7 712.926 1088.24C712.183 1087.31 710.808 1087.22 709.923 1088.01C627.054 1162.34 503.61 1125.34 451.937 1097.33Z" fill="#88A2FF" stroke="#054AEA" stroke-width="8" stroke-linecap="round"/>
<path d="M678.825 934C688.015 938.034 707.873 948.524 713.791 958.207M713.791 958.207C717.825 952.155 729.66 938.841 744.722 934M713.791 958.207V977.707" stroke="#054AEA" stroke-width="8" stroke-linecap="round"/>
<path d="M458 907.51C492.234 895.624 581.961 882.681 667 926" stroke="#054AEA" stroke-width="8" stroke-linecap="round"/>
<path d="M972 907.51C937.766 895.624 848.039 882.681 763 926" stroke="#054AEA" stroke-width="8" stroke-linecap="round"/>
<ellipse cx="1093.95" cy="510.008" rx="30.5944" ry="48.5034" fill="#BDA5F6"/>
<path d="M560.794 1057.12C489.341 1051.13 451.888 1008.74 439.566 983.846C437.932 980.544 434.834 978.035 431.152 977.91C380.172 976.186 423.48 1046.3 469.898 1081.35C518.02 1117.68 581.616 1108.74 588.865 1106.92C599.558 1104.22 657.037 1065.2 560.794 1057.12Z" fill="#A3B7FF"/>
<path d="M743.306 1043.96C745.656 1039.14 745.365 1037.02 757.268 1028.61C758.848 1027.36 761.951 1026.05 762.502 1025.74C764.462 1024.49 768.858 1023.87 771.982 1024.26C774.025 1024.5 777.84 1025.36 780.132 1027.15C782.327 1028.87 786.06 1029.59 786.161 1033.08C786.229 1035.42 786.07 1038.46 784.664 1040.64C783.409 1042.59 781.258 1048.88 784.053 1053.2C786.869 1057.56 790.158 1062.33 795.418 1065.36C798.942 1067.39 802.014 1070.15 805.444 1071.91C808.505 1073.47 811.472 1074.45 813.596 1076.67C816.958 1080.18 819.403 1082.84 818.359 1085.87C817.578 1088.13 816.419 1090.41 815.853 1092.65C815.378 1094.52 813.724 1096.75 810.987 1098.18C807.837 1099.83 804.202 1101.91 800.799 1102.31C798.133 1102.62 795.619 1103.51 793.122 1103.16C788.054 1102.46 777.491 1101.07 771.486 1098.87C766.785 1097.15 759.697 1095.36 752.84 1086.54C750.179 1083.11 748.063 1080.77 746.108 1077.19C744.237 1073.76 742.966 1070.77 742.511 1066.74C742.036 1062.53 738.925 1052.95 743.306 1043.96Z" fill="#A3B7FF"/>
<path d="M529 616C549.5 616.169 594.3 623.282 609.5 650.385" stroke="#7997FF" stroke-width="8" stroke-linecap="round"/>
<path d="M616.5 662.015C618.5 684.096 634.3 735.639 681.5 765.17" stroke="#7997FF" stroke-width="8" stroke-linecap="round"/>
<path d="M704.5 645.833C702.167 684.095 698.9 772.451 704.5 819.781" stroke="#7997FF" stroke-width="8" stroke-linecap="round"/>
<path d="M512 724.717C529 736.347 576.6 750.91 631 716.121" stroke="#7997FF" stroke-width="8" stroke-linecap="round"/>
<path d="M618.5 884C625.167 882.315 639.1 871.257 641.5 840.513C653.333 839.502 678.4 830.703 684 803.6" stroke="#7997FF" stroke-width="8" stroke-linecap="round"/>
<path d="M877.5 616C857 616.169 812.2 623.282 797 650.385" stroke="#7997FF" stroke-width="8" stroke-linecap="round"/>
<path d="M790 662.015C788 684.096 772.2 735.639 725 765.17" stroke="#7997FF" stroke-width="8" stroke-linecap="round"/>
<path d="M878.5 731.42C861.5 743.05 807 737.05 775.5 716.121" stroke="#7997FF" stroke-width="8" stroke-linecap="round"/>
<path d="M788 884C781.333 882.315 767.4 871.257 765 840.513C753.167 839.502 728.1 830.703 722.5 803.6" stroke="#7997FF" stroke-width="8" stroke-linecap="round"/>
<path d="M705.5 845.064V877.427" stroke="#7997FF" stroke-width="8" stroke-linecap="round"/>
<path d="M964.703 607.139C1065.5 591.139 1092.7 668.806 1093.7 709.639C1125.95 709.639 1140.11 747.644 1144.23 772.023C1145.61 757.585 1165.84 742.784 1182.21 733.717C1187.78 730.633 1190.64 724.057 1188.57 718.033L1188.11 716.662C1186.67 712.462 1182.72 709.639 1178.28 709.639C1175.66 709.639 1173.14 708.648 1171.22 706.865L1166.97 702.919C1162.6 698.865 1159.81 693.392 1159.11 687.475L1155.53 657.554C1154.99 652.998 1155.43 648.379 1156.85 644.013L1158.31 639.495C1159.54 635.7 1162 632.423 1165.3 630.183L1167.73 628.533C1171.71 625.829 1176.86 625.544 1181.12 627.792L1186.13 630.436C1189.52 632.225 1193.72 631.017 1195.64 627.7C1196.92 625.496 1199.27 624.139 1201.82 624.139H1206.13C1208.78 624.139 1211.36 624.981 1213.49 626.543L1216.7 628.888C1220.33 631.54 1225.41 630.847 1228.19 627.318C1229.78 625.311 1232.2 624.139 1234.75 624.139H1240.14C1244.4 624.139 1248.54 625.534 1251.93 628.109L1254.58 630.127C1257.63 632.446 1260.2 635.34 1262.14 638.645L1279.53 668.272C1283.86 675.655 1285.71 684.233 1284.81 692.746L1277.7 759.639C1276.18 836.91 1263.62 880.952 1250.88 903.961C1242.3 919.47 1228.89 939.46 1213.14 947.607C1203.6 952.546 1189.39 956.139 1168.7 956.139C1121.22 956.139 1062.91 924.362 1036.53 906.444C1034.29 904.922 1031.95 903.592 1029.47 902.505L976.462 879.289C968.815 875.94 962.407 870.282 958.137 863.108L929.44 814.897C927.953 812.399 926.198 810.071 924.207 807.953L893.579 775.387C889.706 771.269 886.692 766.415 885.132 760.98C870.878 711.316 869.387 622.269 964.703 607.139Z" fill="#88A2FF"/>
<path d="M1093.7 709.639C1092.7 668.806 1065.5 591.139 964.703 607.139C869.387 622.269 870.878 711.316 885.132 760.98C886.692 766.415 889.706 771.269 893.579 775.387L924.207 807.953C926.198 810.071 927.953 812.399 929.44 814.897L958.137 863.108C962.407 870.282 968.815 875.94 976.462 879.289L1029.47 902.505C1031.95 903.592 1034.29 904.922 1036.53 906.444C1062.91 924.362 1121.22 956.139 1168.7 956.139C1189.39 956.139 1203.6 952.546 1213.14 947.607C1228.89 939.46 1242.3 919.47 1250.88 903.961C1263.62 880.952 1276.18 836.91 1277.7 759.639L1284.81 692.746C1285.71 684.233 1283.86 675.655 1279.53 668.272L1262.14 638.645C1260.2 635.34 1257.63 632.446 1254.58 630.127L1251.93 628.109C1248.54 625.534 1244.4 624.139 1240.14 624.139H1234.75C1232.2 624.139 1229.78 625.311 1228.19 627.318C1225.41 630.847 1220.33 631.54 1216.7 628.888L1213.49 626.543C1211.36 624.981 1208.78 624.139 1206.13 624.139H1201.82C1199.27 624.139 1196.92 625.496 1195.64 627.7C1193.72 631.017 1189.52 632.225 1186.13 630.436L1181.12 627.792C1176.86 625.544 1171.71 625.829 1167.73 628.533L1165.3 630.183C1162 632.423 1159.54 635.7 1158.31 639.495L1156.85 644.013C1155.43 648.379 1154.99 652.998 1155.53 657.554L1159.11 687.475C1159.81 693.392 1162.6 698.865 1166.97 702.919L1171.22 706.865C1173.14 708.648 1175.66 709.639 1178.28 709.639C1182.72 709.639 1186.67 712.462 1188.11 716.662L1188.57 718.033C1190.64 724.057 1187.78 730.633 1182.21 733.717C1163.12 744.286 1138.81 762.645 1145.2 779.139C1142.87 755.973 1129.3 709.639 1093.7 709.639Z" stroke="#054AEA" stroke-width="8" stroke-linecap="round"/>
<path d="M1237.54 710C1233.14 704.624 1227.18 691.645 1234.1 678.623C1235.98 675.096 1237.54 671.314 1237.54 667.32V664.037C1237.54 660.553 1239.21 657.28 1242.04 655.238L1242.29 655.051C1244.94 653.134 1248.35 652.599 1251.46 653.612C1254.61 654.636 1257.07 657.12 1258.06 660.278L1267.94 691.748" stroke="#054AEA" stroke-width="8" stroke-linecap="round"/>
<path d="M1158 674.5L1168.92 687.472C1171.93 691.045 1176.94 692.207 1181.21 690.326C1184.51 688.877 1186.83 685.847 1187.38 682.292L1190.5 662L1193.91 686.749C1194.29 689.457 1195.78 691.882 1198.04 693.431C1200.81 695.339 1204.38 695.675 1207.46 694.318L1209.28 693.515C1212.9 691.922 1215.63 688.799 1216.72 684.995L1218.08 680.216C1218.69 678.083 1219 675.874 1219 673.655V668.5V687.111C1219 689.601 1219.99 691.989 1221.75 693.75C1223.51 695.511 1225.9 696.5 1228.39 696.5H1229.5" stroke="#054AEA" stroke-width="8" stroke-linecap="round"/>
<path d="M1040.51 754.033L1047.44 763.703" stroke="#5277FF" stroke-width="8" stroke-linecap="round"/>
<path d="M1021 773.863L1027.93 783.533" stroke="#5277FF" stroke-width="8" stroke-linecap="round"/>
<path d="M1037.95 775.888L1044.98 785.507" stroke="#5277FF" stroke-width="8" stroke-linecap="round"/>
<path d="M1019 800.914L1026.04 810.533" stroke="#5277FF" stroke-width="8" stroke-linecap="round"/>
<path d="M1045 800.914L1052.04 810.533" stroke="#5277FF" stroke-width="8" stroke-linecap="round"/>
<path d="M1071 794.914L1078.04 804.533" stroke="#5277FF" stroke-width="8" stroke-linecap="round"/>
<path d="M1012 834.914L1019.04 844.533" stroke="#5277FF" stroke-width="8" stroke-linecap="round"/>
<path d="M1075 864.914L1082.04 874.533" stroke="#5277FF" stroke-width="8" stroke-linecap="round"/>
<ellipse cx="459" cy="943.5" rx="20" ry="16.5" fill="#A3B7FF"/>
<ellipse cx="780" cy="1012.5" rx="20" ry="16.5" fill="#A3B7FF"/>
<defs>
<linearGradient id="paint0_linear_3362_691" x1="464.901" y1="69" x2="464.901" y2="352.558" gradientUnits="userSpaceOnUse">
<stop stop-color="#314799"/>
<stop offset="1" stop-color="#5277FF"/>
</linearGradient>
<linearGradient id="paint1_linear_3362_691" x1="979.037" y1="69" x2="979.037" y2="352.558" gradientUnits="userSpaceOnUse">
<stop stop-color="#314799"/>
<stop offset="1" stop-color="#5277FF"/>
</linearGradient>
</defs>
</svg>
