<svg width="1479" height="1436" viewBox="0 0 1479 1436" fill="none" xmlns="http://www.w3.org/2000/svg">
<g clip-path="url(#clip0_3343_5389)">
<path d="M700.874 474.846C1157 474.846 1526.3 825.458 1526.3 1257.41C1526.3 1689.36 1157 2039.97 700.874 2039.97C244.751 2039.97 -124.551 1689.36 -124.551 1257.41C-124.551 825.458 244.752 474.846 700.874 474.846Z" fill="#D6DFFF" stroke="#1A4CFF" stroke-width="10" stroke-linecap="round"/>
<circle cx="727.662" cy="381.445" r="970.08" fill="#D6DFFF" stroke="#1A4CFF" stroke-width="10" stroke-linecap="round"/>
<path d="M-129.551 1644.12V1267.9C-129.551 1245.64 -105.063 1187.76 -38.2782 1187.76C29.9805 1187.76 64.8673 1239.7 68.5776 1267.9V1339.14V1648.58C69.3197 1657.48 66.3515 1676.63 48.5422 1681.97C30.7329 1687.31 18.86 1670.84 15.1497 1661.93C16.9307 1686.87 2.53482 1704.97 -4.88573 1710.91C-29.8187 1730.5 -49.409 1717.59 -56.0874 1708.68C-93.487 1719.37 -98.3845 1693.84 -96.1584 1679.74C-122.872 1677.96 -129.551 1655.25 -129.551 1644.12Z" fill="#D6DFFF" stroke="#054AEA" stroke-width="10" stroke-linecap="round"/>
<ellipse cx="726.631" cy="954.705" rx="195.552" ry="141.976" fill="#ADBFFF"/>
<ellipse cx="529.432" cy="713.614" rx="128.582" ry="123.224" fill="#ADBFFF"/>
<ellipse cx="909.82" cy="713.614" rx="128.582" ry="123.224" fill="#ADBFFF"/>
<path d="M518.194 -6.98047C507.479 50.1671 528.909 162.855 700.352 156.426C671.411 132.317 674.089 113.565 674.089 110.887" stroke="#054AEA" stroke-width="10" stroke-linecap="round"/>
<path d="M649.591 -4.30176C638.876 52.8458 660.307 165.534 831.749 159.104C802.808 134.995 805.487 116.244 805.487 113.565" stroke="#054AEA" stroke-width="10" stroke-linecap="round"/>
<path d="M778.172 -4.30176C767.456 52.8458 788.887 165.534 960.329 159.104C931.388 134.995 934.067 116.244 934.067 113.565" stroke="#054AEA" stroke-width="10" stroke-linecap="round"/>
<path d="M698.058 826.618L764.113 826.618L731.086 883.826L698.058 826.618Z" fill="#A5A6F6" stroke="#1A4CFF" stroke-width="10" stroke-linecap="round"/>
<path d="M731 889L731 931" stroke="#054AEA" stroke-width="10" stroke-linecap="round"/>
<path d="M731 928L665 995" stroke="#054AEA" stroke-width="10" stroke-linecap="round"/>
<path d="M731 928L794 995" stroke="#054AEA" stroke-width="10" stroke-linecap="round"/>
<path d="M274.264 810.831C305.534 820.706 367.088 868.105 363.138 978.703C359.188 1089.3 275.91 1126.83 234.765 1131.76" stroke="#054AEA" stroke-width="10" stroke-linecap="round"/>
<path d="M1183.67 810.831C1152.4 820.706 1090.84 868.105 1094.79 978.703C1098.74 1089.3 1182.02 1126.83 1223.17 1131.76" stroke="#054AEA" stroke-width="10" stroke-linecap="round"/>
<path d="M2103.15 1604.69C1895.33 1846.12 1535.09 1784.67 1380.4 1723.58C1380.05 1723.45 1379.77 1723.23 1379.55 1722.93L1377.03 1719.58C1376.41 1718.74 1376.53 1717.57 1377.3 1716.88C1423.07 1675.83 1457 1621.52 1468.33 1599.3C1505.29 1533.83 1518.05 1441.78 1519.81 1403.94V1325.7C1519.81 1323.65 1522.52 1322.93 1523.54 1324.7L1525.09 1327.38C1627.52 1520.63 1914.49 1539.02 2045.17 1524.06C2133.74 1521.95 2120.89 1576.7 2103.32 1604.46C2103.27 1604.54 2103.22 1604.62 2103.15 1604.69Z" fill="#D6DFFF" stroke="#054AEA" stroke-width="10" stroke-linecap="round"/>
<circle cx="550.01" cy="683.938" r="123.373" fill="#FAFAFA" stroke="#054AEA" stroke-width="10" stroke-linecap="round"/>
<circle cx="895.631" cy="683.938" r="123.373" fill="#FAFAFA" stroke="#054AEA" stroke-width="10" stroke-linecap="round"/>
<path d="M1499.15 1644.12V1267.9C1499.15 1245.64 1474.67 1187.76 1407.88 1187.76C1339.62 1187.76 1304.74 1239.7 1301.03 1267.9V1339.14V1648.58C1300.28 1657.48 1303.25 1676.63 1321.06 1681.97C1338.87 1687.31 1350.74 1670.84 1354.45 1661.93C1352.67 1686.87 1367.07 1704.97 1374.49 1710.91C1399.42 1730.5 1419.01 1717.59 1425.69 1708.68C1463.09 1719.37 1467.99 1693.84 1465.76 1679.74C1492.48 1677.96 1499.15 1655.25 1499.15 1644.12Z" fill="#D6DFFF" stroke="#054AEA" stroke-width="10" stroke-linecap="round"/>
<path d="M549.688 635C576.923 635 599 657.078 599 684.312C599 711.546 576.923 733.623 549.688 733.623C522.454 733.623 500.377 711.546 500.377 684.312C500.377 657.078 522.454 635 549.688 635Z" fill="black" stroke="#054AEA" stroke-width="10" stroke-linecap="round"/>
<circle cx="896.312" cy="684.312" r="49.3116" fill="black" stroke="#054AEA" stroke-width="10" stroke-linecap="round"/>
</g>
<defs>
<clipPath id="clip0_3343_5389">
<rect width="1479" height="1436" fill="white"/>
</clipPath>
</defs>
</svg>
