<svg width="1479" height="1436" viewBox="0 0 1479 1436" fill="none" xmlns="http://www.w3.org/2000/svg">
<path d="M535.534 1149.25V1126.53C579.791 1083.06 633.665 1111.71 655.069 1131.47V1188.76C591.054 1224.33 541.461 1208.85 524.667 1196.67C515.973 1180.07 528.289 1158.14 535.534 1149.25Z" fill="#D6DFFF" stroke="#054AEA" stroke-width="8" stroke-linecap="round"/>
<path d="M917.823 1153.2V1130.48C873.565 1087.01 819.692 1115.66 798.287 1135.42V1192.72C862.303 1228.28 911.895 1212.8 928.69 1200.62C937.383 1184.02 925.067 1162.09 917.823 1153.2Z" fill="#D6DFFF" stroke="#054AEA" stroke-width="8" stroke-linecap="round"/>
<path d="M522.14 240.274C506.496 286.659 536.962 322.115 543.275 327.88C543.83 328.387 544.538 328.653 545.283 328.751C580.901 333.43 589.101 304.565 588.847 286.134C588.814 283.72 586.884 281.844 584.507 281.426C560.083 277.123 541.179 255.648 531.21 239.696C528.972 236.116 523.489 236.273 522.14 240.274Z" fill="url(#paint0_linear_3362_343)" stroke="#054AEA" stroke-width="8" stroke-linecap="round"/>
<path d="M973.44 249.851C989.789 296.463 958.22 332.104 951.791 337.79C951.239 338.278 950.545 338.531 949.814 338.625C913.161 343.339 904.724 314.455 904.985 296.014C905.02 293.601 906.955 291.728 909.335 291.326C934.648 287.041 954.205 265.284 964.415 249.28C966.658 245.762 972.06 245.914 973.44 249.851Z" fill="url(#paint1_linear_3362_343)" stroke="#054AEA" stroke-width="8" stroke-linecap="round"/>
<path d="M765.223 260.513C745.886 269.792 725.303 265.576 713.923 260.868C711.359 259.808 710.475 256.741 711.825 254.317L743.307 197.758C745.49 193.836 751.334 194.554 752.503 198.887L767.643 254.985C768.236 257.182 767.275 259.528 765.223 260.513Z" fill="url(#paint2_linear_3362_343)" stroke="#054AEA" stroke-width="8" stroke-linecap="round"/>
<path d="M729.135 612.83C896.264 612.83 1031.38 741.272 1031.38 899.271C1031.38 1057.27 896.264 1185.71 729.135 1185.71C562.006 1185.71 426.887 1057.27 426.887 899.271C426.887 741.271 562.006 612.83 729.135 612.83Z" fill="#D6DFFF" stroke="#1A4CFF" stroke-width="8" stroke-linecap="round"/>
<path d="M739.014 220.638C935.403 220.638 1094.61 379.843 1094.61 576.231C1094.61 772.62 935.403 931.825 739.014 931.825C542.624 931.825 383.419 772.621 383.419 576.231C383.419 379.842 542.624 220.638 739.014 220.638Z" fill="#D6DFFF" stroke="#1A4CFF" stroke-width="8" stroke-linecap="round"/>
<path d="M338.13 555.93C362.381 597.933 394.177 573.431 407.043 555.93L397.198 493.58C367.404 496.861 313.879 513.926 338.13 555.93Z" fill="#ADBFFF"/>
<path d="M405.459 553.334C392.864 570.868 361.74 595.416 338.001 553.334C314.262 511.251 366.657 494.155 395.822 490.867" stroke="#054AEA" stroke-width="8" stroke-linecap="round"/>
<path d="M1140.4 555.93C1116.15 597.933 1084.35 573.431 1071.49 555.93L1081.33 493.58C1111.13 496.861 1164.65 513.926 1140.4 555.93Z" fill="#ADBFFF"/>
<path d="M1073.07 553.334C1085.67 570.868 1116.79 595.416 1140.53 553.334C1164.27 511.251 1111.87 494.155 1082.71 490.867" stroke="#054AEA" stroke-width="8" stroke-linecap="round"/>
<ellipse cx="849.658" cy="343.087" rx="23.7095" ry="11.8547" fill="#F3FFC6"/>
<ellipse cx="626.393" cy="305.548" rx="17.7821" ry="8.89106" fill="#F3FFC6"/>
<ellipse cx="774.578" cy="315.426" rx="17.7821" ry="8.89106" fill="#F3FFC6"/>
<ellipse cx="789.396" cy="260.105" rx="10.8669" ry="6.91527" fill="#F3FFC6"/>
<ellipse cx="801.251" cy="266.03" rx="10.8669" ry="6.91527" fill="#F3FFC6"/>
<ellipse cx="967.217" cy="353.956" rx="10.8669" ry="6.91527" fill="#F3FFC6"/>
<path d="M995.866 1060.66V921.912C995.866 913.703 986.835 892.357 962.206 892.357C937.034 892.357 924.168 911.513 922.8 921.912V948.183V1062.3C922.526 1065.58 923.621 1072.64 930.188 1074.61C936.756 1076.58 941.135 1070.51 942.503 1067.22C941.846 1076.42 947.155 1083.1 949.892 1085.29C959.087 1092.51 966.311 1087.75 968.774 1084.46C982.566 1088.41 984.373 1078.99 983.552 1073.79C993.403 1073.14 995.866 1064.76 995.866 1060.66Z" fill="#D6DFFF" stroke="#054AEA" stroke-width="8" stroke-linecap="round"/>
<path d="M819.32 1270.37C765.859 1244.74 700.392 1183.77 657.446 1138.6C638.976 1119.17 628.227 1092.17 634.54 1066.12C640.473 1041.64 654.266 1015.05 689.469 997.154C720.53 981.366 753.849 994.02 776.1 1008.6C789.275 1017.23 797.542 1031.23 802.082 1046.31C831.375 1143.63 834.848 1223.89 832.171 1262.86C831.727 1269.31 825.152 1273.17 819.32 1270.37Z" fill="#D6DFFF" stroke="#054AEA" stroke-width="8" stroke-linecap="round"/>
<ellipse cx="761.867" cy="1140.68" rx="15.3124" ry="18.1714" transform="rotate(-26.9443 761.867 1140.68)" fill="url(#paint3_linear_3362_343)"/>
<ellipse cx="711.197" cy="1040.99" rx="15.3124" ry="18.1714" transform="rotate(-26.9443 711.197 1040.99)" fill="url(#paint4_linear_3362_343)"/>
<ellipse cx="797.336" cy="1210.46" rx="15.3124" ry="18.1714" transform="rotate(-26.9443 797.336 1210.46)" fill="url(#paint5_linear_3362_343)"/>
<ellipse cx="749.621" cy="1116.58" rx="15.3124" ry="18.1714" transform="rotate(-26.9443 749.621 1116.58)" fill="url(#paint6_linear_3362_343)"/>
<ellipse cx="698.951" cy="1016.9" rx="15.3124" ry="18.1714" transform="rotate(-26.9443 698.951 1016.9)" fill="url(#paint7_linear_3362_343)"/>
<ellipse cx="784.245" cy="1184.7" rx="15.3124" ry="18.1714" transform="rotate(-26.9443 784.245 1184.7)" fill="url(#paint8_linear_3362_343)"/>
<ellipse cx="736.532" cy="1090.83" rx="15.3124" ry="18.1714" transform="rotate(-26.9443 736.532 1090.83)" fill="url(#paint9_linear_3362_343)"/>
<path d="M728.086 1074.22C722.233 1081.03 715.311 1095.94 729.967 1105.18C732.337 1106.68 733.498 1109.66 733.059 1112.42C732.114 1118.37 733.59 1126.28 742.987 1131.08C745.358 1132.29 746.797 1134.9 746.593 1137.56C746.025 1144.95 748.241 1155.02 760.045 1157.8C774.652 1161.25 778.239 1148.9 778.207 1142.3C777.961 1138.12 776.247 1130.78 771.577 1126.74C768.923 1124.44 766.545 1120.39 766.524 1116.88C766.491 1111.47 763.857 1104.84 754.764 1099.9C753.164 1099.03 752.035 1097.47 751.782 1095.66C750.046 1083.26 743.339 1065.3 727.206 1074.66M716.366 1025.78C733.126 1039.04 725.978 1051.58 719.415 1056.96C718.855 1057.42 718.169 1057.72 717.455 1057.84C699.584 1060.85 695.265 1046.21 695.279 1036.44C695.281 1034.82 694.635 1033.25 693.447 1032.15C678.383 1018.19 683.237 1006.71 688.082 1002.2C688.365 1001.94 688.703 1001.72 689.051 1001.55C707.657 992.476 713.443 1009.82 714.226 1021.7C714.331 1023.3 715.11 1024.78 716.366 1025.78Z" stroke="#054AEA" stroke-width="8" stroke-linecap="round"/>
<path d="M782.007 1204.13C764.109 1188.98 769.969 1176.45 775.137 1172.08C795.568 1161.7 800.853 1182.71 800.942 1194.51C821.122 1208.92 812.17 1222.78 805.171 1227.9C784.672 1232.05 781.187 1213.78 782.007 1204.13Z" stroke="#054AEA" stroke-width="8" stroke-linecap="round"/>
<ellipse cx="712.031" cy="1135.29" rx="17.7821" ry="8.89106" transform="rotate(-26.9443 712.031 1135.29)" fill="#F3FFC6"/>
<ellipse cx="787.827" cy="1105.63" rx="9.87896" ry="4.93948" transform="rotate(-26.9443 787.827 1105.63)" fill="#F3FFC6"/>
<ellipse cx="755.783" cy="1203.92" rx="9.87896" ry="4.93948" transform="rotate(-26.9443 755.783 1203.92)" fill="#F3FFC6"/>
<ellipse cx="748.563" cy="1181" rx="9.87896" ry="4.93948" transform="rotate(-26.9443 748.563 1181)" fill="#F3FFC6"/>
<ellipse cx="798.686" cy="1144.44" rx="9.87896" ry="4.93948" transform="rotate(-26.9443 798.686 1144.44)" fill="#F3FFC6"/>
<ellipse cx="812.087" cy="1166.44" rx="9.87896" ry="4.93948" transform="rotate(-26.9443 812.087 1166.44)" fill="#F3FFC6"/>
<ellipse cx="802.151" cy="1133.81" rx="9.87896" ry="4.93948" transform="rotate(-26.9443 802.151 1133.81)" fill="#F3FFC6"/>
<defs>
<linearGradient id="paint0_linear_3362_343" x1="553.289" y1="230.467" x2="553.289" y2="329.256" gradientUnits="userSpaceOnUse">
<stop stop-color="#88A2FF"/>
<stop offset="1" stop-color="#314799"/>
</linearGradient>
<linearGradient id="paint1_linear_3362_343" x1="941.532" y1="240.348" x2="941.532" y2="339.137" gradientUnits="userSpaceOnUse">
<stop stop-color="#88A2FF"/>
<stop offset="1" stop-color="#314799"/>
</linearGradient>
<linearGradient id="paint2_linear_3362_343" x1="739.013" y1="187" x2="739.013" y2="266.032" gradientUnits="userSpaceOnUse">
<stop stop-color="#88A2FF"/>
<stop offset="1" stop-color="#314799"/>
</linearGradient>
<linearGradient id="paint3_linear_3362_343" x1="761.867" y1="1122.5" x2="761.867" y2="1158.85" gradientUnits="userSpaceOnUse">
<stop offset="0.403846" stop-color="#E3FC87"/>
<stop offset="1" stop-color="#88A2FF"/>
</linearGradient>
<linearGradient id="paint4_linear_3362_343" x1="711.197" y1="1022.82" x2="711.197" y2="1059.16" gradientUnits="userSpaceOnUse">
<stop offset="0.403846" stop-color="#E3FC87"/>
<stop offset="1" stop-color="#88A2FF"/>
</linearGradient>
<linearGradient id="paint5_linear_3362_343" x1="797.336" y1="1192.28" x2="797.336" y2="1228.63" gradientUnits="userSpaceOnUse">
<stop offset="0.403846" stop-color="#E3FC87"/>
<stop offset="1" stop-color="#88A2FF"/>
</linearGradient>
<linearGradient id="paint6_linear_3362_343" x1="749.621" y1="1098.41" x2="749.621" y2="1134.75" gradientUnits="userSpaceOnUse">
<stop offset="0.403846" stop-color="#E3FC87"/>
<stop offset="1" stop-color="#88A2FF"/>
</linearGradient>
<linearGradient id="paint7_linear_3362_343" x1="698.951" y1="998.727" x2="698.951" y2="1035.07" gradientUnits="userSpaceOnUse">
<stop offset="0.403846" stop-color="#E3FC87"/>
<stop offset="1" stop-color="#88A2FF"/>
</linearGradient>
<linearGradient id="paint8_linear_3362_343" x1="784.245" y1="1166.53" x2="784.245" y2="1202.87" gradientUnits="userSpaceOnUse">
<stop offset="0.403846" stop-color="#E3FC87"/>
<stop offset="1" stop-color="#88A2FF"/>
</linearGradient>
<linearGradient id="paint9_linear_3362_343" x1="736.532" y1="1072.66" x2="736.532" y2="1109" gradientUnits="userSpaceOnUse">
<stop offset="0.403846" stop-color="#E3FC87"/>
<stop offset="1" stop-color="#88A2FF"/>
</linearGradient>
</defs>
</svg>
