<svg width="1479" height="1436" viewBox="0 0 1479 1436" fill="none" xmlns="http://www.w3.org/2000/svg">
<path d="M535.534 1149.25V1126.53C579.791 1083.06 633.665 1111.71 655.069 1131.47V1188.76C591.054 1224.33 541.461 1208.85 524.667 1196.67C515.973 1180.07 528.289 1158.14 535.534 1149.25Z" fill="#D6DFFF" stroke="#054AEA" stroke-width="8" stroke-linecap="round"/>
<path d="M917.823 1153.2V1130.48C873.565 1087.01 819.692 1115.66 798.287 1135.42V1192.72C862.303 1228.28 911.895 1212.8 928.69 1200.62C937.383 1184.02 925.067 1162.09 917.823 1153.2Z" fill="#D6DFFF" stroke="#054AEA" stroke-width="8" stroke-linecap="round"/>
<path d="M522.14 240.274C506.496 286.659 536.962 322.115 543.275 327.88C543.83 328.387 544.538 328.653 545.283 328.751C580.901 333.43 589.101 304.565 588.847 286.134C588.814 283.72 586.884 281.844 584.507 281.426C560.083 277.123 541.179 255.648 531.21 239.696C528.972 236.116 523.489 236.273 522.14 240.274Z" fill="url(#paint0_linear_3343_4879)" stroke="#054AEA" stroke-width="8" stroke-linecap="round"/>
<path d="M973.44 249.851C989.789 296.463 958.22 332.104 951.791 337.79C951.239 338.278 950.545 338.531 949.814 338.625C913.161 343.339 904.724 314.455 904.985 296.014C905.02 293.601 906.955 291.728 909.335 291.326C934.648 287.041 954.205 265.284 964.415 249.28C966.658 245.762 972.06 245.914 973.44 249.851Z" fill="url(#paint1_linear_3343_4879)" stroke="#054AEA" stroke-width="8" stroke-linecap="round"/>
<path d="M765.223 260.513C745.886 269.792 725.303 265.576 713.923 260.868C711.359 259.808 710.475 256.741 711.825 254.317L743.307 197.758C745.49 193.836 751.334 194.554 752.503 198.887L767.643 254.985C768.236 257.182 767.275 259.528 765.223 260.513Z" fill="url(#paint2_linear_3343_4879)" stroke="#054AEA" stroke-width="8" stroke-linecap="round"/>
<path d="M729.135 612.83C896.264 612.83 1031.38 741.272 1031.38 899.271C1031.38 1057.27 896.264 1185.71 729.135 1185.71C562.006 1185.71 426.887 1057.27 426.887 899.271C426.887 741.271 562.005 612.83 729.135 612.83Z" fill="#D6DFFF" stroke="#1A4CFF" stroke-width="8" stroke-linecap="round"/>
<path d="M739.014 220.638C935.403 220.638 1094.61 379.843 1094.61 576.231C1094.61 772.62 935.403 931.825 739.014 931.825C542.624 931.825 383.419 772.621 383.419 576.231C383.419 379.842 542.624 220.638 739.014 220.638Z" fill="#D6DFFF" stroke="#1A4CFF" stroke-width="8" stroke-linecap="round"/>
<path d="M623.698 1270.37C677.159 1244.74 742.626 1183.77 785.572 1138.6C804.042 1119.17 814.791 1092.17 808.477 1066.12C802.545 1041.64 788.752 1015.05 753.548 997.154C722.487 981.366 689.168 994.02 666.917 1008.6C653.743 1017.23 645.475 1031.23 640.936 1046.31C611.643 1143.63 608.17 1223.89 610.847 1262.86C611.29 1269.31 617.865 1273.17 623.698 1270.37Z" fill="#D6DFFF" stroke="#054AEA" stroke-width="8" stroke-linecap="round"/>
<ellipse cx="15.3124" cy="18.1714" rx="15.3124" ry="18.1714" transform="matrix(-0.891448 -0.453124 -0.453124 0.891448 703.035 1131.42)" fill="url(#paint3_linear_3343_4879)"/>
<ellipse cx="15.3124" cy="18.1714" rx="15.3124" ry="18.1714" transform="matrix(-0.891448 -0.453124 -0.453124 0.891448 753.705 1031.73)" fill="url(#paint4_linear_3343_4879)"/>
<ellipse cx="15.3124" cy="18.1714" rx="15.3124" ry="18.1714" transform="matrix(-0.891448 -0.453124 -0.453124 0.891448 667.565 1201.2)" fill="url(#paint5_linear_3343_4879)"/>
<ellipse cx="15.3124" cy="18.1714" rx="15.3124" ry="18.1714" transform="matrix(-0.891448 -0.453124 -0.453124 0.891448 715.28 1107.32)" fill="url(#paint6_linear_3343_4879)"/>
<ellipse cx="15.3124" cy="18.1714" rx="15.3124" ry="18.1714" transform="matrix(-0.891448 -0.453124 -0.453124 0.891448 765.951 1007.64)" fill="url(#paint7_linear_3343_4879)"/>
<ellipse cx="15.3124" cy="18.1714" rx="15.3124" ry="18.1714" transform="matrix(-0.891448 -0.453124 -0.453124 0.891448 680.656 1175.44)" fill="url(#paint8_linear_3343_4879)"/>
<ellipse cx="15.3124" cy="18.1714" rx="15.3124" ry="18.1714" transform="matrix(-0.891448 -0.453124 -0.453124 0.891448 728.37 1081.57)" fill="url(#paint9_linear_3343_4879)"/>
<path d="M714.931 1074.22C720.785 1081.03 727.707 1095.94 713.05 1105.18C710.681 1106.68 709.52 1109.66 709.959 1112.42C710.904 1118.37 709.427 1126.28 700.031 1131.08C697.66 1132.29 696.22 1134.9 696.424 1137.56C696.992 1144.95 694.776 1155.02 682.973 1157.8C668.366 1161.25 664.778 1148.9 664.811 1142.3C665.056 1138.12 666.771 1130.78 671.44 1126.74C674.095 1124.44 676.473 1120.39 676.494 1116.88C676.526 1111.47 679.16 1104.84 688.253 1099.9C689.853 1099.03 690.983 1097.47 691.235 1095.66C692.972 1083.26 699.679 1065.3 715.812 1074.66M726.652 1025.78C709.892 1039.04 717.039 1051.58 723.603 1056.96C724.163 1057.42 724.849 1057.72 725.562 1057.84C743.434 1060.85 747.752 1046.21 747.739 1036.44C747.737 1034.82 748.383 1033.25 749.571 1032.15C764.634 1018.19 759.781 1006.71 754.936 1002.2C754.653 1001.94 754.314 1001.72 753.967 1001.55C735.361 992.476 729.574 1009.82 728.792 1021.7C728.686 1023.3 727.908 1024.78 726.652 1025.78Z" stroke="#054AEA" stroke-width="8" stroke-linecap="round"/>
<path d="M661.01 1204.13C678.908 1188.98 673.048 1176.45 667.881 1172.08C647.45 1161.7 642.165 1182.71 642.076 1194.51C621.895 1208.92 630.848 1222.78 637.847 1227.9C658.346 1232.05 661.83 1213.78 661.01 1204.13Z" stroke="#054AEA" stroke-width="8" stroke-linecap="round"/>
<ellipse cx="17.7821" cy="8.89106" rx="17.7821" ry="8.89106" transform="matrix(-0.891448 -0.453124 -0.453124 0.891448 750.867 1135.42)" fill="#F3FFC6"/>
<ellipse cx="9.87896" cy="4.93948" rx="9.87896" ry="4.93948" transform="matrix(-0.891448 -0.453124 -0.453124 0.891448 666.235 1105.7)" fill="#F3FFC6"/>
<ellipse cx="9.87896" cy="4.93948" rx="9.87896" ry="4.93948" transform="matrix(-0.891448 -0.453124 -0.453124 0.891448 698.279 1204)" fill="#F3FFC6"/>
<ellipse cx="9.87896" cy="4.93948" rx="9.87896" ry="4.93948" transform="matrix(-0.891448 -0.453124 -0.453124 0.891448 705.499 1181.07)" fill="#F3FFC6"/>
<ellipse cx="9.87896" cy="4.93948" rx="9.87896" ry="4.93948" transform="matrix(-0.891448 -0.453124 -0.453124 0.891448 655.376 1144.51)" fill="#F3FFC6"/>
<ellipse cx="9.87896" cy="4.93948" rx="9.87896" ry="4.93948" transform="matrix(-0.891448 -0.453124 -0.453124 0.891448 641.976 1166.51)" fill="#F3FFC6"/>
<ellipse cx="9.87896" cy="4.93948" rx="9.87896" ry="4.93948" transform="matrix(-0.891448 -0.453124 -0.453124 0.891448 651.911 1133.88)" fill="#F3FFC6"/>
<path d="M338.13 555.93C362.381 597.933 394.177 573.431 407.043 555.93L397.198 493.58C367.404 496.861 313.879 513.926 338.13 555.93Z" fill="#ADBFFF"/>
<path d="M405.459 553.334C392.864 570.868 361.74 595.416 338.001 553.334C314.262 511.251 366.657 494.155 395.822 490.867" stroke="#054AEA" stroke-width="8" stroke-linecap="round"/>
<path d="M1140.4 555.93C1116.15 597.933 1084.35 573.431 1071.49 555.93L1081.33 493.58C1111.13 496.861 1164.65 513.926 1140.4 555.93Z" fill="#ADBFFF"/>
<path d="M1073.07 553.334C1085.67 570.868 1116.79 595.416 1140.53 553.334C1164.27 511.251 1111.87 494.155 1082.71 490.867" stroke="#054AEA" stroke-width="8" stroke-linecap="round"/>
<ellipse cx="849.658" cy="343.087" rx="23.7095" ry="11.8547" fill="#F3FFC6"/>
<ellipse cx="626.393" cy="305.548" rx="17.7821" ry="8.89106" fill="#F3FFC6"/>
<ellipse cx="774.578" cy="315.426" rx="17.7821" ry="8.89106" fill="#F3FFC6"/>
<ellipse cx="789.396" cy="260.105" rx="10.8669" ry="6.91527" fill="#F3FFC6"/>
<ellipse cx="801.251" cy="266.03" rx="10.8669" ry="6.91527" fill="#F3FFC6"/>
<ellipse cx="967.217" cy="353.956" rx="10.8669" ry="6.91527" fill="#F3FFC6"/>
<path d="M995.866 1060.66V921.912C995.866 913.703 986.835 892.357 962.206 892.357C937.034 892.357 924.168 911.513 922.8 921.912V948.183V1062.3C922.526 1065.58 923.621 1072.64 930.188 1074.61C936.756 1076.58 941.135 1070.51 942.503 1067.22C941.846 1076.42 947.155 1083.1 949.892 1085.29C959.087 1092.51 966.311 1087.75 968.774 1084.46C982.566 1088.41 984.373 1078.99 983.552 1073.79C993.403 1073.14 995.866 1064.76 995.866 1060.66Z" fill="#D6DFFF" stroke="#054AEA" stroke-width="8" stroke-linecap="round"/>
<defs>
<linearGradient id="paint0_linear_3343_4879" x1="553.289" y1="230.467" x2="553.289" y2="329.256" gradientUnits="userSpaceOnUse">
<stop stop-color="#88A2FF"/>
<stop offset="1" stop-color="#314799"/>
</linearGradient>
<linearGradient id="paint1_linear_3343_4879" x1="941.532" y1="240.348" x2="941.532" y2="339.137" gradientUnits="userSpaceOnUse">
<stop stop-color="#88A2FF"/>
<stop offset="1" stop-color="#314799"/>
</linearGradient>
<linearGradient id="paint2_linear_3343_4879" x1="739.013" y1="187" x2="739.013" y2="266.032" gradientUnits="userSpaceOnUse">
<stop stop-color="#88A2FF"/>
<stop offset="1" stop-color="#314799"/>
</linearGradient>
<linearGradient id="paint3_linear_3343_4879" x1="15.3124" y1="0" x2="15.3124" y2="36.3427" gradientUnits="userSpaceOnUse">
<stop offset="0.403846" stop-color="#E3FC87"/>
<stop offset="1" stop-color="#88A2FF"/>
</linearGradient>
<linearGradient id="paint4_linear_3343_4879" x1="15.3124" y1="0" x2="15.3124" y2="36.3427" gradientUnits="userSpaceOnUse">
<stop offset="0.403846" stop-color="#E3FC87"/>
<stop offset="1" stop-color="#88A2FF"/>
</linearGradient>
<linearGradient id="paint5_linear_3343_4879" x1="15.3124" y1="0" x2="15.3124" y2="36.3427" gradientUnits="userSpaceOnUse">
<stop offset="0.403846" stop-color="#E3FC87"/>
<stop offset="1" stop-color="#88A2FF"/>
</linearGradient>
<linearGradient id="paint6_linear_3343_4879" x1="15.3124" y1="0" x2="15.3124" y2="36.3427" gradientUnits="userSpaceOnUse">
<stop offset="0.403846" stop-color="#E3FC87"/>
<stop offset="1" stop-color="#88A2FF"/>
</linearGradient>
<linearGradient id="paint7_linear_3343_4879" x1="15.3124" y1="0" x2="15.3124" y2="36.3427" gradientUnits="userSpaceOnUse">
<stop offset="0.403846" stop-color="#E3FC87"/>
<stop offset="1" stop-color="#88A2FF"/>
</linearGradient>
<linearGradient id="paint8_linear_3343_4879" x1="15.3124" y1="0" x2="15.3124" y2="36.3427" gradientUnits="userSpaceOnUse">
<stop offset="0.403846" stop-color="#E3FC87"/>
<stop offset="1" stop-color="#88A2FF"/>
</linearGradient>
<linearGradient id="paint9_linear_3343_4879" x1="15.3124" y1="0" x2="15.3124" y2="36.3427" gradientUnits="userSpaceOnUse">
<stop offset="0.403846" stop-color="#E3FC87"/>
<stop offset="1" stop-color="#88A2FF"/>
</linearGradient>
</defs>
</svg>
