<svg width="1479" height="1436" viewBox="0 0 1479 1436" fill="none" xmlns="http://www.w3.org/2000/svg">
<path d="M610.271 1174V1142.28C610.271 1140.28 611.513 1138.44 613.368 1137.69C691.795 1105.83 723.868 1155.88 730.27 1185.75C730.341 1186.08 730.373 1186.41 730.373 1186.75V1208.66C730.373 1210.05 729.797 1211.4 728.733 1212.3C708.992 1229.07 679.802 1229.17 665.96 1226.88C664.948 1226.71 663.915 1226.83 662.96 1227.21C650.069 1232.28 635.507 1229.58 628.445 1227.13C627.498 1226.8 626.481 1226.72 625.494 1226.9C618.245 1228.18 613.767 1226.63 611.572 1225.04C610.619 1224.35 609.648 1223.62 608.513 1223.31L603.383 1221.94C602.73 1221.77 602.107 1221.47 601.619 1221C592.269 1212.06 602.495 1188.58 609.548 1176.61C610.015 1175.82 610.271 1174.92 610.271 1174Z" fill="#D6DFFF" stroke="#054AEA" stroke-width="8" stroke-linecap="round"/>
<path d="M614.604 1203.26C611.322 1205.89 605.35 1213.7 607.713 1223.94" stroke="#054AEA" stroke-width="8" stroke-linecap="round"/>
<path d="M633.308 1208.18C629.37 1211.14 622.282 1219.21 625.433 1227.87" stroke="#054AEA" stroke-width="8" stroke-linecap="round"/>
<path d="M673.67 1205.23C669.404 1206.87 661.66 1213.3 664.81 1225.9" stroke="#054AEA" stroke-width="8" stroke-linecap="round"/>
<path d="M979.834 1174V1142.28C979.834 1140.28 978.592 1138.44 976.737 1137.69C898.31 1105.83 866.237 1155.88 859.834 1185.75C859.763 1186.08 859.731 1186.41 859.731 1186.75V1208.66C859.731 1210.05 860.308 1211.4 861.372 1212.3C881.113 1229.07 910.303 1229.17 924.144 1226.88C925.157 1226.71 926.189 1226.83 927.144 1227.21C940.035 1232.28 954.597 1229.58 961.659 1227.13C962.607 1226.8 963.624 1226.72 964.611 1226.9C971.86 1228.18 976.338 1226.63 978.532 1225.04C979.485 1224.35 980.457 1223.62 981.592 1223.31L986.721 1221.94C987.374 1221.77 987.997 1221.47 988.486 1221C997.836 1212.06 987.61 1188.58 980.557 1176.61C980.09 1175.82 979.834 1174.92 979.834 1174Z" fill="#D6DFFF" stroke="#054AEA" stroke-width="8" stroke-linecap="round"/>
<path d="M975.501 1203.26C978.782 1205.89 984.755 1213.7 982.392 1223.94" stroke="#054AEA" stroke-width="8" stroke-linecap="round"/>
<path d="M956.796 1208.18C960.734 1211.14 967.822 1219.21 964.672 1227.87" stroke="#054AEA" stroke-width="8" stroke-linecap="round"/>
<path d="M916.434 1205.23C920.7 1206.87 928.444 1213.3 925.294 1225.9" stroke="#054AEA" stroke-width="8" stroke-linecap="round"/>
<path d="M790.82 631.359C957.359 631.359 1092 759.347 1092 916.787C1092 1074.23 957.359 1202.21 790.82 1202.21C624.281 1202.21 489.641 1074.23 489.641 916.787C489.641 759.347 624.281 631.36 790.82 631.359Z" fill="#D6DFFF" stroke="#1A4CFF" stroke-width="8" stroke-linecap="round"/>
<circle opacity="0.3" cx="800.664" cy="598.812" r="354.339" fill="#D6DFFF" stroke="#1A4CFF" stroke-width="8" stroke-linecap="round"/>
<path d="M800.664 240.535C883.332 240.535 1025.14 282.235 1105.35 417.742C1185.58 553.277 1152.08 677.63 1128.77 730.088L1127.66 732.579L1129.57 734.521C1146.48 751.674 1150.2 772.091 1147.35 790.573C1144.47 809.228 1134.91 825.622 1125.76 834.117C1112.42 846.506 1100.37 852.395 1088.87 854.527C1077.32 856.67 1065.91 855.099 1053.7 851.885L1051.53 851.312L1049.91 852.871C945.685 953.199 839.011 954.449 799.812 953.153L799.746 953.151H799.679C604.054 953.151 446.325 790.642 446.325 594.874C446.325 399.178 604.968 240.535 800.664 240.535Z" fill="#D6DFFF" stroke="#1A4CFF" stroke-width="8" stroke-linecap="round"/>
<path d="M584.536 260.125C568.976 306.323 599.31 341.635 605.606 347.388C606.161 347.894 606.869 348.161 607.614 348.259C643.095 352.918 651.271 324.172 651.023 305.804C650.99 303.391 649.059 301.515 646.682 301.096C622.367 296.805 603.543 275.436 593.605 259.546C591.367 255.966 585.883 256.124 584.536 260.125Z" fill="url(#paint0_linear_3352_392)" stroke="#054AEA" stroke-width="8" stroke-linecap="round"/>
<path d="M1034.29 269.663C1050.55 316.09 1019.11 351.586 1012.7 357.26C1012.15 357.748 1011.46 358.001 1010.73 358.095C974.213 362.789 965.802 334.023 966.057 315.647C966.091 313.234 968.026 311.361 970.406 310.958C995.608 306.685 1015.08 285.034 1025.26 269.091C1027.5 265.574 1032.91 265.726 1034.29 269.663Z" fill="url(#paint1_linear_3352_392)" stroke="#054AEA" stroke-width="8" stroke-linecap="round"/>
<path d="M826.771 280.262C807.513 289.497 787.019 285.305 775.678 280.617C773.113 279.557 772.23 276.491 773.58 274.067L804.923 217.758C807.105 213.836 812.949 214.554 814.119 218.887L829.191 274.735C829.784 276.932 828.824 279.278 826.771 280.262Z" fill="url(#paint2_linear_3352_392)" stroke="#054AEA" stroke-width="8" stroke-linecap="round"/>
<path d="M401.181 574.641C425.347 616.499 457.032 592.082 469.853 574.641L460.043 512.509C430.353 515.779 377.014 532.784 401.181 574.641Z" fill="#ADBFFF"/>
<path d="M468.274 572.055C455.723 589.528 424.708 613.991 401.052 572.055C377.395 530.12 429.608 513.083 458.671 509.807" stroke="#054AEA" stroke-width="8" stroke-linecap="round"/>
<path d="M1200.65 574.641C1176.48 616.499 1144.8 592.082 1131.98 574.641L1141.79 512.509C1171.48 515.779 1224.82 532.784 1200.65 574.641Z" fill="#ADBFFF"/>
<path d="M1133.56 572.055C1146.11 589.528 1177.12 613.991 1200.78 572.055C1224.44 530.12 1172.22 513.083 1143.16 509.807" stroke="#054AEA" stroke-width="8" stroke-linecap="round"/>
<path d="M552.583 1061.86V923.597C552.583 915.416 561.582 894.146 586.126 894.146C611.211 894.146 624.031 913.235 625.395 923.597V949.777V1063.49C625.668 1066.77 624.577 1073.8 618.032 1075.77C611.487 1077.73 607.124 1071.67 605.76 1068.4C606.415 1077.57 601.124 1084.22 598.397 1086.4C589.235 1093.6 582.035 1088.86 579.581 1085.58C565.837 1089.51 564.037 1080.13 564.855 1074.95C555.038 1074.29 552.583 1065.95 552.583 1061.86Z" fill="#D6DFFF" stroke="#054AEA" stroke-width="8" stroke-linecap="round"/>
<ellipse cx="904.031" cy="782.902" rx="71.8647" ry="52.1758" fill="#ADBFFF"/>
<ellipse cx="847.918" cy="694.303" rx="47.2535" ry="45.2846" fill="#ADBFFF"/>
<ellipse cx="975.896" cy="694.303" rx="47.2535" ry="45.2846" fill="#ADBFFF"/>
<path d="M723.684 452.129C719.747 473.13 727.622 514.543 790.627 512.18C779.991 503.32 780.976 496.429 780.976 495.445" stroke="#054AEA" stroke-width="8" stroke-linecap="round"/>
<path d="M771.974 453.113C768.036 474.115 775.911 515.527 838.916 513.165C828.28 504.305 829.265 497.413 829.265 496.429" stroke="#054AEA" stroke-width="8" stroke-linecap="round"/>
<path d="M819.227 453.113C815.289 474.115 823.165 515.527 886.169 513.165C875.534 504.305 876.518 497.413 876.518 496.429" stroke="#054AEA" stroke-width="8" stroke-linecap="round"/>
<path d="M913.633 737.994L930.417 737.994L922.025 752.53L913.633 737.994Z" fill="#A5A6F6" stroke="#1A4CFF" stroke-width="8" stroke-linecap="round"/>
<path d="M754.144 730.03C765.636 733.659 788.257 751.078 786.805 791.723C785.354 832.367 754.749 846.158 739.628 847.972" stroke="#054AEA" stroke-width="8" stroke-linecap="round"/>
<path d="M1016.5 729.743C1005.01 733.372 982.387 750.791 983.838 791.436C985.29 832.08 1015.89 845.87 1031.02 847.685" stroke="#054AEA" stroke-width="8" stroke-linecap="round"/>
<ellipse cx="910.923" cy="362.544" rx="23.6268" ry="11.8134" fill="#F3FFC6"/>
<ellipse cx="688.437" cy="325.134" rx="17.7201" ry="8.86003" fill="#F3FFC6"/>
<ellipse cx="836.104" cy="334.979" rx="17.7201" ry="8.86003" fill="#F3FFC6"/>
<ellipse cx="850.871" cy="279.85" rx="10.8289" ry="6.89114" fill="#F3FFC6"/>
<ellipse cx="862.685" cy="285.756" rx="10.8289" ry="6.89114" fill="#F3FFC6"/>
<ellipse cx="1028.07" cy="373.373" rx="10.8289" ry="6.89114" fill="#F3FFC6"/>
<path d="M277.782 1038.01C354.248 1126.75 486.786 1104.02 543.519 1081.56C498.713 1017.09 490.334 960.446 491.755 936.513C491.806 935.655 490.588 935.284 490.158 936.028C452.515 1007.05 347.055 1013.8 299.03 1008.31C266.56 1007.53 271.181 1027.55 277.61 1037.78C277.661 1037.86 277.719 1037.94 277.782 1038.01Z" fill="#D6DFFF"/>
<path d="M543.519 1081.56C486.786 1104.02 354.248 1126.75 277.782 1038.01C277.719 1037.94 277.661 1037.86 277.61 1037.78C271.181 1027.55 266.56 1007.53 299.03 1008.31C347.055 1013.8 452.515 1007.05 490.158 936.028C490.588 935.284 491.806 935.655 491.755 936.513C490.334 960.446 498.713 1017.09 543.519 1081.56ZM543.519 1081.56L544.974 1079.62" stroke="#054AEA" stroke-width="8" stroke-linecap="round"/>
<path d="M406.261 972.217C414.467 959.824 417.808 982.121 418.452 994.819C409.201 999 384.387 1004.09 373.137 1006.12L367.969 992.864C361.882 974.017 375.033 981.6 382.369 987.747C379.15 941.774 394.409 965.327 402.441 982.85L406.261 972.217Z" fill="url(#paint3_linear_3352_392)" stroke="#054AEA" stroke-width="8" stroke-linecap="round"/>
<path d="M338.341 983.521C349.383 973.571 347.047 995.996 344.5 1008.45C334.497 1010.19 309.198 1008.92 297.799 1008.07L296.105 993.948C294.919 974.178 305.759 984.806 311.327 992.591C319.694 947.271 328.586 973.889 331.986 992.863L338.341 983.521Z" fill="url(#paint4_linear_3352_392)" stroke="#054AEA" stroke-width="8" stroke-linecap="round"/>
<path d="M491.128 878.303V935.545C478.322 956.501 462.508 969.825 456.201 973.867L444.074 959.314C423.506 930.208 443.589 935.544 456.201 941.851L454.261 933.119C442.231 890.819 464.678 906.439 477.405 919.536V902.073C477.405 878.788 486.554 876.524 491.128 878.303Z" fill="url(#paint5_linear_3352_392)" stroke="#054AEA" stroke-width="8" stroke-linecap="round"/>
<ellipse cx="10.8289" cy="6.89114" rx="10.8289" ry="6.89114" transform="matrix(-1 0 0 1 323.034 1021.14)" fill="#F3FFC6"/>
<ellipse cx="10.8289" cy="6.89114" rx="10.8289" ry="6.89114" transform="matrix(-1 0 0 1 354.536 1019.17)" fill="#F3FFC6"/>
<ellipse cx="5.90669" cy="3.93779" rx="5.90669" ry="3.93779" transform="matrix(-1 0 0 1 344.692 1048.7)" fill="#F3FFC6"/>
<ellipse cx="5.90669" cy="3.93779" rx="5.90669" ry="3.93779" transform="matrix(-1 0 0 1 405.727 1009.33)" fill="#F3FFC6"/>
<ellipse cx="12.7978" cy="7.87559" rx="12.7978" ry="7.87559" transform="matrix(-1 0 0 1 409.665 1028.03)" fill="#F3FFC6"/>
<ellipse cx="5.90669" cy="3.93779" rx="5.90669" ry="3.93779" transform="matrix(-1 0 0 1 378.163 1017.2)" fill="#F3FFC6"/>
<circle cx="855.481" cy="683.397" r="43.1767" fill="#FAFAFA" stroke="#054AEA" stroke-width="8" stroke-linecap="round"/>
<circle cx="982.495" cy="683.397" r="43.1767" fill="#FAFAFA" stroke="#054AEA" stroke-width="8" stroke-linecap="round"/>
<circle cx="853.666" cy="681.583" r="15.9594" fill="black" stroke="#054AEA" stroke-width="8" stroke-linecap="round"/>
<circle cx="980.68" cy="681.583" r="15.9594" fill="black" stroke="#054AEA" stroke-width="8" stroke-linecap="round"/>
<path d="M921.751 752.386V767.152C943.409 757.308 966.052 795.701 916.829 795.701C932.58 795.701 945.378 817.359 918.798 817.359" stroke="#1A4CFF" stroke-width="8" stroke-linecap="round"/>
<defs>
<linearGradient id="paint0_linear_3352_392" x1="615.588" y1="250.317" x2="615.588" y2="348.762" gradientUnits="userSpaceOnUse">
<stop stop-color="#88A2FF"/>
<stop offset="1" stop-color="#314799"/>
</linearGradient>
<linearGradient id="paint1_linear_3352_392" x1="1002.48" y1="260.16" x2="1002.48" y2="358.605" gradientUnits="userSpaceOnUse">
<stop stop-color="#88A2FF"/>
<stop offset="1" stop-color="#314799"/>
</linearGradient>
<linearGradient id="paint2_linear_3352_392" x1="800.664" y1="207" x2="800.664" y2="285.756" gradientUnits="userSpaceOnUse">
<stop stop-color="#88A2FF"/>
<stop offset="1" stop-color="#314799"/>
</linearGradient>
<linearGradient id="paint3_linear_3352_392" x1="393.536" y1="961.272" x2="391.772" y2="1006.84" gradientUnits="userSpaceOnUse">
<stop offset="0.245192" stop-color="#E3FC87"/>
<stop offset="1" stop-color="#88A2FF"/>
</linearGradient>
<linearGradient id="paint4_linear_3352_392" x1="328.754" y1="969.745" x2="315.663" y2="1013.42" gradientUnits="userSpaceOnUse">
<stop offset="0.245192" stop-color="#E3FC87"/>
<stop offset="1" stop-color="#88A2FF"/>
</linearGradient>
<linearGradient id="paint5_linear_3352_392" x1="463.18" y1="877.829" x2="463.18" y2="973.867" gradientUnits="userSpaceOnUse">
<stop offset="0.245192" stop-color="#E3FC87"/>
<stop offset="1" stop-color="#88A2FF"/>
</linearGradient>
</defs>
</svg>
