<svg width="1479" height="1436" viewBox="0 0 1479 1436" fill="none" xmlns="http://www.w3.org/2000/svg">
<path d="M739.145 257.797C857.293 257.797 952.133 337.963 952.133 435.793C952.133 533.622 857.293 613.788 739.145 613.788C620.996 613.788 526.156 533.622 526.156 435.793C526.156 337.963 620.996 257.797 739.145 257.797Z" fill="#E1F0FF" stroke="#054AEA" stroke-width="6" stroke-linecap="round"/>
<path d="M761.455 238.773C751.03 243.205 740.209 241.506 733.324 239.07C730.708 238.144 729.818 235.081 731.167 232.657L747.11 204.016C749.293 200.094 755.136 200.812 756.306 205.145L763.911 233.325C764.504 235.522 763.549 237.882 761.455 238.773Z" fill="url(#paint0_linear_3362_610)" stroke="#054AEA" stroke-width="6" stroke-linecap="round"/>
<path d="M1051.76 544.39C1062.42 575.762 1062.01 650.574 975.136 698.839C960.657 708.09 941.351 732.022 979.963 753.741C960.735 748.044 931.294 729.928 948.903 699.726C954.071 690.861 962.88 684.949 971.228 678.982C994.063 662.662 1025.25 632.569 1030.04 597.482" stroke="#054AEA" stroke-width="6" stroke-linecap="round"/>
<path d="M718.782 372.07C668.819 356.858 687.301 289.673 702.788 257.981C683.9 271.368 667.499 327.956 661.66 354.577C654.348 378.307 557.833 407.998 526.607 418.9C518.763 499.745 572.459 561.283 628.568 588.432C646.085 596.038 673.816 611.053 728.719 614.978L702.788 1029.22C580.929 1048.7 507.305 989.673 485.726 957.728C465.01 1006.41 424.288 990.687 406.517 976.743C488.163 991.955 457.292 915.641 431.651 875.583C398.749 900.531 435.205 940.741 457.546 957.728C342.998 909.05 415.403 842.117 465.924 814.736C499.258 792.681 502.672 768.422 497.115 750.665C492.622 736.31 478.256 728.595 464.681 722.117C415.646 698.717 400.248 671.455 398.901 659.575C370.264 628.542 373.987 553.248 411.306 476.428C465.924 74.0735 751.243 172.19 798.209 195.008C1008.96 153.176 1070.87 388.043 1050.85 543.204C1148.34 667.333 1072.17 740.958 1021.91 762.255C962.871 779.387 990.296 816.48 1022.08 841.395C1034.29 850.961 1045.71 862.82 1047.47 878.229C1053.77 933.538 1001.9 966.446 971.639 976.743C1008.81 947.536 1012.01 915.895 1008.96 903.726C923.657 1027.85 792.151 1039.11 737.06 1029.22L740.182 614.978C828.266 610.755 862.655 582.399 893.425 560.076C941.087 514.828 954.963 470.785 952.55 435.189C936.427 421.389 880.307 396.547 864.33 360.905C868.249 372.778 873.745 394.369 876.437 405.536C858.64 401.673 843.781 394.583 831.428 385.4C813.43 376.29 789.686 349.411 778.949 335.562C777.731 354.424 787.581 370.296 792.659 375.873C728.073 367.355 714.973 315.533 716.497 290.687C695.781 325.978 709.388 359.647 718.782 372.07Z" fill="#ADBFFF"/>
<path d="M702.788 257.981C687.301 289.673 668.819 356.858 718.782 372.07C709.388 359.647 695.781 325.978 716.497 290.687C714.973 315.533 728.073 367.355 792.659 375.873C787.581 370.296 777.731 354.425 778.949 335.562C791.135 351.281 820.077 383.783 838.356 388.043C815.253 357.365 770.267 287.644 775.141 254.178C773.872 297.025 792.354 387.282 876.437 405.536C873.136 391.846 865.622 362.487 861.966 354.577C873.644 393.62 935.49 420.586 952.55 435.189C954.963 470.785 941.087 514.828 893.425 560.076C862.655 582.399 828.266 610.755 740.182 614.978L737.06 1029.22C792.151 1039.11 923.657 1027.85 1008.96 903.726C1012.01 915.895 1008.81 947.536 971.639 976.743C1001.9 966.446 1053.77 933.538 1047.47 878.229C1045.71 862.82 1034.29 850.961 1022.08 841.395C990.296 816.48 962.871 779.387 1021.91 762.255C1072.17 740.958 1148.34 667.333 1050.85 543.204C1070.87 388.043 1008.96 153.176 798.209 195.008C751.243 172.19 465.924 74.0735 411.306 476.428C373.987 553.248 370.264 628.542 398.901 659.575C400.248 671.455 415.646 698.717 464.681 722.117C478.256 728.595 492.622 736.31 497.115 750.665C502.672 768.422 499.258 792.681 465.924 814.736C415.403 842.117 342.998 909.05 457.546 957.728C435.205 940.741 398.749 900.531 431.651 875.583C457.292 915.641 488.163 991.955 406.517 976.743C424.288 990.687 465.01 1006.41 485.726 957.728C507.305 989.673 580.929 1048.7 702.788 1029.22L728.719 614.978C673.816 611.053 646.085 596.038 628.568 588.432C572.459 561.283 518.763 499.745 526.607 418.9C557.833 407.998 654.348 378.307 661.66 354.577C667.499 327.956 683.9 271.368 702.788 257.981Z" stroke="#054AEA" stroke-width="6" stroke-linecap="round"/>
<path d="M566.297 336.615C589.828 349.607 641.127 290.712 621.21 273.532C621.107 273.443 620.996 273.367 620.877 273.303C595.487 259.604 545.546 221.124 547.529 175.949C549.05 141.277 538.047 122.863 528.347 114.738C526.689 113.349 524.898 115.605 525.851 117.547C530.395 126.807 530.169 138.667 529.178 144.763C529.158 144.886 529.129 144.996 529.086 145.113C522.951 161.798 512.681 203.63 520.207 238.945C527.708 274.147 553.478 318.09 565.668 336.038C565.832 336.28 566.042 336.474 566.297 336.615Z" fill="url(#paint1_linear_3362_610)" stroke="#054AEA" stroke-width="6" stroke-linecap="round"/>
<path d="M895.519 336.615C871.989 349.607 820.69 290.712 840.607 273.532C840.709 273.443 840.82 273.367 840.94 273.303C866.33 259.604 916.27 221.124 914.288 175.949C912.766 141.277 923.77 122.863 933.47 114.738C935.128 113.349 936.918 115.605 935.965 117.547C931.421 126.807 931.647 138.667 932.638 144.763C932.658 144.886 932.687 144.996 932.731 145.113C938.865 161.798 949.135 203.63 941.61 238.945C934.109 274.147 908.339 318.09 896.149 336.038C895.985 336.28 895.775 336.474 895.519 336.615Z" fill="url(#paint2_linear_3362_610)" stroke="#054AEA" stroke-width="6" stroke-linecap="round"/>
<path d="M475.324 605.928C420.784 567.316 452.599 490.493 475.324 456.908L535.053 514.224C567.391 581.313 623.339 606.531 647.27 610.755C622.655 603.997 614.088 592.253 611.675 584.812L609.261 577.572C624.948 587.225 655.958 603.997 707.602 613.168L741.991 691.599C781.811 693.61 862.535 696.426 866.879 691.599C847.572 648.643 880.956 625.435 900.061 619.201C981.147 601.343 1006.85 558.266 1017.11 528.1C1011.68 563.696 998.402 591.448 963.41 611.358C870.74 659.141 898.05 726.391 918.764 756.758C1009.99 850.393 938.271 926.492 891.011 952.837C779.518 1007.86 638.623 975.763 582.112 952.837C486.955 897.258 508.846 818.969 539.882 774.121L539.927 774.056C548.252 762.026 556.879 749.561 558.29 735.002C564.422 671.738 507.703 623.474 475.324 605.928Z" fill="#88A2FF" stroke="#054AEA" stroke-width="6" stroke-linecap="round"/>
<path d="M412.579 549.819C401.92 581.192 402.323 656.004 489.201 704.269C503.68 713.52 522.986 737.452 484.374 759.171C503.602 753.474 533.043 735.357 515.434 705.156C510.266 696.291 501.457 690.379 493.108 684.412C470.274 668.091 439.083 637.999 434.298 602.911" stroke="#054AEA" stroke-width="6" stroke-linecap="round"/>
<path d="M568.469 640.921C582.748 670.685 601.531 742.641 562.436 792.354C523.341 842.068 560.224 895.119 583.552 915.431C570.883 896.125 554.834 847.859 591.999 809.247C629.163 770.635 628.399 725.587 623.372 707.889" stroke="#054AEA" stroke-width="6" stroke-linecap="round"/>
<path d="M895.906 640.921C881.627 670.685 862.844 742.641 901.939 792.354C941.034 842.068 904.151 895.119 880.823 915.431C893.492 896.125 909.541 847.859 872.376 809.247C835.212 770.635 835.976 725.587 841.003 707.889" stroke="#054AEA" stroke-width="6" stroke-linecap="round"/>
<path d="M997.362 433.038C991.088 411.801 969.04 428.753 960.393 437.602C959.186 481.644 947.432 502.734 942.293 508.794C940.362 517.481 958.147 512.676 965.99 507.246C1003.15 483.596 1002.39 447.92 997.362 433.038Z" fill="#E1F0FF" stroke="#054AEA" stroke-width="6" stroke-linecap="round"/>
<path d="M479.014 432.77C485.288 411.533 507.336 428.485 515.983 437.333C517.19 481.376 528.944 502.466 534.083 508.525C536.014 517.213 518.229 512.408 510.386 506.978C473.222 483.328 473.986 447.651 479.014 432.77Z" fill="#E1F0FF" stroke="#054AEA" stroke-width="6" stroke-linecap="round"/>
<path d="M1021.93 443.032C1030.18 477.623 1030.02 556.094 963.409 593.259C954.561 597.281 930.951 605.204 907.301 604.722C915.345 604.521 936.381 599.413 956.17 580.589C947.12 583.606 926.848 589.518 918.161 589.035C945.511 583.405 1000.21 550.544 1000.21 464.148" stroke="#054AEA" stroke-width="6" stroke-linecap="round"/>
<path d="M739.05 1001.97C734.297 900.669 678.277 893.976 649.887 903.481C649.217 903.705 648.623 904.076 648.121 904.575C612.462 940.082 618.621 1023.7 628.426 1073.52C630.531 1084.21 629.742 1095.31 625.466 1105.34L606.662 1149.43C600.056 1164.91 597.376 1181.83 600.18 1198.43C607.565 1242.16 622.161 1303.13 623.741 1313.43C625.664 1325.97 623.741 1338.86 608.055 1348.61L607.287 1349.09C586.642 1361.92 583.644 1363.79 589.678 1381.61C590.226 1383.22 591.6 1384.45 593.268 1384.82C640.979 1395.43 675.649 1391.97 691.392 1387.35C691.679 1387.27 691.962 1387.15 692.227 1387.01C715.528 1374.72 687.63 1354.33 681.056 1346.2C675.767 1339.66 675.38 1320.45 681.056 1309.4C716.059 1215.85 724.32 1160.34 721.634 1128.46C720.489 1114.87 721.081 1100.77 725.797 1087.98C739.506 1050.78 740.585 1016.28 739.05 1001.97Z" fill="#E1F0FF" stroke="#054AEA" stroke-width="6" stroke-linecap="round"/>
<path d="M740.107 1001.97C744.859 900.669 800.88 893.976 829.269 903.481C829.94 903.705 830.533 904.076 831.035 904.575C866.695 940.082 860.536 1023.7 850.73 1073.52C848.626 1084.21 849.414 1095.31 853.69 1105.34L872.494 1149.43C879.1 1164.91 881.78 1181.83 878.977 1198.43C871.591 1242.16 856.995 1303.13 855.415 1313.43C853.492 1325.97 855.415 1338.86 871.102 1348.61L871.869 1349.09C892.515 1361.92 895.512 1363.79 889.478 1381.61C888.931 1383.22 887.556 1384.45 885.889 1384.82C838.177 1395.43 803.507 1391.97 787.764 1387.35C787.478 1387.27 787.194 1387.15 786.93 1387.01C763.629 1374.72 791.527 1354.33 798.1 1346.2C803.39 1339.66 803.776 1320.45 798.1 1309.4C763.097 1215.85 754.837 1160.34 757.522 1128.46C758.667 1114.87 758.075 1100.77 753.359 1087.98C739.65 1050.78 738.571 1016.28 740.107 1001.97Z" fill="#E1F0FF" stroke="#054AEA" stroke-width="6" stroke-linecap="round"/>
<path d="M581.891 830.228C611.958 640.978 636.017 653.093 652.87 655.401C667.551 657.412 690.397 673.742 664.333 718.146C638.623 761.948 617.845 821.484 612.074 844.517C611.916 845.148 611.899 845.784 611.984 846.429C618.116 893.118 555.302 934.046 532.996 976.052C532.471 977.04 531.613 977.789 530.804 978.562C524.771 984.324 522.083 1007.29 521.407 1019.81C521.364 1020.6 521.15 1021.37 520.719 1022.04C518.863 1024.9 515.47 1028.76 512.9 1027.04C510.097 1025.18 511.591 1014.48 512.784 1008.88C512.86 1008.52 512.904 1008.14 512.888 1007.78C512.234 993.383 486.333 1001.68 472.613 1008C472.118 1008.23 471.581 1008.38 471.039 1008.44C442.671 1011.56 432.021 1006.97 429.143 1002.31C427.819 1000.17 430.307 998.356 432.821 998.173C452.187 996.759 491.81 974.942 511.625 962.679C512.468 962.158 513.124 961.387 513.531 960.484C548.232 883.387 572.291 843.951 580.873 832.609C581.394 831.921 581.756 831.081 581.891 830.228Z" fill="#E1F0FF" stroke="#054AEA" stroke-width="6" stroke-linecap="round"/>
<path d="M896.641 836.051C866.574 646.801 842.515 658.916 825.662 661.224C810.981 663.235 788.135 679.564 814.199 723.968C839.909 767.77 860.687 827.306 866.458 850.339C866.616 850.97 866.633 851.606 866.548 852.252C860.417 898.941 923.23 939.868 945.536 981.874C946.061 982.862 946.919 983.611 947.728 984.384C953.761 990.147 956.449 1013.11 957.125 1025.63C957.168 1026.42 957.382 1027.2 957.813 1027.86C959.669 1030.72 963.062 1034.58 965.632 1032.87C968.436 1031 966.941 1020.31 965.748 1014.7C965.672 1014.34 965.628 1013.96 965.644 1013.6C966.298 999.205 992.199 1007.5 1005.92 1013.82C1006.41 1014.05 1006.95 1014.2 1007.49 1014.26C1035.86 1017.38 1046.51 1012.79 1049.39 1008.13C1050.71 1005.99 1048.23 1004.18 1045.71 1004C1026.34 1002.58 986.722 980.765 966.907 968.502C966.064 967.98 965.408 967.209 965.001 966.306C930.301 889.209 906.241 849.773 897.659 838.432C897.138 837.743 896.776 836.904 896.641 836.051Z" fill="#E1F0FF" stroke="#054AEA" stroke-width="6" stroke-linecap="round"/>
<path d="M749.607 973.999C742.606 978.286 731.879 975.785 727.391 973.999L637.002 926.381C634.902 925.275 633.869 922.845 634.53 920.565L661.771 826.6C661.98 825.879 662.024 825.119 661.9 824.379L634.311 660.251C633.821 657.332 635.959 654.628 638.913 654.433L703.156 650.191C705.8 650.016 707.849 647.808 707.826 645.158L707.544 613.168C715.834 614.978 740.785 616.185 771.15 613.168V645.56C771.15 648.041 772.969 650.147 775.424 650.507L840.817 660.104C843.549 660.505 845.439 663.044 845.038 665.776L821.782 824.541C821.689 825.177 821.719 825.825 821.872 826.45L844.83 920.655C845.377 922.899 844.316 925.226 842.262 926.284L749.607 973.999Z" fill="#E1F0FF" stroke="#054AEA" stroke-width="6" stroke-linecap="round"/>
<path d="M688.295 526.504C671.302 524.874 669.347 517.107 670.178 509.297C718.461 508.19 781.928 510.098 807.752 509.297C808.905 513.993 804.659 520.682 797.496 523.071C789.653 525.687 783.016 523.071 780 518.447C780.356 529.584 768.523 537.647 763.47 537.974C746.148 539.964 740.354 530.644 739.236 523.81C739.288 534.244 731.064 537.874 726.59 538.37C706.067 539.027 701.459 526.33 701.659 518.386C700.424 526.133 691.87 526.139 688.295 526.504Z" fill="white"/>
<path d="M670.178 509.297L670.109 506.298L667.473 506.358L667.195 508.98L670.178 509.297ZM688.295 526.504L688.009 529.491L688.305 529.519L688.6 529.489L688.295 526.504ZM701.809 516.469L704.809 516.483C704.816 514.901 703.594 513.585 702.016 513.476C700.438 513.366 699.046 514.501 698.836 516.069L701.809 516.469ZM726.59 538.37L726.686 541.369L726.804 541.365L726.921 541.352L726.59 538.37ZM739.026 520.925L741.999 520.521C741.788 518.971 740.422 517.843 738.86 517.93C737.299 518.016 736.066 519.288 736.027 520.852L739.026 520.925ZM763.47 537.974L763.276 534.981L763.201 534.986L763.127 534.994L763.47 537.974ZM780 518.447L782.512 516.808C781.777 515.681 780.382 515.181 779.099 515.585C777.816 515.989 776.958 517.198 777.001 518.543L780 518.447ZM797.496 523.071L796.547 520.225V520.225L797.496 523.071ZM807.752 509.297L810.666 508.582L810.087 506.223L807.66 506.299L807.752 509.297ZM670.178 509.297L667.195 508.98C666.751 513.148 666.954 518.041 670.214 522.097C673.46 526.136 679.166 528.642 688.009 529.491L688.295 526.504L688.582 523.518C680.43 522.736 676.663 520.543 674.891 518.339C673.133 516.151 672.774 513.256 673.161 509.615L670.178 509.297ZM688.295 526.504L688.6 529.489C690.093 529.336 693.692 529.214 696.897 528.026C700.339 526.75 703.787 524.095 704.622 518.859L701.659 518.386L698.697 517.914C698.297 520.424 696.85 521.645 694.812 522.4C692.538 523.243 690.073 523.307 687.99 523.52L688.295 526.504ZM701.659 518.386L704.622 518.859C704.742 518.103 704.805 517.311 704.809 516.483L701.809 516.469L698.809 516.454C698.806 517 698.765 517.484 698.697 517.914L701.659 518.386ZM701.809 516.469L698.836 516.069C698.74 516.777 698.68 517.528 698.66 518.311L701.659 518.386L704.658 518.462C704.673 517.889 704.717 517.355 704.782 516.868L701.809 516.469ZM701.659 518.386L698.66 518.311C698.546 522.826 699.786 528.811 704.127 533.615C708.548 538.505 715.769 541.718 726.686 541.369L726.59 538.37L726.494 535.372C716.888 535.679 711.543 532.872 708.579 529.592C705.536 526.225 704.572 521.89 704.658 518.462L701.659 518.386ZM726.59 538.37L726.921 541.352C729.657 541.049 733.436 539.82 736.581 537.078C739.828 534.249 742.267 529.911 742.236 523.795L739.236 523.81L736.236 523.825C736.258 528.143 734.61 530.837 732.639 532.555C730.567 534.362 727.997 535.196 726.26 535.389L726.59 538.37ZM739.236 523.81L742.236 523.795C742.231 522.748 742.154 521.657 741.999 520.521L739.026 520.925L736.054 521.33C736.175 522.223 736.233 523.053 736.236 523.825L739.236 523.81ZM739.026 520.925L736.027 520.852C736.001 521.917 736.077 523.081 736.276 524.294L739.236 523.81L742.197 523.326C742.057 522.47 742.009 521.679 742.026 520.998L739.026 520.925ZM739.236 523.81L736.276 524.294C736.927 528.273 738.951 533.062 743.428 536.564C747.947 540.098 754.572 542.016 763.812 540.955L763.47 537.974L763.127 534.994C755.046 535.922 750.113 534.175 747.125 531.838C744.096 529.469 742.664 526.18 742.197 523.326L739.236 523.81ZM763.47 537.974L763.664 540.968C765.531 540.847 767.654 540.07 769.655 538.993C771.714 537.886 773.882 536.334 775.855 534.415C779.764 530.613 783.213 525.048 782.998 518.351L780 518.447L777.001 518.543C777.143 522.982 774.854 527.019 771.671 530.114C770.099 531.644 768.383 532.865 766.813 533.709C765.186 534.584 763.935 534.938 763.276 534.981L763.47 537.974ZM780 518.447L777.487 520.086C781.367 526.033 789.525 528.892 798.445 525.917L797.496 523.071L796.547 520.225C789.781 522.481 784.666 520.109 782.512 516.808L780 518.447ZM797.496 523.071L798.445 525.917C802.646 524.516 806.018 521.85 808.19 518.784C810.318 515.781 811.516 512.047 810.666 508.582L807.752 509.297L804.839 510.012C805.141 511.243 804.793 513.201 803.295 515.314C801.842 517.364 799.51 519.237 796.547 520.225L797.496 523.071ZM807.752 509.297L807.66 506.299C794.826 506.696 772.591 506.421 747.416 506.182C722.29 505.944 694.306 505.743 670.109 506.298L670.178 509.297L670.247 512.296C694.333 511.744 722.224 511.944 747.359 512.182C772.444 512.42 794.855 512.698 807.845 512.296L807.752 509.297Z" fill="#054AEA"/>
<path d="M626.977 475.611C634.314 477.913 648.758 488.962 647.831 514.744C646.905 540.525 627.363 549.272 617.708 550.423" stroke="#054AEA" stroke-width="6" stroke-linecap="round"/>
<path d="M857.007 471.991C849.669 474.293 835.225 485.342 836.152 511.123C837.079 536.905 856.62 545.652 866.275 546.803" stroke="#054AEA" stroke-width="6" stroke-linecap="round"/>
<circle cx="608.658" cy="511.207" r="31.9759" fill="#FCDDEC"/>
<circle cx="696.742" cy="462.942" r="31.9759" fill="#C0E0FF"/>
<circle cx="31.9759" cy="31.9759" r="31.9759" transform="matrix(-1 0 0 1 811.977 430.966)" fill="#C0E0FF"/>
<circle cx="877.739" cy="507.587" r="31.9759" fill="#FCDDEC"/>
<circle cx="699.568" cy="457.465" r="25.9122" fill="#FAFAFA" stroke="#054AEA" stroke-width="6" stroke-linecap="round"/>
<circle cx="698.456" cy="456.353" r="9.23211" fill="black" stroke="#054AEA" stroke-width="6" stroke-linecap="round"/>
<path d="M681.039 436.829L673.036 424.933" stroke="#054AEA" stroke-width="6" stroke-linecap="round"/>
<path d="M677.168 440.771L665.479 432.652" stroke="#054AEA" stroke-width="6" stroke-linecap="round"/>
<path d="M673.185 446.04L659.94 440.986" stroke="#054AEA" stroke-width="6" stroke-linecap="round"/>
<circle cx="28.9122" cy="28.9122" r="25.9122" transform="matrix(-1 0 0 1 806.088 428.553)" fill="#FAFAFA" stroke="#054AEA" stroke-width="6" stroke-linecap="round"/>
<circle cx="12.2321" cy="12.2321" r="9.23211" transform="matrix(-1 0 0 1 790.52 444.121)" fill="black" stroke="#054AEA" stroke-width="6" stroke-linecap="round"/>
<path d="M795.705 436.829L803.707 424.933" stroke="#054AEA" stroke-width="6" stroke-linecap="round"/>
<path d="M799.575 440.771L811.265 432.652" stroke="#054AEA" stroke-width="6" stroke-linecap="round"/>
<path d="M803.558 446.04L816.803 440.986" stroke="#054AEA" stroke-width="6" stroke-linecap="round"/>
<path d="M843.953 913.018C773.485 928.945 676.632 919.654 637.014 913.018C626.396 938.116 621.328 968.523 620.121 980.589C644.254 989.76 709.01 994.868 738.372 996.276V980.589L740.182 996.276C785.551 995.31 837.517 981.796 857.829 975.159C856.381 952.957 847.975 924.481 843.953 913.018Z" fill="#5D5FEF" stroke="#1A4CFF" stroke-width="6" stroke-linecap="round"/>
<path d="M739.578 634.284C699.518 634.284 701.971 629.86 708.205 627.648V625.234C705.591 625.234 700 626.441 698.552 631.268V649.367L639.427 650.574L655.113 793.56L662.353 825.536L619.748 905.14C617.793 908.794 618.294 913.276 621.008 916.408L631.417 928.419C631.893 928.967 632.034 929.73 631.785 930.412L627.361 942.58C665.37 961.082 763.228 986.985 850.589 942.58L844.953 926.237C844.709 925.529 844.881 924.744 845.399 924.203L853.374 915.865C856.087 913.029 856.89 908.869 855.428 905.227L823.439 825.536L838.522 654.797L781.81 646.954V633.4C781.81 631.98 781.757 630.487 780.864 629.384C779.774 628.038 777.629 626.469 773.794 625.478C773.112 625.302 772.406 625.234 771.701 625.234H770.951V628.854L771.047 628.868C773.865 629.27 779.994 630.145 778.002 632.066C776.753 633.27 768.607 634.284 739.578 634.284Z" fill="#F3FFC6" stroke="#054AEA" stroke-width="6" stroke-linecap="round"/>
<path d="M580.537 809.247C594.534 688.101 624.177 652.987 637.249 650.574C651.326 651.982 677.913 691.238 659.572 783.908L640.869 850.273L628.199 936.548L611.306 966.714L552.181 976.367L546.148 986.02C545.947 986.666 544.7 988.186 541.321 989.091C537.943 989.997 532.271 987.421 529.858 986.02L531.065 982.4C535.087 984.009 539.753 984.934 538.305 978.177C536.857 971.419 519.401 965.105 509.345 962.49L514.172 955.854C509.345 948.614 500.899 930.876 505.725 917.845C510.552 904.813 557.611 840.016 580.537 809.247Z" fill="#F3FFC6"/>
<path d="M593.575 949.217L548.93 975.763L610.468 965.506L626.758 935.944L639.428 850.876L660.544 778.477L664.767 739.865V706.079L657.527 700.046L655.114 701.856L656.321 714.526V747.105L631.584 843.033L593.575 949.217Z" fill="#D5FB4C"/>
<path d="M849.383 928.101C776.502 962.369 675.024 945.195 633.395 932.324L630.378 941.374C641.037 946.401 669.111 957.301 696.14 960.68C759.488 966.11 820.222 942.982 849.383 928.101Z" fill="#D5FB4C"/>
<path d="M672.61 829.76L661.75 786.321L657.527 801.404L663.56 828.554L640.03 871.993L631.584 929.308L632.187 932.928L642.444 936.548L672.61 829.76Z" fill="#D5FB4C"/>
<path d="M654.51 667.466C646.788 649.608 637.617 649.97 633.997 652.383C599.729 678.447 584.883 767.014 581.743 808.039C558.817 838.809 511.758 903.605 506.931 916.637C502.105 929.669 510.551 947.406 515.378 954.646L510.551 961.283C520.607 963.897 538.063 970.212 539.511 976.969C540.959 983.726 536.293 982.801 532.271 981.192L531.064 984.812C533.477 986.213 539.149 988.789 542.527 987.884C545.906 986.978 547.153 985.459 547.354 984.812L553.387 975.159L612.512 965.506L629.405 935.34L642.075 849.065L660.778 782.7C664.722 761.182 670.8 715.249 663.56 703.665C656.32 692.081 656.521 703.665 657.527 710.905C658.532 714.525 659.94 727.074 657.527 748.311" stroke="#054AEA" stroke-width="6" stroke-linecap="round"/>
<path d="M895.96 811.171C881.963 691.32 852.32 656.582 839.248 654.194C825.171 655.587 798.584 694.423 816.925 786.103L835.628 851.759L848.298 937.111L865.191 966.955L924.316 976.505L930.349 986.055C930.55 986.694 931.797 988.198 935.176 989.093C938.555 989.989 944.226 987.441 946.639 986.055L945.432 982.474C941.41 984.065 936.745 984.98 938.193 978.295C939.64 971.61 957.097 965.363 967.152 962.777L962.325 956.211C967.152 949.049 975.598 931.501 970.772 918.608C965.945 905.716 918.886 841.612 895.96 811.171Z" fill="#F3FFC6"/>
<path d="M821.987 670.906C829.709 653.239 838.88 653.597 842.5 655.985C876.768 681.769 891.615 769.39 894.754 809.977C917.68 840.418 964.739 904.522 969.566 917.414C974.392 930.307 965.946 947.855 961.119 955.017L965.946 961.583C955.89 964.169 938.434 970.416 936.986 977.101C935.538 983.786 940.204 982.871 944.226 981.279L945.433 984.861C943.02 986.247 937.348 988.795 933.97 987.899C930.591 987.004 929.344 985.5 929.143 984.861L923.11 975.311L863.985 965.761L847.092 935.917L834.422 850.565L815.719 784.909C811.775 763.62 805.697 718.178 812.937 706.719C820.177 695.259 819.976 706.719 818.97 713.881C817.965 717.462 816.557 729.877 818.97 750.887" stroke="#054AEA" stroke-width="6" stroke-linecap="round"/>
<path d="M864.175 1270.18C878.654 1268.73 872.621 1263.14 867.794 1260.53L868.398 1255.1C879.981 1258.48 880.866 1265.36 879.861 1268.37L864.845 1322.08C864.4 1323.67 864.175 1325.32 864.175 1326.97C864.175 1332.63 866.81 1337.96 871.302 1341.39L893.495 1358.37C900.456 1363.69 903.141 1372.92 900.119 1381.15L898.104 1386.64C895.758 1393.02 890.334 1397.83 883.641 1399.04C846.342 1405.8 809.851 1404.6 786.895 1401.62C778.542 1400.53 772.338 1393.73 771.235 1385.38L770.008 1376.08C769.27 1370.5 770.921 1364.86 774.555 1360.56L787.611 1345.1C790.319 1341.89 791.949 1337.92 792.271 1333.73L792.605 1329.39C792.853 1326.17 792.315 1322.93 791.037 1319.96L768.85 1268.37C766.919 1260.65 774.423 1256.71 778.417 1255.7L779.71 1260.53C770.057 1266.32 778.503 1269.38 783.933 1270.18C804.647 1270.79 849.695 1271.63 864.175 1270.18Z" fill="#001970" stroke="#054AEA" stroke-width="6" stroke-linecap="round"/>
<path d="M899.771 1382.4C879.258 1390.24 824.718 1401.83 770.66 1385.42" stroke="#054AEA" stroke-width="6" stroke-linecap="round"/>
<path d="M864.777 1349.82C855.804 1342.54 829.728 1332.34 797.206 1349.82" stroke="#054AEA" stroke-width="6" stroke-linecap="round"/>
<path d="M614.691 1269.58C600.211 1268.13 606.244 1262.54 611.071 1259.93L610.468 1254.5C598.884 1257.87 597.999 1264.75 599.004 1267.77L614.02 1321.48C614.465 1323.07 614.691 1324.72 614.691 1326.37C614.691 1332.02 612.056 1337.36 607.563 1340.79L585.371 1357.76C578.41 1363.09 575.725 1372.32 578.746 1380.55L580.762 1386.03C583.107 1392.42 588.531 1397.22 595.224 1398.44C632.523 1405.2 669.014 1403.99 691.97 1401.01C700.323 1399.93 706.527 1393.13 707.63 1384.77L708.857 1375.48C709.595 1369.9 707.944 1364.26 704.31 1359.96L691.254 1344.5C688.546 1341.29 686.916 1337.31 686.594 1333.13L686.26 1328.79C686.012 1325.56 686.55 1322.33 687.829 1319.35L710.015 1267.77C711.946 1260.05 704.442 1256.1 700.449 1255.1L699.155 1259.93C708.809 1265.72 700.362 1268.77 694.932 1269.58C674.218 1270.18 629.17 1271.03 614.691 1269.58Z" fill="#001970" stroke="#054AEA" stroke-width="6" stroke-linecap="round"/>
<path d="M579.096 1381.8C599.609 1389.64 654.149 1401.22 708.206 1384.81" stroke="#054AEA" stroke-width="6" stroke-linecap="round"/>
<path d="M614.088 1349.22C623.061 1341.93 649.137 1331.73 681.66 1349.22" stroke="#054AEA" stroke-width="6" stroke-linecap="round"/>
<path d="M709.412 1221.31C682.383 1226.62 627.964 1221.51 603.831 1218.3L614.087 1268.98C620.322 1269.98 645.098 1271.51 694.329 1269.58L709.412 1221.31Z" fill="white" stroke="#054AEA" stroke-width="6" stroke-linecap="round"/>
<path d="M618.312 1228.45L621.931 1257.41M606.245 1226.14C610.077 1227.14 617.535 1228.55 627.965 1229.7M677.437 1231.57C670.846 1231.74 664.598 1231.75 658.734 1231.63M627.965 1229.7L630.378 1258.72M627.965 1229.7C636.394 1230.63 646.766 1231.39 658.734 1231.63M658.734 1231.63V1258.72" stroke="#054AEA" stroke-width="6" stroke-linecap="round"/>
<path d="M769.744 1221.92C796.773 1227.23 851.192 1222.12 875.325 1218.9L865.069 1269.58C858.834 1270.58 834.058 1272.11 784.827 1270.18L769.744 1221.92Z" fill="white" stroke="#054AEA" stroke-width="6" stroke-linecap="round"/>
<path d="M860.846 1229.06L857.226 1258.02M872.912 1226.74C869.08 1227.75 861.623 1229.16 851.193 1230.31M801.72 1232.17C808.311 1232.35 814.559 1232.35 820.423 1232.24M851.193 1230.31L848.779 1259.32M851.193 1230.31C842.763 1231.24 832.391 1232 820.423 1232.24M820.423 1232.24V1259.32" stroke="#054AEA" stroke-width="6" stroke-linecap="round"/>
<ellipse cx="678.04" cy="1109.1" rx="37.4058" ry="33.7859" fill="url(#paint3_radial_3362_610)"/>
<path d="M661.146 1120.56C667.381 1127.8 682.745 1137.94 694.329 1120.56" stroke="#A4D2FF" stroke-width="6" stroke-linecap="round"/>
<path d="M655.113 1100.65C658.268 1107.19 663.63 1121.9 659.845 1128.4" stroke="#054AEA" stroke-width="6" stroke-linecap="round"/>
<path d="M699.759 1100.65C696.605 1107.19 691.242 1121.9 695.027 1128.4" stroke="#054AEA" stroke-width="6" stroke-linecap="round"/>
<ellipse cx="37.4058" cy="33.7859" rx="37.4058" ry="33.7859" transform="matrix(-1 0 0 1 837.316 1075.31)" fill="url(#paint4_radial_3362_610)"/>
<path d="M816.803 1120.56C810.568 1127.8 795.204 1137.94 783.62 1120.56" stroke="#A4D2FF" stroke-width="6" stroke-linecap="round"/>
<path d="M822.836 1100.65C819.682 1107.19 814.32 1121.9 818.105 1128.4" stroke="#054AEA" stroke-width="6" stroke-linecap="round"/>
<path d="M778.19 1100.65C781.345 1107.19 786.707 1121.9 782.922 1128.4" stroke="#054AEA" stroke-width="6" stroke-linecap="round"/>
<path d="M649 509C701.667 509 812.8 509 836 509" stroke="#054AEA" stroke-width="6"/>
<defs>
<linearGradient id="paint0_linear_3362_610" x1="746.818" y1="193.258" x2="746.818" y2="241.523" gradientUnits="userSpaceOnUse">
<stop stop-color="#FF84C3"/>
<stop offset="0.735577" stop-color="#E3FC87"/>
</linearGradient>
<linearGradient id="paint1_linear_3362_610" x1="571.632" y1="110" x2="571.632" y2="338.47" gradientUnits="userSpaceOnUse">
<stop stop-color="#BDA5F6"/>
<stop offset="1" stop-color="#054AEA"/>
</linearGradient>
<linearGradient id="paint2_linear_3362_610" x1="890.184" y1="110" x2="890.184" y2="338.47" gradientUnits="userSpaceOnUse">
<stop stop-color="#BDA5F6"/>
<stop offset="1" stop-color="#054AEA"/>
</linearGradient>
<radialGradient id="paint3_radial_3362_610" cx="0" cy="0" r="1" gradientUnits="userSpaceOnUse" gradientTransform="translate(678.04 1109.1) rotate(90) scale(33.7859 37.4058)">
<stop stop-color="#A4D2FF"/>
<stop offset="1" stop-color="#E1F0FF"/>
</radialGradient>
<radialGradient id="paint4_radial_3362_610" cx="0" cy="0" r="1" gradientUnits="userSpaceOnUse" gradientTransform="translate(37.4058 33.7859) rotate(90) scale(33.7859 37.4058)">
<stop stop-color="#A4D2FF"/>
<stop offset="1" stop-color="#E1F0FF"/>
</radialGradient>
</defs>
</svg>
