<svg width="1479" height="1436" viewBox="0 0 1479 1436" fill="none" xmlns="http://www.w3.org/2000/svg">
<g clip-path="url(#clip0_3343_4984)">
<path d="M768.229 319.381C965.124 319.381 1123.8 453.041 1123.8 616.858C1123.8 780.676 965.124 914.336 768.229 914.336C571.335 914.336 412.66 780.676 412.66 616.858C412.66 453.041 571.335 319.381 768.229 319.381Z" fill="#E1F0FF" stroke="#054AEA" stroke-width="6" stroke-linecap="round"/>
<path d="M807.59 288.727C787.934 298.183 767.001 293.872 755.467 289.085C752.904 288.021 752.019 284.954 753.368 282.53L785.404 224.977C787.587 221.055 793.431 221.772 794.6 226.106L810.008 283.198C810.602 285.395 809.641 287.741 807.59 288.727Z" fill="url(#paint0_linear_3343_4984)" stroke="#054AEA" stroke-width="6" stroke-linecap="round"/>
<path d="M1287.21 797.145C1304.9 849.227 1304.23 973.425 1160 1053.55C1135.97 1068.91 1103.92 1108.64 1168.02 1144.7C1134.32 1134.71 1081.73 1101.75 1122.08 1046.46C1128.13 1038.17 1136.55 1032.06 1145.1 1026.39C1183.26 1001.08 1242.6 947.985 1251.15 885.285" stroke="#054AEA" stroke-width="6" stroke-linecap="round"/>
<path d="M734.423 511.071C651.479 485.817 682.162 374.28 707.871 321.668C676.514 343.891 649.287 437.835 639.594 482.029C627.455 521.425 467.227 570.716 415.387 588.814C402.366 723.028 491.508 825.19 584.656 870.261C613.737 882.888 659.775 907.814 750.92 914.331L707.871 1602.04C505.568 1634.36 383.344 1536.37 347.519 1483.34C313.127 1564.15 245.525 1538.06 216.022 1514.91C351.565 1540.16 300.315 1413.47 257.747 1346.97C203.125 1388.39 263.648 1455.14 300.736 1483.34C110.572 1402.53 230.773 1291.41 314.645 1245.96C379.32 1203.17 376.151 1155.38 360.653 1125.66C353.696 1112.33 340.116 1104.45 326.321 1098.45C234.019 1058.33 205.735 1009.16 203.378 988.367C155.837 936.849 162.017 811.85 223.973 684.319C314.645 16.3562 788.313 179.243 866.284 217.124C1216.16 147.677 1318.94 537.587 1285.7 795.176C1447.54 1001.25 1321.1 1123.47 1237.65 1158.83C1131.85 1189.53 1193.32 1258.85 1250.61 1299.67C1263.23 1308.67 1274.05 1320.66 1277.45 1335.8C1300.18 1437.03 1207.21 1496.87 1154.2 1514.91C1215.9 1466.42 1221.21 1413.89 1216.16 1393.69C1074.54 1599.76 856.226 1618.45 764.768 1602.04L769.95 914.331C916.182 907.32 973.273 860.245 1024.35 823.187C1103.48 748.067 1126.52 674.951 1122.51 615.857C1095.74 592.946 1002.58 551.706 976.054 492.535C982.559 512.246 991.683 548.09 996.152 566.629C966.606 560.215 941.94 548.445 921.431 533.201C891.552 518.076 852.134 473.454 834.31 450.462C832.287 481.777 848.639 508.125 857.069 517.385C749.848 503.242 728.101 417.211 730.63 375.964C696.238 434.552 718.829 490.447 734.423 511.071Z" fill="#ADBFFF" stroke="#054AEA" stroke-width="6" stroke-linecap="round"/>
<path d="M481.02 452.067C520.007 474.234 605.757 375.863 572.335 347.395C572.232 347.307 572.121 347.231 572.001 347.167C529.887 324.479 446.825 260.55 450.119 185.484C452.913 121.827 430.274 91.1793 413.257 80.1426C411.442 78.9656 409.784 81.3226 410.999 83.1123C421.785 99.0029 421.499 122.52 419.635 133.831C419.615 133.954 419.586 134.063 419.543 134.18C409.364 161.803 392.251 231.36 404.761 290.067C417.246 348.66 460.222 421.844 480.392 451.489C480.557 451.73 480.766 451.923 481.02 452.067Z" fill="url(#paint1_linear_3343_4984)" stroke="#054AEA" stroke-width="6" stroke-linecap="round"/>
<path d="M1028.09 452.067C989.103 474.234 903.353 375.863 936.774 347.395C936.878 347.307 936.989 347.231 937.108 347.167C979.223 324.479 1062.28 260.55 1058.99 185.484C1056.2 121.827 1078.84 91.1793 1095.85 80.1426C1097.67 78.9656 1099.33 81.3226 1098.11 83.1123C1087.32 99.0029 1087.61 122.52 1089.47 133.831C1089.49 133.954 1089.52 134.063 1089.57 134.18C1099.75 161.803 1116.86 231.36 1104.35 290.067C1091.86 348.66 1048.89 421.844 1028.72 451.489C1028.55 451.73 1028.34 451.923 1028.09 452.067Z" fill="url(#paint2_linear_3343_4984)" stroke="#054AEA" stroke-width="6" stroke-linecap="round"/>
<path d="M330.252 899.309C239.708 835.207 292.525 707.671 330.252 651.916L429.409 747.067C483.095 858.444 575.975 900.311 615.705 907.322C574.84 896.104 560.618 876.606 556.611 864.253L552.605 852.234C578.646 868.26 630.128 896.104 715.864 911.328L772.955 1041.54C839.06 1044.87 973.073 1049.55 980.284 1041.54C948.234 970.222 1003.65 931.694 1035.37 921.344C1169.99 891.697 1212.65 820.183 1229.68 770.104C1220.67 829.198 1198.63 875.271 1140.54 908.323C986.695 987.649 1032.03 1099.29 1066.42 1149.71C1217.86 1305.15 1098.81 1431.49 1020.35 1475.22C835.254 1566.57 601.349 1513.28 507.533 1475.22C340.787 1377.83 390.538 1238.43 446.122 1166.66C455.094 1155.07 463.236 1142.54 465.924 1128.14C486.852 1015.99 386.46 929.768 330.252 899.309Z" fill="#88A2FF" stroke="#054AEA" stroke-width="6" stroke-linecap="round"/>
<path d="M226.086 806.16C208.391 858.243 209.059 982.44 353.288 1062.57C377.326 1077.93 409.377 1117.66 345.275 1153.71C378.974 1143.73 431.568 1110.76 391.213 1055.48C385.163 1047.19 376.746 1041.08 368.195 1035.4C330.035 1010.09 270.693 957.001 262.143 894.3" stroke="#054AEA" stroke-width="6" stroke-linecap="round"/>
<path d="M484.886 957.4C508.59 1006.81 539.773 1126.27 474.87 1208.8C409.967 1291.33 471.198 1379.4 509.926 1413.12C488.892 1381.07 462.25 1300.95 523.948 1236.84C585.646 1172.74 584.377 1097.96 576.031 1068.58" stroke="#054AEA" stroke-width="6" stroke-linecap="round"/>
<path d="M1028.47 957.4C1004.77 1006.81 973.586 1126.27 1038.49 1208.8C1103.39 1291.33 1042.16 1379.4 1003.43 1413.12C1024.47 1381.07 1051.11 1300.95 989.411 1236.84C927.713 1172.74 928.982 1097.96 937.329 1068.58" stroke="#054AEA" stroke-width="6" stroke-linecap="round"/>
<path d="M1196.9 612.286C1186.49 577.03 1149.89 605.172 1135.53 619.862C1133.53 692.978 1114.01 727.991 1105.48 738.05C1102.28 752.473 1131.8 744.496 1144.82 735.482C1206.52 696.219 1205.25 636.992 1196.9 612.286Z" fill="#E1F0FF" stroke="#054AEA" stroke-width="6" stroke-linecap="round"/>
<path d="M336.375 611.841C346.791 576.585 383.394 604.727 397.75 619.417C399.753 692.533 419.266 727.546 427.798 737.605C431.003 752.028 401.478 744.051 388.458 735.036C326.76 695.774 328.028 636.547 336.375 611.841Z" fill="#E1F0FF" stroke="#054AEA" stroke-width="6" stroke-linecap="round"/>
<path d="M1237.69 628.878C1251.38 686.302 1251.12 816.576 1140.54 878.274C1125.85 884.951 1086.65 898.106 1047.39 897.304C1060.75 896.971 1095.67 888.49 1128.52 857.241C1113.5 862.249 1079.84 872.064 1065.42 871.263C1110.83 861.915 1201.64 807.361 1201.64 663.934" stroke="#054AEA" stroke-width="6" stroke-linecap="round"/>
<path d="M768.071 1556.79C760.145 1387.82 666.299 1377.4 619.385 1393.51C618.716 1393.74 618.126 1394.11 617.621 1394.6C555.172 1455.9 569.16 1605.33 586.655 1686.41C588.954 1697.06 588.134 1708.17 583.858 1718.2L541.643 1817.17C535.037 1832.66 532.337 1849.54 534.845 1866.19C545.793 1938.89 573.812 2055.4 576.643 2073.86C579.837 2094.68 576.643 2116.08 550.602 2132.27L549.328 2133.06C514.4 2154.77 509.898 2157.56 520.684 2188.76C521.242 2190.37 522.62 2191.6 524.286 2191.98C604.689 2210.14 663.036 2204.27 689.232 2196.49C689.519 2196.41 689.802 2196.29 690.067 2196.15C729.238 2175.76 682.733 2141.79 671.795 2128.26C663.013 2117.4 662.371 2085.51 671.795 2067.16C735.402 1897.16 745.815 1802.83 737.428 1752.78C735.174 1739.33 735.711 1725.3 740.934 1712.7C768.554 1646.08 770.8 1582.22 768.071 1556.79Z" fill="#E1F0FF" stroke="#054AEA" stroke-width="6" stroke-linecap="round"/>
<path d="M769.826 1556.79C777.753 1387.82 871.599 1377.4 918.513 1393.51C919.182 1393.74 919.771 1394.11 920.276 1394.6C982.725 1455.9 968.738 1605.33 951.242 1686.41C948.943 1697.06 949.764 1708.17 954.04 1718.2L996.255 1817.17C1002.86 1832.66 1005.56 1849.54 1003.05 1866.19C992.104 1938.89 964.086 2055.4 961.254 2073.86C958.061 2094.68 961.254 2116.08 987.295 2132.27L988.569 2133.06C1023.5 2154.77 1028 2157.56 1017.21 2188.76C1016.66 2190.37 1015.28 2191.6 1013.61 2191.98C933.208 2210.14 874.861 2204.27 848.665 2196.49C848.379 2196.41 848.095 2196.29 847.83 2196.15C808.66 2175.76 855.165 2141.79 866.103 2128.26C874.884 2117.4 875.527 2085.51 866.103 2067.16C802.495 1897.16 792.082 1802.83 800.47 1752.78C802.724 1739.33 802.186 1725.3 796.963 1712.7C769.343 1646.08 767.098 1582.22 769.826 1556.79Z" fill="#E1F0FF" stroke="#054AEA" stroke-width="6" stroke-linecap="round"/>
<path d="M507.026 1272.56C557.006 957.457 596.996 977.604 625.001 981.439C649.373 984.777 687.3 1011.89 644.031 1085.6C601.116 1158.72 566.477 1258.24 557.119 1296.02C556.962 1296.65 556.946 1297.28 557.036 1297.92C567.938 1376.07 462.123 1444.48 425.465 1514.77C424.948 1515.76 424.111 1516.5 423.222 1517.18C412.46 1525.42 407.79 1566.04 406.712 1587.21C406.672 1588 406.456 1588.76 406.038 1589.43C403.076 1594.21 397.103 1601.4 392.632 1598.42C387.917 1595.27 390.524 1577.1 392.516 1567.9C392.593 1567.54 392.634 1567.16 392.624 1566.8C391.96 1542.22 348.015 1556.45 325.257 1567.02C324.763 1567.25 324.229 1567.4 323.687 1567.46C270.738 1573.37 254.693 1563.2 252.422 1554.7C251.772 1552.27 254.258 1550.62 256.778 1550.6C287.963 1550.41 357.76 1511.91 391.369 1491.03C392.21 1490.51 392.857 1489.74 393.263 1488.84C451.854 1358.55 492.244 1292.79 506.025 1274.91C506.553 1274.22 506.891 1273.41 507.026 1272.56Z" fill="#E1F0FF" stroke="#054AEA" stroke-width="6" stroke-linecap="round"/>
<path d="M1029.83 1282.23C979.853 967.123 939.863 987.27 911.858 991.105C887.486 994.443 849.559 1021.55 892.828 1095.27C935.743 1168.38 970.382 1267.91 979.74 1305.68C979.897 1306.32 979.913 1306.94 979.823 1307.59C968.922 1385.74 1074.74 1454.15 1111.39 1524.43C1111.91 1525.42 1112.75 1526.17 1113.64 1526.85C1124.4 1535.08 1129.07 1575.71 1130.15 1596.88C1130.19 1597.67 1130.4 1598.43 1130.82 1599.1C1133.78 1603.88 1139.76 1611.06 1144.23 1608.08C1148.94 1604.94 1146.34 1586.77 1144.34 1577.56C1144.27 1577.21 1144.23 1576.83 1144.23 1576.46C1144.9 1551.88 1188.84 1566.12 1211.6 1576.69C1212.1 1576.92 1212.63 1577.07 1213.17 1577.13C1266.12 1583.04 1282.17 1572.87 1284.44 1564.37C1285.09 1561.93 1282.6 1560.29 1280.08 1560.27C1248.9 1560.08 1179.1 1521.58 1145.49 1500.7C1144.65 1500.18 1144 1499.41 1143.6 1498.51C1085.01 1368.22 1044.62 1302.45 1030.83 1284.57C1030.31 1283.89 1029.97 1283.08 1029.83 1282.23Z" fill="#E1F0FF" stroke="#054AEA" stroke-width="6" stroke-linecap="round"/>
<path d="M785.597 1510.36C773.974 1517.47 756.167 1513.32 748.716 1510.36L596.276 1430.05C594.176 1428.94 593.143 1426.51 593.804 1424.23L639.988 1264.93C640.197 1264.21 640.241 1263.45 640.116 1262.71L593.586 985.892C593.095 982.973 595.234 980.269 598.187 980.074L711.592 972.586C714.237 972.411 716.286 970.203 716.263 967.553L715.768 911.328C729.529 914.333 770.952 916.336 821.362 911.328V967.955C821.362 970.436 823.181 972.542 825.635 972.902L940.283 989.728C943.015 990.129 944.905 992.668 944.505 995.4L905.325 1262.87C905.232 1263.51 905.262 1264.16 905.414 1264.78L944.297 1424.32C944.844 1426.57 943.782 1428.89 941.728 1429.95L785.597 1510.36Z" fill="#E1F0FF" stroke="#054AEA" stroke-width="6" stroke-linecap="round"/>
<path d="M619 746C662 755.055 784.2 767.733 929 746" stroke="#1A4CFF" stroke-width="6" stroke-linecap="round"/>
<path d="M582.014 682.964C594.196 686.785 618.175 705.128 616.636 747.929C615.097 790.729 582.655 805.25 566.627 807.161" stroke="#054AEA" stroke-width="6" stroke-linecap="round"/>
<path d="M963.896 676.954C951.714 680.776 927.736 699.119 929.274 741.919C930.813 784.719 963.255 799.241 979.283 801.151" stroke="#054AEA" stroke-width="6" stroke-linecap="round"/>
<circle cx="551.604" cy="742.058" r="53.0843" fill="#FCDDEC"/>
<circle cx="697.835" cy="661.931" r="53.0843" fill="#C0E0FF"/>
<circle cx="53.0843" cy="53.0843" r="53.0843" transform="matrix(-1 0 0 1 889.139 608.847)" fill="#C0E0FF"/>
<circle cx="998.314" cy="736.048" r="53.0843" fill="#FCDDEC"/>
<path d="M657 653C656.834 666.5 665.5 694.3 701.5 697.5C737.5 700.7 747.833 669.167 748.5 653" stroke="#054AEA" stroke-width="6" stroke-linecap="round"/>
<path d="M786.002 653C785.836 666.5 794.502 694.3 830.502 697.5C866.502 700.7 876.835 669.167 877.502 653" stroke="#054AEA" stroke-width="6" stroke-linecap="round"/>
<path d="M942.224 1409.12C825.238 1435.56 664.449 1420.13 598.678 1409.12C581.05 1450.78 572.637 1501.26 570.634 1521.3C610.697 1536.52 718.202 1545 766.946 1547.34V1521.3L769.95 1547.34C845.27 1545.73 931.54 1523.3 965.261 1512.28C962.857 1475.42 948.901 1428.15 942.224 1409.12Z" fill="#5D5FEF" stroke="#1A4CFF" stroke-width="6" stroke-linecap="round"/>
<path d="M768.948 946.383C702.442 946.383 706.515 939.038 716.865 935.366V931.359C712.525 931.359 703.243 933.363 700.839 941.375V971.423L602.684 973.426L628.725 1210.8L640.744 1263.89L567.87 1400.05C565.915 1403.7 566.416 1408.18 569.13 1411.31L589.894 1435.27C590.37 1435.82 590.511 1436.58 590.263 1437.27L582.652 1458.2C645.752 1488.91 808.21 1531.91 953.24 1458.2L943.622 1430.3C943.378 1429.6 943.55 1428.81 944.068 1428.27L960.805 1410.77C963.517 1407.93 964.321 1403.77 962.859 1400.13L908.169 1263.89L933.209 980.437L839.059 967.417V943.507C839.059 942.088 839.017 940.623 838.294 939.401C836.815 936.9 833.034 933.507 825.068 931.594C824.384 931.429 823.68 931.359 822.976 931.359H821.03V937.369L822.969 937.646C826.297 938.121 829.872 938.852 832.402 941.066C835.4 943.688 829.934 946.383 768.948 946.383Z" fill="#F3FFC6" stroke="#054AEA" stroke-width="6" stroke-linecap="round"/>
<path d="M504.916 1236.84C528.153 1035.72 577.364 977.432 599.066 973.426C622.436 975.763 666.573 1040.93 636.124 1194.78L605.075 1304.95L584.042 1448.18L555.997 1498.26L457.841 1514.29L447.825 1530.31C447.491 1531.38 445.421 1533.91 439.813 1535.41C434.204 1536.91 424.789 1532.64 420.782 1530.31L422.785 1524.3C429.463 1526.97 437.208 1528.51 434.805 1517.29C432.401 1506.07 403.421 1495.59 386.728 1491.25L394.741 1480.23C386.728 1468.21 372.706 1438.77 380.719 1417.13C388.731 1395.5 466.856 1287.93 504.916 1236.84Z" fill="#F3FFC6"/>
<path d="M526.563 1469.21L452.445 1513.28L554.608 1496.26L581.651 1447.18L602.684 1305.95L637.74 1185.76L644.751 1121.66V1065.57L632.732 1055.56L628.725 1058.56L630.729 1079.59V1133.68L589.663 1292.93L526.563 1469.21Z" fill="#D5FB4C"/>
<path d="M951.237 1434.16C830.245 1491.05 661.777 1462.54 592.667 1441.17L587.659 1456.19C605.354 1464.54 651.961 1482.64 696.833 1488.24C802 1497.26 902.827 1458.86 951.237 1434.16Z" fill="#D5FB4C"/>
<path d="M657.77 1270.9L639.742 1198.78L632.731 1223.82L642.746 1268.9L603.684 1341.01L589.662 1436.16L590.664 1442.17L607.691 1448.18L657.77 1270.9Z" fill="#D5FB4C"/>
<path d="M627.723 1001.47C614.903 971.823 599.679 972.424 593.669 976.43C536.779 1019.7 512.132 1166.73 506.92 1234.84C468.859 1285.92 390.735 1393.49 382.723 1415.13C374.71 1436.76 388.732 1466.21 396.745 1478.23L388.732 1489.24C405.425 1493.59 434.405 1504.07 436.808 1515.29C439.212 1526.5 431.467 1524.97 424.789 1522.3L422.786 1528.31C426.793 1530.63 436.208 1534.91 441.816 1533.41C447.425 1531.9 449.495 1529.38 449.829 1528.31L459.845 1512.28L558.001 1496.26L586.046 1446.18L607.079 1302.95L638.128 1192.77C644.676 1157.05 654.766 1080.8 642.747 1061.57C630.728 1042.33 631.062 1061.57 632.731 1073.58C634.4 1079.59 636.737 1100.43 632.731 1135.68" stroke="#054AEA" stroke-width="6" stroke-linecap="round"/>
<path d="M1028.56 1240.04C1005.33 1041.07 956.115 983.399 934.414 979.436C911.043 981.748 866.907 1046.22 897.355 1198.42L928.404 1307.42L949.438 1449.12L977.482 1498.66L1075.64 1514.51L1085.65 1530.37C1085.99 1531.43 1088.06 1533.93 1093.67 1535.41C1099.28 1536.9 1108.69 1532.67 1112.7 1530.37L1110.69 1524.42C1104.02 1527.07 1096.27 1528.58 1098.67 1517.49C1101.08 1506.39 1130.06 1496.02 1146.75 1491.72L1138.74 1480.82C1146.75 1468.93 1160.77 1439.8 1152.76 1418.4C1144.75 1397 1066.62 1290.57 1028.56 1240.04Z" fill="#F3FFC6"/>
<path d="M905.757 1007.18C918.578 977.85 933.802 978.445 939.811 982.408C996.702 1025.21 1021.35 1170.68 1026.56 1238.06C1064.62 1288.59 1142.75 1395.01 1150.76 1416.42C1158.77 1437.82 1144.75 1466.95 1136.74 1478.84L1144.75 1489.74C1128.06 1494.04 1099.08 1504.41 1096.67 1515.51C1094.27 1526.6 1102.01 1525.08 1108.69 1522.44L1110.69 1528.39C1106.69 1530.69 1097.27 1534.92 1091.66 1533.43C1086.06 1531.94 1083.99 1529.45 1083.65 1528.39L1073.64 1512.53L975.479 1496.68L947.435 1447.13L926.401 1305.44L895.352 1196.44C888.805 1161.1 878.714 1085.66 890.733 1066.63C902.753 1047.61 902.419 1066.63 900.749 1078.52C899.08 1084.47 896.743 1105.08 900.749 1139.96" stroke="#054AEA" stroke-width="6" stroke-linecap="round"/>
<path d="M685.279 781.411C663.138 779.156 662.893 763.623 664.056 751.983C728.077 758.119 814.321 756.456 848 755.001C850.082 765.504 844.904 777.379 831.699 779.362C820.612 781.027 810.596 779.68 806.71 772.823C807.061 789.408 793.936 794.687 787.344 795.226C764.085 798.457 755.695 786.526 754.372 776.894C754.285 792.618 739.317 794.054 733.364 794.854C711.513 795.923 704.693 781.934 704.987 770.859C703.276 782.597 689.999 780.823 685.279 781.411Z" fill="white"/>
<path d="M664.056 751.983L664.342 748.997L661.368 748.712L661.071 751.685L664.056 751.983ZM685.279 781.411L684.975 784.395L685.313 784.43L685.649 784.388L685.279 781.411ZM705.168 768.437L708.168 768.47C708.185 766.879 706.958 765.551 705.37 765.444C703.782 765.337 702.387 766.488 702.191 768.067L705.168 768.437ZM733.364 794.854L733.511 797.85L733.638 797.844L733.764 797.827L733.364 794.854ZM754.187 773.583L757.169 773.248C756.993 771.682 755.636 770.519 754.062 770.585C752.488 770.651 751.233 771.923 751.188 773.498L754.187 773.583ZM787.344 795.226L787.099 792.236L787.015 792.243L786.931 792.255L787.344 795.226ZM806.71 772.823L809.32 771.344C808.642 770.148 807.239 769.566 805.914 769.93C804.589 770.295 803.681 771.513 803.71 772.886L806.71 772.823ZM831.699 779.362L832.145 782.329L831.699 779.362ZM848 755.001L850.943 754.417L850.442 751.892L847.871 752.003L848 755.001ZM664.056 751.983L661.071 751.685C660.487 757.523 660.146 765.07 663.221 771.509C666.456 778.284 673.118 783.188 684.975 784.395L685.279 781.411L685.583 778.426C675.299 777.379 670.768 773.389 668.636 768.924C666.343 764.123 666.461 758.084 667.041 752.281L664.056 751.983ZM685.279 781.411L685.649 784.388C686.697 784.257 688.061 784.274 690.263 784.161C692.268 784.057 694.669 783.844 697.033 783.215C699.402 782.585 701.884 781.498 703.925 779.543C706.007 777.548 707.44 774.829 707.955 771.291L704.987 770.859L702.018 770.426C701.678 772.757 700.81 774.218 699.774 775.21C698.696 776.243 697.244 776.95 695.49 777.417C693.73 777.885 691.82 778.073 689.954 778.169C688.287 778.255 686.221 778.27 684.908 778.434L685.279 781.411ZM704.987 770.859L707.955 771.291C708.086 770.398 708.157 769.458 708.168 768.47L705.168 768.437L702.168 768.404C702.16 769.146 702.107 769.818 702.018 770.426L704.987 770.859ZM705.168 768.437L702.191 768.067C702.081 768.95 702.012 769.857 701.988 770.779L704.987 770.859L707.986 770.938C708.005 770.209 708.059 769.496 708.145 768.807L705.168 768.437ZM704.987 770.859L701.988 770.779C701.825 776.908 703.621 784 708.671 789.449C713.793 794.977 721.893 798.419 733.511 797.85L733.364 794.854L733.218 791.857C722.985 792.358 716.749 789.34 713.072 785.371C709.322 781.325 707.855 775.884 707.986 770.938L704.987 770.859ZM733.364 794.854L733.764 797.827C736.601 797.446 742.42 796.845 747.491 794.111C750.084 792.713 752.576 790.716 754.417 787.838C756.267 784.946 757.348 781.339 757.372 776.911L754.372 776.894L751.372 776.878C751.353 780.312 750.53 782.78 749.363 784.605C748.187 786.443 746.548 787.803 744.644 788.83C740.721 790.945 736.08 791.462 732.965 791.881L733.364 794.854ZM754.372 776.894L757.372 776.911C757.379 775.745 757.312 774.525 757.169 773.248L754.187 773.583L751.206 773.918C751.325 774.978 751.377 775.963 751.372 776.878L754.372 776.894ZM754.187 773.583L751.188 773.498C751.154 774.717 751.221 775.995 751.4 777.303L754.372 776.894L757.344 776.486C757.209 775.501 757.161 774.552 757.186 773.667L754.187 773.583ZM754.372 776.894L751.4 777.303C752.151 782.773 754.92 788.958 760.86 793.305C766.822 797.667 775.58 799.889 787.757 798.198L787.344 795.226L786.931 792.255C775.848 793.794 768.782 791.667 764.403 788.463C760.003 785.243 757.916 780.647 757.344 776.486L754.372 776.894ZM787.344 795.226L787.588 798.216C791.4 797.905 796.957 796.261 801.576 792.325C806.312 788.29 809.904 781.967 809.709 772.759L806.71 772.823L803.71 772.886C803.867 780.264 801.071 784.873 797.685 787.758C794.181 790.744 789.879 792.009 787.099 792.236L787.344 795.226ZM806.71 772.823L804.1 774.302C806.595 778.704 810.955 781.113 815.845 782.215C820.714 783.311 826.395 783.192 832.145 782.329L831.699 779.362L831.254 776.395C825.916 777.197 821.046 777.236 817.163 776.361C813.302 775.491 810.711 773.798 809.32 771.344L806.71 772.823ZM831.699 779.362L832.145 782.329C839.641 781.203 845.02 777.209 848.163 771.906C851.264 766.674 852.112 760.313 850.943 754.417L848 755.001L845.057 755.584C845.971 760.191 845.27 765.02 843.002 768.847C840.775 772.603 836.963 775.538 831.254 776.395L831.699 779.362ZM848 755.001L847.871 752.003C814.232 753.457 728.153 755.113 664.342 748.997L664.056 751.983L663.769 754.969C728 761.125 814.409 759.455 848.13 757.998L848 755.001Z" fill="#054AEA"/>
</g>
<defs>
<linearGradient id="paint0_linear_3343_4984" x1="780.968" y1="214.219" x2="780.968" y2="294.346" gradientUnits="userSpaceOnUse">
<stop stop-color="#FF84C3"/>
<stop offset="0.735577" stop-color="#E3FC87"/>
</linearGradient>
<linearGradient id="paint1_linear_3343_4984" x1="490.134" y1="76" x2="490.134" y2="455.291" gradientUnits="userSpaceOnUse">
<stop stop-color="#BDA5F6"/>
<stop offset="1" stop-color="#054AEA"/>
</linearGradient>
<linearGradient id="paint2_linear_3343_4984" x1="1018.98" y1="76" x2="1018.98" y2="455.291" gradientUnits="userSpaceOnUse">
<stop stop-color="#BDA5F6"/>
<stop offset="1" stop-color="#054AEA"/>
</linearGradient>
<clipPath id="clip0_3343_4984">
<rect width="1479" height="1436" fill="white"/>
</clipPath>
</defs>
</svg>
