<svg width="1479" height="1436" viewBox="0 0 1479 1436" fill="none" xmlns="http://www.w3.org/2000/svg">
<g clip-path="url(#clip0_3343_5453)">
<path d="M1508.14 518.226C1488.37 451.287 1418.87 504.719 1391.61 532.61C1387.81 671.433 1350.76 737.91 1334.56 757.009C1328.48 784.393 1384.53 769.247 1409.26 752.132C1526.4 677.586 1523.99 565.134 1508.14 518.226Z" fill="#E1F0FF" stroke="#054AEA" stroke-width="10" stroke-linecap="round"/>
<path d="M596.711 1087.9C88.5823 998.144 2.11921 643.544 22.4038 477.464C81.7367 133.64 398.303 4.57894 549.169 -16.9734C663.27 -47.5467 793.218 -29.7123 843.929 -16.9734C1387.05 107.777 1402.39 509.158 1342.17 694.255C1368.03 729.246 1360.55 787.438 1353.58 812.159C1324.67 886.705 1254.06 917.386 1216.66 914.85C1014.32 1111.1 715.249 1106.29 596.711 1087.9Z" fill="#E1F0FF" stroke="#1A4CFF" stroke-width="10" stroke-linecap="round"/>
<path d="M1683.4 869.21C1717 968.097 1715.73 1203.91 1441.89 1356.04C1396.25 1385.2 1335.39 1460.63 1457.1 1529.09C1390.92 1509.48 1286.34 1443.19 1378.43 1331.59C1384.96 1323.67 1393.21 1317.4 1401.92 1311.97C1473.24 1267.53 1597.81 1162.21 1614.94 1036.56" stroke="#054AEA" stroke-width="10" stroke-linecap="round"/>
<path d="M633.85 326.053C476.368 278.104 534.623 66.3328 583.437 -33.5595C523.901 8.63559 472.206 187.003 453.801 270.912C430.755 345.712 126.535 439.298 28.1084 473.661C3.38657 728.486 172.636 922.457 349.492 1008.03C404.707 1032.01 492.119 1079.33 665.172 1091.71L583.437 2397.42C199.333 2458.8 -32.7306 2272.76 -100.749 2172.06C-166.047 2325.5 -294.402 2275.95 -350.417 2232C-93.0673 2279.95 -190.374 2039.41 -271.195 1913.14C-374.904 1991.78 -259.992 2118.52 -189.573 2172.06C-550.631 2018.63 -322.409 1807.65 -163.166 1721.35C-26.6345 1631.02 -49.3447 1528.95 -86.4193 1475.37C-94.9787 1463 -108.125 1454.93 -122.056 1449.26C-312.41 1371.75 -369.791 1273.14 -374.423 1232.27C-464.688 1134.46 -452.954 897.13 -335.321 654.991C-163.166 -613.242 736.168 -303.976 884.208 -232.053C1548.5 -363.91 1743.64 376.398 1680.53 865.471C1987.82 1256.73 1747.75 1488.8 1589.31 1555.93C1377.46 1617.41 1518.84 1760.43 1631.6 1835.53C1644.51 1844.12 1654.97 1856.26 1659.41 1871.12C1720.69 2075.95 1535.1 2196.53 1430.87 2232C1548.02 2139.94 1558.1 2040.2 1548.5 2001.85C1279.62 2393.1 865.112 2428.59 691.465 2397.42L701.303 1091.71C802.726 1094.24 1058.44 1075.73 1216.66 912.949C1249.62 918.02 1311.36 893.932 1347.87 825.472C1359.28 800.75 1373.74 740.657 1340.27 698.059C1347.24 681.578 1364.99 591.565 1364.99 525.006C1314.24 481.561 1142.81 403.406 1092.77 291.291C1105.11 328.805 1122.33 396.475 1130.78 431.539C1074.69 419.36 1027.85 397.014 988.913 368.069C932.184 339.352 857.343 254.631 823.501 210.977C819.66 270.433 850.708 320.459 866.712 338.04C663.137 311.189 621.846 147.845 626.648 69.5295C561.35 180.77 604.242 286.895 633.85 326.053Z" fill="#ADBFFF"/>
<path d="M583.437 -33.5595C534.623 66.3328 476.368 278.104 633.85 326.053C604.242 286.895 561.35 180.77 626.648 69.5295C621.846 147.845 663.137 311.189 866.712 338.04C850.708 320.459 819.66 270.433 823.501 210.977C861.911 260.523 953.136 362.973 1010.75 376.398C937.932 279.703 796.133 59.9397 811.497 -45.5466C807.496 89.5079 865.752 374.001 1130.78 431.539C1120.38 388.385 1096.69 295.845 1085.17 270.912C1121.98 393.98 1311.22 478.976 1364.99 525.006C1364.99 591.565 1347.24 681.578 1340.27 698.059C1373.74 740.657 1359.28 800.75 1347.87 825.472C1311.36 893.932 1249.62 918.02 1216.66 912.949C1058.44 1075.73 802.726 1094.24 701.303 1091.71L691.465 2397.42C865.112 2428.59 1279.62 2393.1 1548.5 2001.85C1558.1 2040.2 1548.02 2139.94 1430.87 2232C1535.1 2196.53 1720.69 2075.95 1659.41 1871.12C1654.97 1856.26 1644.51 1844.12 1631.6 1835.53C1518.84 1760.43 1377.46 1617.41 1589.31 1555.93C1747.75 1488.8 1987.82 1256.73 1680.53 865.471C1743.64 376.398 1548.5 -363.91 884.208 -232.053C736.168 -303.976 -163.166 -613.242 -335.321 654.991C-452.954 897.13 -464.688 1134.46 -374.423 1232.27C-369.791 1273.14 -312.41 1371.75 -122.056 1449.26C-108.125 1454.93 -94.9787 1463 -86.4193 1475.37C-49.3447 1528.95 -26.6345 1631.02 -163.166 1721.35C-322.409 1807.65 -550.631 2018.63 -189.573 2172.06C-259.992 2118.52 -374.904 1991.78 -271.195 1913.14C-190.374 2039.41 -93.0673 2279.95 -350.417 2232C-294.402 2275.95 -166.047 2325.5 -100.749 2172.06C-32.7306 2272.76 199.333 2458.8 583.437 2397.42L665.171 1091.71C492.119 1079.33 404.707 1032.01 349.492 1008.03C172.636 922.457 3.38656 728.486 28.1084 473.661C126.535 439.298 430.755 345.712 453.801 270.912C472.206 187.003 523.901 8.6356 583.437 -33.5595Z" stroke="#054AEA" stroke-width="10" stroke-linecap="round"/>
<path d="M152.378 213.823C226.292 256.73 389.904 69.1422 325.959 15.1652C325.855 15.0778 325.744 15.0014 325.625 14.9372C245.713 -28.0645 87.7975 -149.51 94.0563 -292.126C99.7773 -422.487 49.3233 -479.938 16.6772 -496.397C14.7458 -497.371 13.1934 -494.902 14.6055 -493.263C40.3858 -463.35 39.9911 -413.113 36.1507 -390.037C36.1301 -389.914 36.1015 -389.806 36.0582 -389.689C16.7384 -337.346 -15.8391 -205.133 7.93581 -93.5603C31.6865 17.8989 113.546 157.165 151.752 213.244C151.916 213.485 152.126 213.677 152.378 213.823Z" fill="url(#paint0_linear_3343_5453)" stroke="#054AEA" stroke-width="10" stroke-linecap="round"/>
<path d="M1191.77 213.823C1117.86 256.73 954.245 69.1422 1018.19 15.1652C1018.29 15.0778 1018.4 15.0014 1018.52 14.9372C1098.44 -28.0645 1256.35 -149.51 1250.09 -292.126C1244.37 -422.487 1294.83 -479.938 1327.47 -496.397C1329.4 -497.371 1330.95 -494.902 1329.54 -493.263C1303.76 -463.35 1304.16 -413.113 1308 -390.037C1308.02 -389.914 1308.05 -389.806 1308.09 -389.689C1327.41 -337.346 1359.99 -205.133 1336.21 -93.5603C1312.46 17.8989 1230.6 157.165 1192.4 213.244C1192.23 213.485 1192.02 213.677 1191.77 213.823Z" fill="url(#paint1_linear_3343_5453)" stroke="#054AEA" stroke-width="10" stroke-linecap="round"/>
<path d="M-133.534 1063.18C-305.446 941.474 -205.164 699.327 -133.534 593.467L54.7328 774.126C156.663 985.593 333.012 1065.08 408.445 1078.4C330.857 1057.1 303.853 1020.08 296.246 996.623L288.64 973.803C338.083 1004.23 435.83 1057.1 598.613 1086L707.009 1333.22C832.52 1339.56 1086.97 1348.43 1100.66 1333.22C1039.8 1197.82 1145.03 1124.67 1205.25 1105.02C1460.84 1048.73 1541.85 912.949 1574.18 817.865C1557.06 930.064 1515.22 1017.54 1404.93 1080.3C1112.83 1230.91 1198.91 1442.88 1264.2 1538.6C1551.74 1833.74 1325.69 2073.61 1176.72 2156.65C825.294 2330.08 381.188 2228.91 203.064 2156.65C-126.06 1964.42 -10.9504 1685.99 99.0209 1555.22C108.452 1544 116.231 1531.42 119.789 1517.2C175.465 1294.77 -23.5682 1122.77 -133.534 1063.18Z" fill="#88A2FF" stroke="#054AEA" stroke-width="10" stroke-linecap="round"/>
<path d="M-331.309 886.325C-364.905 985.213 -363.638 1221.02 -89.7956 1373.16C-44.1552 1402.31 16.6985 1477.75 -105.009 1546.21C-38.8254 1526.6 65.7479 1460.3 -26.3373 1348.7C-32.8681 1340.79 -41.1235 1334.51 -49.8326 1329.09C-121.153 1284.65 -245.715 1179.32 -262.849 1053.67" stroke="#054AEA" stroke-width="10" stroke-linecap="round"/>
<path d="M160.061 1173.48C205.068 1267.29 264.273 1494.1 141.045 1650.8C17.8156 1807.5 134.072 1974.72 207.603 2038.74C167.668 1977.89 117.083 1825.75 234.227 1704.05C351.37 1582.34 348.962 1440.35 333.114 1384.57" stroke="#054AEA" stroke-width="10" stroke-linecap="round"/>
<path d="M1192.15 1173.48C1147.14 1267.29 1087.94 1494.1 1211.17 1650.8C1334.4 1807.5 1218.14 1974.72 1144.61 2038.74C1184.54 1977.89 1235.13 1825.75 1117.99 1704.05C1000.84 1582.34 1003.25 1440.35 1019.1 1384.57" stroke="#054AEA" stroke-width="10" stroke-linecap="round"/>
<path d="M-125.712 517.379C-105.934 450.44 -36.4394 503.872 -9.18198 531.764C-5.37862 670.586 31.6696 737.064 47.8686 756.162C53.954 783.546 -2.10258 768.4 -26.8244 751.285C-143.968 676.739 -141.559 564.287 -125.712 517.379Z" fill="#E1F0FF" stroke="#054AEA" stroke-width="10" stroke-linecap="round"/>
<path d="M727.208 2223.35C705.139 2236.86 671.329 2228.98 657.182 2223.35L364.509 2069.17C362.409 2068.06 361.377 2065.63 362.038 2063.35L451.03 1756.39C451.24 1755.67 451.283 1754.91 451.159 1754.17L361.819 1222.67C361.328 1219.75 363.467 1217.05 366.42 1216.85L590.932 1202.03C593.577 1201.86 595.626 1199.65 595.602 1197L594.625 1086C620.754 1091.71 699.402 1095.51 795.112 1086V1197.4C795.112 1199.88 796.931 1201.99 799.386 1202.35L1025.35 1235.51C1028.08 1235.91 1029.97 1238.45 1029.57 1241.18L954.403 1754.33C954.309 1754.96 954.34 1755.61 954.492 1756.24L1029.36 2063.44C1029.91 2065.69 1028.85 2068.01 1026.79 2069.07L727.208 2223.35Z" fill="#E1F0FF" stroke="#054AEA" stroke-width="10" stroke-linecap="round"/>
<path d="M1079.89 761H502.358C498.578 761 496.149 764.998 498.02 768.284C524.304 814.456 590.523 901 798.813 901C978.658 901 1061.93 818.254 1084.37 767.558C1085.77 764.393 1083.35 761 1079.89 761Z" fill="#F178B6" stroke="#054AEA" stroke-width="10" stroke-linecap="round"/>
<path d="M623.737 814.937C570.172 809.798 563.881 785.615 566.5 761C718.691 757.51 919.101 764.023 1000.5 761.5C1004.13 776.301 990.52 796.585 967.941 804.115C943.219 812.36 922.301 804.115 912.792 789.54C913.916 824.645 876.616 850.06 860.689 851.091C806.089 857.362 787.828 827.984 784.305 806.444C784.467 839.332 758.544 850.776 744.444 852.339C679.752 854.409 665.228 814.387 665.861 789.349C661.968 813.765 635.005 813.786 623.737 814.937Z" fill="white"/>
<path d="M566.5 761L566.385 756.001L561.993 756.102L561.528 760.471L566.5 761ZM623.737 814.937L623.259 819.914L623.752 819.962L624.245 819.911L623.737 814.937ZM666.332 783.304L671.332 783.328C671.344 780.692 669.308 778.498 666.677 778.316C664.047 778.134 661.727 780.026 661.376 782.639L666.332 783.304ZM744.444 852.339L744.604 857.336L744.8 857.33L744.995 857.309L744.444 852.339ZM783.643 797.351L788.598 796.677C788.246 794.094 785.969 792.215 783.366 792.359C780.764 792.503 778.708 794.623 778.645 797.229L783.643 797.351ZM860.689 851.091L860.365 846.102L860.241 846.11L860.118 846.124L860.689 851.091ZM912.792 789.54L916.98 786.808C915.755 784.93 913.43 784.097 911.291 784.77C909.152 785.444 907.723 787.458 907.795 789.699L912.792 789.54ZM967.941 804.115L966.359 799.372V799.372L967.941 804.115ZM1000.5 761.5L1005.36 760.308L1004.39 756.377L1000.35 756.503L1000.5 761.5ZM566.5 761L561.528 760.471C560.171 773.227 560.961 787.102 570.17 798.427C579.344 809.707 595.916 817.291 623.259 819.914L623.737 814.937L624.214 809.96C597.993 807.444 584.638 800.367 577.929 792.118C571.256 783.912 570.21 773.388 571.472 761.529L566.5 761ZM623.737 814.937L624.245 819.911C629.388 819.386 639.891 819.044 649.302 815.556C659.108 811.921 668.489 804.617 670.798 790.137L665.861 789.349L660.923 788.562C659.339 798.498 653.293 803.412 645.827 806.179C637.966 809.093 629.354 809.337 623.228 809.963L623.737 814.937ZM665.861 789.349L670.798 790.137C671.14 787.997 671.32 785.729 671.332 783.328L666.332 783.304L661.332 783.28C661.323 785.21 661.178 786.965 660.923 788.562L665.861 789.349ZM666.332 783.304L661.376 782.639C661.099 784.705 660.921 786.912 660.862 789.223L665.861 789.349L670.859 789.476C670.909 787.515 671.059 785.668 671.287 783.97L666.332 783.304ZM665.861 789.349L660.862 789.223C660.523 802.648 664.225 820.288 676.946 834.362C689.798 848.581 711.166 858.407 744.604 857.336L744.444 852.339L744.284 847.342C713.03 848.342 694.791 839.192 684.365 827.657C673.809 815.978 670.566 801.088 670.859 789.476L665.861 789.349ZM744.444 852.339L744.995 857.309C752.878 856.435 763.891 852.854 773.008 844.908C782.294 836.814 789.393 824.361 789.305 806.419L784.305 806.444L779.305 806.469C779.379 821.415 773.598 831.128 766.438 837.369C759.108 843.758 750.111 846.68 743.893 847.369L744.444 852.339ZM784.305 806.444L789.305 806.419C789.289 803.324 789.06 800.079 788.598 796.677L783.643 797.351L778.689 798.025C779.097 801.022 779.292 803.833 779.305 806.469L784.305 806.444ZM783.643 797.351L778.645 797.229C778.57 800.301 778.788 803.693 779.37 807.251L784.305 806.444L789.239 805.637C788.755 802.674 788.582 799.903 788.642 797.473L783.643 797.351ZM784.305 806.444L779.37 807.251C781.285 818.958 787.225 832.938 800.263 843.135C813.369 853.386 832.994 859.305 861.259 856.059L860.689 851.091L860.118 846.124C833.784 849.149 816.978 843.514 806.423 835.259C795.8 826.949 790.847 815.47 789.239 805.637L784.305 806.444ZM860.689 851.091L861.012 856.081C866 855.758 872.044 853.623 878.076 850.379C884.202 847.083 890.699 842.437 896.621 836.677C908.402 825.217 918.412 808.814 917.79 789.38L912.792 789.54L907.795 789.699C908.296 805.37 900.218 819.227 889.648 829.509C884.394 834.62 878.65 838.715 873.339 841.572C867.932 844.48 863.341 845.909 860.365 846.102L860.689 851.091ZM912.792 789.54L908.605 792.271C919.552 809.052 943.005 817.702 969.523 808.858L967.941 804.115L966.359 799.372C943.433 807.018 925.05 799.178 916.98 786.808L912.792 789.54ZM967.941 804.115L969.523 808.858C981.783 804.77 991.691 797.198 998.081 788.493C1004.4 779.883 1007.64 769.608 1005.36 760.308L1000.5 761.5L995.644 762.692C996.994 768.193 995.242 775.461 990.019 782.575C984.866 789.595 976.678 795.931 966.359 799.372L967.941 804.115ZM1000.5 761.5L1000.35 756.503C959.782 757.76 889.483 756.765 810.102 755.888C730.809 755.011 642.578 754.254 566.385 756.001L566.5 761L566.614 765.998C642.613 764.256 730.682 765.01 809.992 765.887C889.214 766.763 959.819 767.763 1000.65 766.498L1000.5 761.5Z" fill="#054AEA"/>
<path d="M428.152 652.419C451.281 659.675 496.808 694.502 493.886 775.765C490.965 857.028 429.369 884.6 398.937 888.227" stroke="#054AEA" stroke-width="10" stroke-linecap="round"/>
<path d="M1153.21 641.009C1130.08 648.264 1084.56 683.092 1087.48 764.355C1090.4 845.618 1152 873.189 1182.43 876.817" stroke="#054AEA" stroke-width="10" stroke-linecap="round"/>
<circle cx="370.411" cy="764.617" r="100.789" fill="#FCDDEC"/>
<circle cx="648.057" cy="612.483" r="100.789" fill="#C0E0FF"/>
<circle cx="100.789" cy="100.789" r="100.789" transform="matrix(-1 0 0 1 1011.28 511.694)" fill="#C0E0FF"/>
<circle cx="1218.56" cy="753.208" r="100.789" fill="#FCDDEC"/>
<circle cx="656.959" cy="595.219" r="86.1323" fill="#FAFAFA" stroke="#054AEA" stroke-width="10" stroke-linecap="round"/>
<path d="M598.558 530.176L573.334 492.678" stroke="#054AEA" stroke-width="10" stroke-linecap="round"/>
<path d="M586.359 542.599L549.513 517.009" stroke="#054AEA" stroke-width="10" stroke-linecap="round"/>
<path d="M573.802 559.208L532.054 543.28" stroke="#054AEA" stroke-width="10" stroke-linecap="round"/>
<circle cx="91.1323" cy="91.1323" r="86.1323" transform="matrix(-1 0 0 1 992.718 504.087)" fill="#FAFAFA" stroke="#054AEA" stroke-width="10" stroke-linecap="round"/>
<path d="M959.987 530.176L985.211 492.678" stroke="#054AEA" stroke-width="10" stroke-linecap="round"/>
<path d="M972.186 542.599L1009.03 517.009" stroke="#054AEA" stroke-width="10" stroke-linecap="round"/>
<path d="M984.743 559.208L1026.49 543.28" stroke="#054AEA" stroke-width="10" stroke-linecap="round"/>
<path d="M1114.8 1468.24C1102.97 1309.1 1043.37 1241.3 1004.1 1227.48C993.403 1223.72 981.272 1225.69 972.393 1232.74C921.839 1272.87 938.479 1423.56 958.866 1506.27C1009.38 1806.74 1134.89 1922.74 1203.35 1882.81L1173.76 1724.97C1133.82 1692.64 1116.07 1539.87 1114.8 1468.24Z" fill="#E1F0FF" stroke="#1A4CFF" stroke-width="10" stroke-linecap="round" stroke-linejoin="round"/>
<path d="M1283.79 1502.64L1308.51 1439.89C1303.44 1412 1278.88 1384.25 1287.59 1358.11C1299.75 1321.66 1302.32 1293.22 1302.76 1274.3C1303.11 1259.26 1308.17 1241.37 1322.14 1246.96C1325.38 1248.25 1328.57 1249.96 1331.33 1251.62C1339.67 1256.62 1338 1269.65 1340.2 1278.24C1348.02 1256.69 1344.64 1247.82 1361.76 1213.59C1362.61 1211.89 1380.77 1175.55 1386.48 1213.59C1390.36 1239.45 1389.02 1257.07 1387.36 1265.28C1392.01 1247.86 1400.17 1229.49 1405.5 1223.1C1415.01 1211.68 1458.74 1175.55 1473.96 1310.57C1483.47 1292.19 1495.18 1263.44 1506.29 1278.24C1510.92 1284.43 1511.79 1328.3 1499.7 1376.17C1494.07 1398.45 1480.29 1417.46 1463.75 1433.43C1450.15 1446.57 1436.61 1460.23 1432.12 1466.51C1416.27 1481.72 1376.97 1529.27 1346.54 1597.73C1308.51 1683.3 1243.85 1995.18 1120.25 1856.35C1098.95 1751.38 1220.4 1576.81 1283.79 1502.64Z" fill="#E1F0FF"/>
<path d="M1397.89 1365.72C1393.33 1338.34 1361.76 1325.15 1346.54 1321.98C1346.54 1314.11 1345.1 1297.37 1340.2 1278.24M1340.2 1278.24C1338 1269.65 1339.67 1256.62 1331.33 1251.62C1328.57 1249.96 1325.38 1248.25 1322.14 1246.96C1308.17 1241.37 1303.11 1259.26 1302.76 1274.3C1302.32 1293.22 1299.75 1321.66 1287.59 1358.11C1278.88 1384.25 1303.44 1412 1308.51 1439.89L1283.79 1502.64C1220.4 1576.81 1098.95 1751.38 1120.25 1856.35C1243.85 1995.18 1308.51 1683.3 1346.54 1597.73C1376.97 1529.27 1416.27 1481.72 1432.12 1466.51C1436.61 1460.23 1450.15 1446.57 1463.75 1433.43C1480.29 1417.46 1494.07 1398.45 1499.7 1376.17C1511.79 1328.3 1510.92 1284.43 1506.29 1278.24C1495.18 1263.44 1483.47 1292.19 1473.96 1310.57C1458.74 1175.55 1415.01 1211.68 1405.5 1223.1C1399.82 1229.91 1390.92 1250.35 1386.48 1268.74C1388.38 1263.03 1391.04 1244.01 1386.48 1213.59C1380.77 1175.55 1362.61 1211.89 1361.76 1213.59C1344.64 1247.82 1348.02 1256.69 1340.2 1278.24Z" stroke="#1A4CFF" stroke-width="10" stroke-linecap="round" stroke-linejoin="round"/>
<path d="M198.107 1772.4C293.091 1172.87 369.085 1211.17 422.292 1218.46C468.566 1224.8 540.577 1276.26 458.424 1416.23C376.625 1555.59 310.663 1745.48 293.201 1816.57C293.046 1817.2 293.03 1817.82 293.124 1818.47C314.82 1967.73 111.804 2098.24 42.7331 2232.43C42.2212 2233.42 41.4013 2234.18 40.4529 2234.77C18.9262 2248.23 9.76239 2329 7.78149 2369.69C7.74298 2370.48 7.52585 2371.23 7.11945 2371.91C1.71967 2380.94 -10.1149 2395.74 -18.8976 2389.89C-27.9331 2383.86 -22.807 2348.77 -19.0134 2331.46C-18.9353 2331.1 -18.8965 2330.73 -18.9016 2330.36C-19.5732 2282.75 -104.314 2310.42 -147.482 2330.59C-147.976 2330.82 -148.509 2330.97 -149.051 2331.03C-258.518 2343.37 -285.354 2319.67 -285.666 2302.97C-285.713 2300.45 -283.293 2298.88 -280.776 2299.02C-223.379 2302.12 -84.9483 2225.66 -20.1525 2185.29C-19.3116 2184.77 -18.6721 2184 -18.2661 2183.1C94.3284 1932.57 171.625 1807.32 197.121 1774.72C197.653 1774.04 197.972 1773.25 198.107 1772.4Z" fill="#E1F0FF" stroke="#054AEA" stroke-width="10" stroke-linecap="round"/>
<path d="M692.586 1160.17C564.237 1160.17 572.097 1146.22 592.071 1139.25V1131.64C583.695 1131.64 565.783 1135.44 561.144 1150.66V1207.71L371.713 1211.51L421.971 1662.21L445.166 1763L301.602 2026.9C299.596 2030.58 300.107 2035.13 302.883 2038.28L347.729 2089.19C348.215 2089.74 348.359 2090.52 348.104 2091.21L333.054 2131.93C454.831 2190.24 784.631 2271.89 1064.52 2131.93L1045.81 2077.65C1045.62 2077.1 1045.68 2076.49 1045.98 2075.98L1068.91 2037.31C1070.51 2034.62 1070.75 2031.33 1069.57 2028.44L961.268 1763L1009.59 1224.82L827.894 1200.1V1152.83C827.894 1151.38 827.846 1149.92 827.282 1148.59C825.213 1143.71 817.911 1135.89 799.927 1131.86C799.251 1131.71 798.55 1131.64 797.856 1131.64H796.387L796.387 1143.93L801.162 1144.41C804.742 1144.77 808.233 1145.97 811.382 1147.71C821.461 1153.28 829.135 1160.17 692.586 1160.17Z" fill="#F3FFC6" stroke="#054AEA" stroke-width="10" stroke-linecap="round"/>
<path d="M183.035 1711.65C227.879 1329.8 322.853 1219.12 364.733 1211.51C409.836 1215.95 495.015 1339.69 436.253 1631.78L376.331 1840.97L335.739 2112.91L281.616 2207.99L92.1852 2238.42L72.8555 2268.85C72.2112 2270.89 68.2164 2275.68 57.3917 2278.53C46.5671 2281.38 28.3972 2273.26 20.6654 2268.85L24.5313 2257.44C37.4178 2262.51 52.366 2265.42 47.7269 2244.13C43.0878 2222.83 -12.8394 2202.92 -45.0555 2194.68L-29.5917 2173.76C-45.0554 2150.94 -72.1169 2095.03 -56.6532 2053.96C-41.1895 2012.88 109.582 1808.64 183.035 1711.65Z" fill="#F3FFC6"/>
<path d="M231.589 2145.24L90.8643 2228.91L284.836 2196.58L336.181 2103.4L376.116 1835.26L442.675 1607.06L455.987 1485.35V1378.86L433.167 1359.84L425.56 1365.55L429.363 1405.48V1508.17L351.395 1810.54L231.589 2145.24Z" fill="#D5FB4C"/>
<path d="M420.038 1264.76C395.296 1208.47 365.915 1209.61 354.318 1217.22C244.525 1299.37 196.96 1578.54 186.901 1707.85C113.448 1804.84 -37.3233 2009.08 -52.787 2050.15C-68.2507 2091.23 -41.1892 2147.14 -25.7255 2169.96L-41.1893 2190.88C-8.97317 2199.12 46.954 2219.02 51.5931 2240.32C56.2322 2261.62 41.284 2258.7 28.3975 2253.63L24.5316 2265.04C32.2634 2269.46 50.4333 2277.58 61.2579 2274.72C72.0826 2271.87 76.0774 2267.08 76.7217 2265.04L96.0513 2234.62L285.482 2204.19L339.605 2109.1L380.197 1837.16L440.119 1627.98C452.755 1560.15 472.229 1415.37 449.033 1378.86C425.837 1342.35 426.482 1378.86 429.703 1401.68C432.925 1413.09 437.435 1452.64 429.703 1519.58" stroke="#054AEA" stroke-width="10" stroke-linecap="round"/>
<path d="M1347.87 1470.14C1261.16 1442.76 1280.05 1434.64 1300.33 1434.01C1300.33 1417.27 1278.78 1421.97 1268 1426.4L1250.89 1470.14H1198.85C1190.19 1470.14 1182.51 1475.71 1179.83 1483.94L1145.89 1588.05L1131.08 1451.12C1105.22 1222.92 1039.17 1208.98 1009.38 1230.53C908.586 1318.01 935.843 1612.13 971.341 1688.83L1113.97 1918.94L1191.94 1926.54L1481.17 1744.64C1488.9 1739.77 1492.36 1730.3 1489.57 1721.6L1431.55 1540.5L1456.27 1504.37C1471.48 1487.64 1452.47 1466.97 1441.06 1458.73L1431.55 1470.14C1466.54 1503.61 1390.35 1484.09 1347.87 1470.14Z" fill="#F3FFC6"/>
<path d="M959.932 1658.41L1117.14 1918.57L1195.11 1926.18L1484.35 1744.27C1492.07 1739.41 1495.53 1729.93 1492.74 1721.24L1435.02 1541.07C1434.83 1540.48 1434.93 1539.84 1435.28 1539.33L1459.44 1504.01C1474.66 1487.27 1455.64 1466.61 1444.23 1458.37L1434.72 1469.78C1469.71 1503.24 1393.52 1483.72 1351.05 1469.78C1264.33 1442.39 1283.22 1434.28 1303.51 1433.64C1303.51 1416.91 1281.95 1421.6 1271.18 1426.04L1254.56 1468.5C1254.26 1469.27 1253.52 1469.78 1252.7 1469.78H1202.02C1193.36 1469.78 1185.69 1475.34 1183 1483.58L1149.06 1587.68M1149.06 1587.68L1134.26 1450.76C1112.02 1327.9 1048.94 1122.89 974.515 1285.68C961.256 1323.08 936.638 1413.47 944.245 1475.84C951.852 1538.22 965.163 1434.64 970.868 1375.06M1149.06 1587.68L1113.49 1673.62" stroke="#1A4CFF" stroke-width="10" stroke-linecap="round"/>
</g>
<defs>
<linearGradient id="paint0_linear_3343_5453" x1="170.031" y1="-500" x2="170.031" y2="220.145" gradientUnits="userSpaceOnUse">
<stop stop-color="#BDA5F6"/>
<stop offset="1" stop-color="#054AEA"/>
</linearGradient>
<linearGradient id="paint1_linear_3343_5453" x1="1174.12" y1="-500" x2="1174.12" y2="220.145" gradientUnits="userSpaceOnUse">
<stop stop-color="#BDA5F6"/>
<stop offset="1" stop-color="#054AEA"/>
</linearGradient>
<clipPath id="clip0_3343_5453">
<rect width="1479" height="1436" fill="white"/>
</clipPath>
</defs>
</svg>
