<svg width="1479" height="1436" viewBox="0 0 1479 1436" fill="none" xmlns="http://www.w3.org/2000/svg" xmlns:xlink="http://www.w3.org/1999/xlink">
<path d="M295.067 439.646C350.712 210.491 571.183 210.111 674.464 238.566C993.156 163.193 1132.9 366.296 1140.49 487.071C1211.31 481.38 1261.56 529.007 1263.79 582.552C1268.22 688.783 1184.75 682.881 1161.99 688.783C1190.44 705.855 1182.22 758.339 1132.9 772.25C1091.9 783.813 1070.72 760.868 1058.29 738.104C1036.37 741.477 922.715 772.123 706.712 776.676C490.709 781.229 377.691 735.153 348.183 711.547C342.281 727.144 319.602 754.292 276.098 738.104C232.594 721.917 242.374 676.136 252.702 655.269C223.825 655.691 152.794 638.173 152.794 561.053C152.794 485.173 243.217 448.288 295.067 439.646Z" fill="#88A2FF" stroke="#054AEA" stroke-width="8" stroke-linecap="round"/>
<path d="M1088.72 742.531C1129.19 748.096 1146.48 727.988 1150.06 717.238C1163.32 680.837 1149.77 651.366 1126.66 629.005C1101.28 604.444 1064.37 588.459 1038.77 581.288C1035.61 599.626 1022.96 630.399 1015.37 643.256C1031.05 664.502 1039.61 703.959 1041.93 721.032L1052.05 712.18C1060.14 733.426 1079.87 741.267 1088.72 742.531Z" fill="#88A2FF"/>
<path d="M1126.66 629.005C1101.28 604.444 1064.37 588.459 1038.77 581.288C1035.61 599.626 1022.96 630.399 1015.37 643.256C1031.05 664.502 1039.61 703.959 1041.93 721.032L1052.05 712.18C1060.14 733.426 1079.87 741.267 1088.72 742.531C1129.19 748.096 1146.48 727.988 1150.06 717.238C1163.32 680.837 1149.77 651.366 1126.66 629.005ZM1126.66 629.005C1138.68 652.514 1154.36 703.833 1120.97 721.032C1087.58 738.232 1062.38 713.444 1053.95 698.901" stroke="#1A4CFF" stroke-width="8" stroke-linecap="round"/>
<path d="M1036.24 592.67C1067.01 602.576 1126.92 632.254 1120.34 671.711" stroke="#1A4CFF" stroke-width="8" stroke-linecap="round"/>
<path d="M1066.59 533.23C1055.79 511.181 1052.13 465.647 1051.45 439.093C1051.32 433.999 1047.5 429.735 1042.43 429.173L1039.95 428.896C1046.52 445.084 1045.09 504.565 1043.83 533.23C1052.43 565.605 1085.35 583.816 1100.74 588.875C1154.86 603.039 1179.78 582.973 1185.47 571.17C1131.72 589.507 1081.77 564.214 1066.59 533.23Z" fill="#88A2FF" stroke="#1A4CFF" stroke-width="8" stroke-linecap="round"/>
<path d="M793.427 250.581C864.669 256.272 1021.57 302.811 1079.24 443.441C1130.04 460.514 1225.56 512.491 1201.28 583.817C1197.48 601.522 1177.25 635.036 1126.66 627.448" stroke="#88A2FF" stroke-width="8" stroke-linecap="round"/>
<path d="M311.798 742.531C271.329 748.096 254.045 727.988 250.462 717.238C237.203 680.837 250.75 651.366 273.858 629.005C299.239 604.444 336.155 588.459 361.751 581.288C364.913 599.626 377.56 630.399 385.147 643.256C369.466 664.502 360.908 703.959 358.59 721.032L348.472 712.18C340.379 733.426 320.65 741.267 311.798 742.531Z" fill="#88A2FF"/>
<path d="M273.858 629.005C299.239 604.444 336.155 588.459 361.751 581.288C364.913 599.626 377.56 630.399 385.147 643.256C369.466 664.502 360.908 703.959 358.59 721.032L348.472 712.18C340.379 733.426 320.65 741.267 311.798 742.531C271.329 748.096 254.045 727.988 250.462 717.238C237.203 680.837 250.75 651.366 273.858 629.005ZM273.858 629.005C261.844 652.514 246.162 703.833 279.549 721.032C312.936 738.232 338.144 713.444 346.575 698.901" stroke="#1A4CFF" stroke-width="8" stroke-linecap="round"/>
<path d="M364.28 592.67C333.507 602.576 273.605 632.254 280.181 671.711" stroke="#1A4CFF" stroke-width="8" stroke-linecap="round"/>
<path d="M333.928 533.231C346.069 508.444 349.104 452.715 349.104 428.897L361.118 427C354.542 443.188 355.427 504.565 356.692 533.231C348.092 565.606 315.169 583.817 299.783 588.876C245.656 603.04 220.742 582.974 215.051 571.17C268.799 589.508 318.753 564.215 333.928 533.231Z" fill="#88A2FF"/>
<path d="M296.621 432.059C131.71 434.082 138.329 530.28 160.671 577.494C128.802 464.687 236.761 438.382 295.356 439.647L296.621 432.059Z" fill="#88A2FF"/>
<path d="M333.928 533.231C346.069 508.444 349.104 452.715 349.104 428.897L361.118 427C354.542 443.188 355.427 504.565 356.692 533.231C348.092 565.606 315.169 583.817 299.783 588.876C245.656 603.04 220.742 582.974 215.051 571.17C268.799 589.508 318.753 564.215 333.928 533.231Z" stroke="#1A4CFF" stroke-width="8" stroke-linecap="round"/>
<path d="M296.621 432.059C131.71 434.082 138.329 530.28 160.671 577.494C128.802 464.687 236.761 438.382 295.356 439.647L296.621 432.059Z" stroke="#1A4CFF" stroke-width="8" stroke-linecap="round"/>
<path d="M607.094 250.581C535.852 256.272 378.951 302.811 321.282 443.441C270.485 460.514 174.962 512.491 199.243 583.817C203.037 601.522 223.272 635.036 273.858 627.448" stroke="#88A2FF" stroke-width="8" stroke-linecap="round"/>
<path d="M857.336 312.393C932.847 402.22 1020.24 401.417 1054.49 389.787C994.619 433.431 881.235 375.149 833.81 348.591C751.461 302.476 723.785 267.021 739.489 254.03C773.228 226.12 836.112 287.441 857.336 312.393Z" fill="#88A2FF" stroke="#88A2FF" stroke-width="8" stroke-linecap="round"/>
<path d="M522.399 1260.65V1147.16C522.399 1144.4 524.637 1142.16 527.399 1142.16H679.15C681.911 1142.16 684.15 1144.4 684.15 1147.16V1360.98C684.15 1363.74 681.911 1365.98 679.15 1365.98H470.945C469.051 1365.98 467.296 1364.92 466.665 1363.13C464.493 1356.98 462.761 1346.07 467.854 1335.89C473.312 1324.97 500.833 1320.45 517.603 1319.23C520.28 1319.04 522.399 1316.84 522.399 1314.16V1260.65Z" fill="url(#paint0_linear_3343_4386)" stroke="#054AEA" stroke-width="8" stroke-linecap="round"/>
<path d="M493.619 1333.12C483.08 1333.97 463.141 1341.09 467.693 1362.84" stroke="#054AEA" stroke-width="8" stroke-linecap="round"/>
<path d="M884.272 1260.65V1147.16C884.272 1144.4 882.034 1142.16 879.272 1142.16H727.521C724.76 1142.16 722.521 1144.4 722.521 1147.16V1360.98C722.521 1363.74 724.76 1365.98 727.521 1365.98H935.726C937.62 1365.98 939.375 1364.92 940.006 1363.13C942.178 1356.98 943.91 1346.07 938.816 1335.89C933.359 1324.97 905.837 1320.45 889.068 1319.23C886.391 1319.04 884.272 1316.84 884.272 1314.16V1260.65Z" fill="url(#paint1_linear_3343_4386)" stroke="#054AEA" stroke-width="8" stroke-linecap="round"/>
<path d="M913.052 1333.12C923.591 1333.97 943.53 1341.09 938.978 1362.84" stroke="#054AEA" stroke-width="8" stroke-linecap="round"/>
<path opacity="0.3" d="M522.705 1249.03V1195.28H683.948V1249.03C620.21 1259.14 549.895 1253.24 522.705 1249.03Z" fill="#001970"/>
<path opacity="0.3" d="M884.396 1249.03V1195.28H723.153V1249.03C786.892 1259.14 857.206 1253.24 884.396 1249.03Z" fill="#001970"/>
<rect x="358.507" y="527.746" width="683.765" height="704" rx="174" fill="url(#paint2_linear_3343_4386)" stroke="#054AEA" stroke-width="8" stroke-linecap="round"/>
<path opacity="0.3" d="M565.072 783C453.782 778.953 380.994 682.038 363.5 645.153C365.186 640.516 365.436 639.076 371 632.5C408.94 708.379 518.49 751.805 561.278 757.707H823.061C864.541 755.177 898.518 742.742 910.322 736.84C877.947 768.709 820.953 780.892 796.503 783H565.072Z" fill="#001970"/>
<path d="M553.242 245.729H845.008C953.256 245.729 1041.01 333.481 1041.01 441.729V557.707C1041.01 665.955 953.256 753.707 845.008 753.707H553.242C444.994 753.707 357.242 665.955 357.242 557.707V441.729C357.242 333.481 444.994 245.729 553.242 245.729Z" fill="url(#paint3_radial_3343_4386)" stroke="#054AEA" stroke-width="8" stroke-linecap="round"/>
<path d="M513.852 514.893L295.067 463.675" stroke="#054AEA" stroke-width="8" stroke-linecap="round"/>
<path d="M513.852 571.803L295.067 623.021" stroke="#054AEA" stroke-width="8" stroke-linecap="round"/>
<path d="M512.588 541.451L295.067 538.922" stroke="#054AEA" stroke-width="8" stroke-linecap="round"/>
<path d="M893.249 515.526L1112.03 464.308" stroke="#054AEA" stroke-width="8" stroke-linecap="round"/>
<path d="M893.249 572.435L1112.03 623.653" stroke="#054AEA" stroke-width="8" stroke-linecap="round"/>
<path d="M894.514 542.083L1112.03 539.554" stroke="#054AEA" stroke-width="8" stroke-linecap="round"/>
<path d="M442.787 287.888C437.005 260.572 438.88 190.666 488.773 119.816C493.388 113.262 502.595 112.393 508.285 117.94C522.72 122.386 542.676 139.77 613.515 242.993H586.325C568.62 241.939 532.19 246.787 505 255.639C493.618 260.276 459.48 274.736 442.787 287.888Z" fill="#E3FC87"/>
<path d="M586.325 242.993C571.531 192.082 533.218 143.761 508.574 118.231C502.912 112.365 493.467 113.15 488.773 119.816C438.88 190.666 437.005 260.572 442.787 287.888C459.48 274.736 493.618 260.276 505 255.639C532.19 246.787 568.62 241.939 586.325 242.993ZM586.325 242.993H613.515C524.99 113.998 515.926 119.057 497.799 115.895" stroke="#054AEA" stroke-width="8" stroke-linecap="round"/>
<path d="M953.953 287.888C959.735 260.572 957.86 190.666 907.967 119.816C903.352 113.262 894.145 112.393 888.455 117.94C874.021 122.386 854.064 139.77 783.225 242.993H810.415C828.12 241.939 864.55 246.787 891.74 255.639C903.122 260.276 937.26 274.736 953.953 287.888Z" fill="#E3FC87"/>
<path d="M810.415 242.993C825.209 192.082 863.522 143.761 888.166 118.231C893.829 112.365 903.273 113.15 907.967 119.816C957.86 190.666 959.735 260.572 953.953 287.888C937.26 274.736 903.122 260.276 891.74 255.639C864.55 246.787 828.12 241.939 810.415 242.993ZM810.415 242.993H783.225C871.751 113.998 880.814 119.057 898.941 115.895" stroke="#054AEA" stroke-width="8" stroke-linecap="round"/>
<path d="M1322.5 1116.98C1223.06 1232.43 1050.83 1203.2 976.592 1173.98C976.248 1173.84 975.966 1173.62 975.745 1173.33L975.292 1172.72C974.668 1171.89 974.787 1170.72 975.558 1170.02C997.122 1150.44 1013.08 1124.87 1018.45 1114.34C1036.15 1082.98 1042.27 1038.88 1043.11 1020.76V984.758C1043.11 983.371 1044.95 982.879 1045.64 984.08C1094.71 1076.65 1232.18 1085.46 1294.78 1078.3C1337.14 1077.29 1331.07 1103.43 1322.67 1116.75C1322.62 1116.83 1322.57 1116.91 1322.5 1116.98Z" fill="url(#paint4_linear_3343_4386)" stroke="#054AEA" stroke-width="8" stroke-linecap="round"/>
<path d="M732.022 246.615C706.764 282.855 682.789 261.934 673.539 246.304C673.313 245.922 673.232 245.482 673.294 245.043L694.04 96.0458C694.057 95.9214 694.085 95.8012 694.126 95.6823C700.512 76.9594 716.147 51.0431 728.166 95.6906C728.195 95.7977 728.217 95.9143 728.228 96.0246L731.994 135.304C732.184 137.286 734.891 137.834 735.887 136.11C746.803 117.226 765.008 94.6631 770.537 122.215C770.563 122.342 770.578 122.482 770.578 122.611V186.362C770.578 188.411 773.37 189.182 774.481 187.46C783.112 174.091 795.238 160.369 795.238 181.223V225.687C795.238 225.971 795.178 226.252 795.061 226.51L786.917 244.543C786.594 245.26 785.88 245.72 785.094 245.72H733.697C733.034 245.72 732.401 246.071 732.022 246.615Z" fill="#88A2FF" stroke="#054AEA" stroke-width="8" stroke-linecap="round"/>
<path d="M1155 1031.25C1144.3 1015.1 1139.95 1044.16 1139.11 1060.71C1151.17 1066.16 1183.51 1072.8 1198.18 1075.44L1204.91 1058.16C1212.85 1033.6 1195.71 1043.48 1186.14 1051.49C1190.34 991.569 1170.45 1022.27 1159.98 1045.11L1155 1031.25Z" fill="#88A2FF" stroke="#054AEA" stroke-width="8" stroke-linecap="round"/>
<path d="M1243.53 1045.99C1229.14 1033.02 1232.19 1062.25 1235.51 1078.48C1248.54 1080.75 1281.52 1079.1 1296.38 1077.99L1298.59 1059.58C1300.14 1033.81 1286.01 1047.66 1278.75 1057.81C1267.84 998.733 1256.25 1033.43 1251.82 1058.16L1243.53 1045.99Z" fill="#88A2FF" stroke="#054AEA" stroke-width="8" stroke-linecap="round"/>
<path d="M1044.38 908.834V983.448C1061.07 1010.76 1081.68 1028.13 1089.9 1033.4L1105.71 1014.43C1132.52 976.493 1106.34 983.448 1089.9 991.668L1092.43 980.287C1108.11 925.148 1078.85 945.509 1062.26 962.581V939.818C1062.26 909.466 1050.34 906.515 1044.38 908.834Z" fill="#88A2FF" stroke="#054AEA" stroke-width="8" stroke-linecap="round"/>
<path d="M596.687 575.596C570.519 563.357 566.889 547.918 568.975 538.61C569.712 535.32 570.931 532.109 572.065 528.934C578.32 511.412 598.175 510.424 608.069 512.364C688.169 529.528 770.066 518.456 806.747 509.538C810.859 508.539 815.159 508.13 819.14 509.564C827.693 512.645 838.539 519.921 840.133 533.863C842.156 551.568 827.486 565.268 819.898 569.906C764.886 605.948 635.891 593.934 596.687 575.596Z" fill="#D6DFFF" stroke="#054AEA" stroke-width="8" stroke-linecap="round"/>
<path d="M695.23 482.535L713.136 482.535L704.184 498.042L695.23 482.535Z" fill="#88A2FF" stroke="#1A4CFF" stroke-width="8" stroke-linecap="round"/>
<path d="M594.791 540.187C632.366 553.547 729.234 572.252 816.105 540.187" stroke="#054AEA" stroke-width="8" stroke-linecap="round"/>
<path d="M704.815 499.718V520.585" stroke="#054AEA" stroke-width="8" stroke-linecap="round"/>
<path d="M530.164 474.425C542.076 478.186 565.524 496.242 564.019 538.373C562.514 580.504 530.791 594.798 515.117 596.679" stroke="#054AEA" stroke-width="8" stroke-linecap="round"/>
<path d="M876.587 474.425C864.675 478.186 841.227 496.242 842.732 538.373C844.237 580.504 875.96 594.798 891.634 596.679" stroke="#054AEA" stroke-width="8" stroke-linecap="round"/>
<path d="M397.051 1056.96L395.028 1073.14" stroke="#E3FC87" stroke-width="8" stroke-linecap="round"/>
<path d="M345.822 429.53C551.593 399.178 673.418 313.603 708.609 274.61V248.684C654.436 231.611 519.986 214.665 415.564 283.462C311.143 352.259 325.561 409.506 345.822 429.53Z" fill="#88A2FF"/>
<path d="M707.329 274.609C672.138 313.603 550.313 399.178 344.542 429.529" stroke="#054AEA" stroke-width="8" stroke-linecap="round"/>
<path d="M434.812 274.61C460.378 258.477 533.097 228.015 619.452 235.227" stroke="#054AEA" stroke-width="8" stroke-linecap="round"/>
<path d="M1040.56 429.53C850.127 399.178 737.383 313.603 704.815 274.61V248.684C754.95 231.611 879.379 214.665 976.017 283.462C1072.65 352.259 1059.31 409.506 1040.56 429.53Z" fill="#88A2FF"/>
<path d="M706.001 274.609C738.569 313.603 851.313 399.178 1041.75 429.529" stroke="#054AEA" stroke-width="8" stroke-linecap="round"/>
<path d="M962.173 274.61C938.008 258.477 869.273 228.015 787.651 235.227" stroke="#054AEA" stroke-width="8" stroke-linecap="round"/>
<path d="M668.141 237.302L705.448 248.684C724.207 244.89 766.91 237.049 787.65 236.037" stroke="#054AEA" stroke-width="8" stroke-linecap="round"/>
<circle cx="664.145" cy="444.023" r="26.3023" fill="#FAFAFA" stroke="#054AEA" stroke-width="8" stroke-linecap="round"/>
<circle cx="662.98" cy="442.858" r="8.82022" fill="black" stroke="#054AEA" stroke-width="8" stroke-linecap="round"/>
<path d="M644.726 422.395L636.339 409.927" stroke="#054AEA" stroke-width="8" stroke-linecap="round"/>
<path d="M640.67 426.527L628.418 418.018" stroke="#054AEA" stroke-width="8" stroke-linecap="round"/>
<path d="M636.495 432.049L622.613 426.753" stroke="#054AEA" stroke-width="8" stroke-linecap="round"/>
<circle cx="30.3023" cy="30.3023" r="26.3023" transform="matrix(-1 0 0 1 775.788 413.721)" fill="#FAFAFA" stroke="#054AEA" stroke-width="8" stroke-linecap="round"/>
<circle cx="12.8202" cy="12.8202" r="8.82022" transform="matrix(-1 0 0 1 759.471 430.038)" fill="black" stroke="#054AEA" stroke-width="8" stroke-linecap="round"/>
<path d="M764.905 422.395L773.292 409.927" stroke="#054AEA" stroke-width="8" stroke-linecap="round"/>
<path d="M768.962 426.527L781.214 418.018" stroke="#054AEA" stroke-width="8" stroke-linecap="round"/>
<path d="M773.136 432.049L787.018 426.753" stroke="#054AEA" stroke-width="8" stroke-linecap="round"/>
<path d="M1139.22 474.425C1304.13 476.448 1297.52 572.646 1275.17 619.86C1307.04 507.053 1199.72 482.013 1141.12 483.277L1139.22 474.425Z" fill="#88A2FF" stroke="#1A4CFF" stroke-width="8" stroke-linecap="round"/>
<path d="M371.641 1229.5C345.67 1162.08 346.959 947.831 351.153 839.202C351.335 834.47 356.896 830.708 361.573 831.446C367.719 832.417 374.956 833.025 379.281 833.272H516.386C532.816 833.272 546.136 819.953 546.136 803.522V754.475C546.136 756.372 549.598 756.372 552.997 756.372H553C556.4 756.372 558.45 755.107 558.45 756.372V803.522C558.45 819.844 571.681 833.272 588.003 833.272H805.075C821.643 833.272 835.075 819.841 835.075 803.272V756H845.824V803.272C845.824 819.841 859.256 833.272 875.824 833.272H982.16L1036.98 833.272C1040.39 833.272 1043.19 835.946 1043.29 839.362C1046.75 962.171 1042.71 1137.64 1034.54 1228.43C1034.44 1229.58 1034.04 1230.65 1033.29 1231.53C1020.48 1246.64 995.773 1239.6 981.481 1232.49C978.877 1231.2 975.714 1231.65 973.514 1233.56C951.467 1252.6 926.084 1243.44 912.279 1233.82C909.518 1231.9 905.73 1232.08 903.139 1234.23C880.335 1253.14 853.218 1243.28 838.679 1233.42C836.073 1231.66 832.557 1231.76 830.101 1233.73C800.566 1257.4 772.183 1246.46 757.514 1234.79C754.605 1232.47 750.296 1232.61 747.604 1235.17C723.282 1258.35 698.363 1247.67 684.667 1235.71C681.626 1233.05 676.829 1233.23 674.079 1236.19C649.706 1262.39 623.254 1249.62 608.76 1235.89C605.826 1233.11 601.023 1233.19 598.255 1236.14C572.708 1263.31 548.78 1250.86 535.968 1236.81C533.118 1233.68 528.01 1233.44 525.025 1236.44C495.142 1266.44 466.327 1251.21 451.652 1235.67C449.025 1232.89 444.561 1232.55 441.629 1235.01C408.639 1262.65 382.197 1244.5 372.307 1230.73C372.024 1230.34 371.815 1229.95 371.641 1229.5Z" fill="#FCDDEC" stroke="#054AEA" stroke-width="8" stroke-linecap="round"/>
<path d="M371.641 1228.94C345.67 1161.52 346.959 947.27 351.153 838.64C351.335 833.909 356.896 830.147 361.573 830.885C367.719 831.855 374.956 832.463 379.281 832.71H516.386C532.816 832.71 546.136 819.391 546.136 802.961V755.81C546.136 757.5 550.6 761.5 554 761.5C557.4 761.5 558.45 754.545 558.45 755.81V802.961C558.45 819.283 571.681 832.71 588.003 832.71H805.075C821.643 832.71 835.075 819.279 835.075 802.71V756L845.824 757V802.71C845.824 819.279 859.256 832.71 875.824 832.71H982.16L1036.98 832.71C1040.39 832.71 1043.19 835.385 1043.29 838.8C1046.75 961.61 1042.71 1137.07 1034.54 1227.87C1034.44 1229.02 1034.04 1230.09 1033.29 1230.97C1020.48 1246.08 995.773 1239.03 981.481 1231.93C978.877 1230.63 975.714 1231.09 973.514 1232.99C951.467 1252.04 926.084 1242.88 912.279 1233.26C909.518 1231.34 905.73 1231.52 903.139 1233.67C880.335 1252.58 853.218 1242.72 838.679 1232.86C836.073 1231.1 832.557 1231.2 830.101 1233.17C800.566 1256.84 772.183 1245.89 757.514 1234.22C754.605 1231.91 750.296 1232.04 747.604 1234.61C723.282 1257.78 698.363 1247.11 684.667 1235.15C681.626 1232.49 676.829 1232.67 674.079 1235.63C649.706 1261.83 623.254 1249.06 608.76 1235.33C605.826 1232.55 601.023 1232.63 598.255 1235.57C572.708 1262.75 548.78 1250.3 535.968 1236.25C533.118 1233.12 528.01 1232.88 525.025 1235.88C495.142 1265.88 466.327 1250.65 451.652 1235.11C449.025 1232.33 444.561 1231.99 441.629 1234.45C408.639 1262.09 382.197 1243.94 372.307 1230.17C372.024 1229.78 371.815 1229.39 371.641 1228.94Z" fill="url(#pattern0_3343_4386)"/>
<path d="M381.064 1076.9V813.759C381.064 798.189 398.192 757.707 444.902 757.707C492.643 757.707 517.044 794.037 519.639 813.759V863.584V1062.41C519.639 1073.9 516.353 1085.15 510.169 1094.84C509.813 1095.4 509.008 1095.42 508.623 1094.88L493.461 1073.76C492.632 1072.61 490.895 1072.66 490.141 1073.87L467.363 1110.32C466.829 1111.17 465.743 1111.5 464.879 1110.98C459.042 1107.49 451.063 1098.9 446.474 1093.47C445.653 1092.5 444.148 1092.51 443.347 1093.49L429.344 1110.76C428.828 1111.39 427.972 1111.66 427.219 1111.34C420.138 1108.3 413.08 1098.65 409.672 1092.94C409.297 1092.31 408.394 1092.26 407.966 1092.86L395.338 1110.43C394.765 1111.22 393.688 1111.5 392.88 1110.94C383.938 1104.75 381.265 1085.95 381.064 1076.9Z" fill="url(#paint5_linear_3343_4386)" stroke="#054AEA" stroke-width="8" stroke-linecap="round"/>
<path d="M398.859 1091.91C395.749 1089.96 391.055 1090.35 387.906 1091.08C386.888 1091.31 386.313 1092.36 386.632 1093.36C387.842 1097.13 389.773 1100.63 391.344 1103.05C392.121 1104.24 393.835 1104.11 394.522 1102.86L399.31 1094.16C399.739 1093.38 399.614 1092.38 398.859 1091.91Z" fill="#A5A6F6"/>
<path d="M434.783 1092.76C430.477 1091.08 424.159 1091.48 419.973 1092.16C418.782 1092.35 418.108 1093.59 418.645 1094.67C420.542 1098.49 423.549 1101.96 425.719 1104.1C426.52 1104.89 427.806 1104.77 428.513 1103.89L435.342 1095.45C436.078 1094.54 435.873 1093.19 434.783 1092.76Z" fill="#A5A6F6"/>
<path d="M471.458 1091.5C467.152 1089.82 460.834 1090.22 456.648 1090.89C455.456 1091.09 454.782 1092.33 455.32 1093.41C457.217 1097.22 460.224 1100.7 462.394 1102.83C463.195 1103.62 464.481 1103.5 465.188 1102.63L472.017 1094.18C472.753 1093.27 472.548 1091.93 471.458 1091.5Z" fill="#A5A6F6"/>
<path d="M512.139 1071.73L503.083 1072.91C501.802 1073.08 501.013 1074.39 501.495 1075.59C504.025 1081.88 508.088 1090.65 509.427 1088.41C510.676 1086.33 512.866 1079.26 514.308 1074.23C514.701 1072.86 513.555 1071.54 512.139 1071.73Z" fill="#A5A6F6"/>
<path d="M1016.65 1076.9V813.759C1016.65 798.189 999.52 757.707 952.81 757.707C905.069 757.707 880.668 794.037 878.073 813.759V863.584V1062.41C878.073 1073.9 881.359 1085.15 887.543 1094.84C887.899 1095.4 888.704 1095.42 889.089 1094.88L904.251 1073.76C905.08 1072.61 906.817 1072.66 907.571 1073.87L930.349 1110.32C930.883 1111.17 931.969 1111.5 932.833 1110.98C938.669 1107.49 946.649 1098.9 951.238 1093.47C952.059 1092.5 953.564 1092.51 954.365 1093.49L968.368 1110.76C968.884 1111.39 969.74 1111.66 970.492 1111.34C977.574 1108.3 984.632 1098.65 988.04 1092.94C988.415 1092.31 989.317 1092.26 989.745 1092.86L1002.37 1110.43C1002.95 1111.22 1004.02 1111.5 1004.83 1110.94C1013.77 1104.75 1016.45 1085.95 1016.65 1076.9Z" fill="url(#paint6_linear_3343_4386)" stroke="#054AEA" stroke-width="8" stroke-linecap="round"/>
<path d="M998.853 1091.91C1001.96 1089.96 1006.66 1090.35 1009.81 1091.08C1010.82 1091.31 1011.4 1092.36 1011.08 1093.36C1009.87 1097.13 1007.94 1100.63 1006.37 1103.05C1005.59 1104.24 1003.88 1104.11 1003.19 1102.86L998.401 1094.16C997.973 1093.38 998.098 1092.38 998.853 1091.91Z" fill="#A5A6F6"/>
<path d="M962.929 1092.76C967.234 1091.08 973.553 1091.48 977.739 1092.16C978.93 1092.35 979.604 1093.59 979.066 1094.67C977.17 1098.49 974.163 1101.96 971.993 1104.1C971.192 1104.89 969.906 1104.77 969.199 1103.89L962.369 1095.45C961.634 1094.54 961.839 1093.19 962.929 1092.76Z" fill="#A5A6F6"/>
<path d="M926.254 1091.5C930.56 1089.82 936.878 1090.22 941.064 1090.89C942.256 1091.09 942.929 1092.33 942.392 1093.41C940.495 1097.22 937.488 1100.7 935.318 1102.83C934.517 1103.62 933.231 1103.5 932.524 1102.63L925.695 1094.18C924.959 1093.27 925.164 1091.93 926.254 1091.5Z" fill="#A5A6F6"/>
<path d="M885.573 1071.73L894.629 1072.91C895.909 1073.08 896.699 1074.39 896.217 1075.59C893.687 1081.88 889.624 1090.65 888.285 1088.41C887.036 1086.33 884.846 1079.26 883.404 1074.23C883.01 1072.86 884.157 1071.54 885.573 1071.73Z" fill="#A5A6F6"/>
<defs>
<linearGradient id="paint0_linear_3343_4386" x1="574.341" y1="1142.16" x2="574.341" y2="1365.98" gradientUnits="userSpaceOnUse">
<stop offset="0.456731" stop-color="white"/>
<stop offset="1" stop-color="#E3FC87"/>
</linearGradient>
<linearGradient id="paint1_linear_3343_4386" x1="832.33" y1="1142.16" x2="832.33" y2="1365.98" gradientUnits="userSpaceOnUse">
<stop offset="0.456731" stop-color="white"/>
<stop offset="1" stop-color="#E3FC87"/>
</linearGradient>
<linearGradient id="paint2_linear_3343_4386" x1="700.39" y1="523.746" x2="700.39" y2="1235.75" gradientUnits="userSpaceOnUse">
<stop offset="0.625" stop-color="white"/>
<stop offset="1" stop-color="#E3FC87"/>
</linearGradient>
<radialGradient id="paint3_radial_3343_4386" cx="0" cy="0" r="1" gradientUnits="userSpaceOnUse" gradientTransform="translate(699.125 499.718) rotate(90) scale(257.989 345.883)">
<stop offset="0.379808" stop-color="#E3FC87"/>
<stop offset="1" stop-color="white"/>
</radialGradient>
<linearGradient id="paint4_linear_3343_4386" x1="1151.45" y1="979.699" x2="1151.45" y2="1200.25" gradientUnits="userSpaceOnUse">
<stop offset="0.740385" stop-color="#EDFFAB"/>
<stop offset="1" stop-color="#CBFF0C"/>
</linearGradient>
<linearGradient id="paint5_linear_3343_4386" x1="450.352" y1="757.707" x2="450.352" y2="1111.81" gradientUnits="userSpaceOnUse">
<stop stop-color="white"/>
<stop offset="1" stop-color="#E3FC87"/>
</linearGradient>
<linearGradient id="paint6_linear_3343_4386" x1="947.36" y1="757.707" x2="947.36" y2="1111.81" gradientUnits="userSpaceOnUse">
<stop stop-color="white"/>
<stop offset="1" stop-color="#E3FC87"/>
</linearGradient>
<pattern id="pattern0_3343_4386" patternUnits="userSpaceOnUse" patternTransform="matrix(77.4964 0 0 196.013 345.67 990.609)" preserveAspectRatio="none" viewBox="0 0 51.6642 130.675" width="1" height="1">
<use xlink:href="#pattern0_3343_4386_inner" transform="translate(-51.6642 0)"/>
<g id="pattern0_3343_4386_inner">
<path d="M0.241342 6.71084C0.547975 8.73585 4.65507 19.8029 6.90288 24.7167C7.20837 25.3845 8.09049 25.4608 8.52578 24.8693C11.4359 20.9151 19.9761 9.22641 20.4279 7.84398C20.6787 7.07627 20.9237 5.66525 20.0835 4.96647C15.2693 0.962498 9.30139 10.3007 8.62805 10.3097C8.61012 10.4125 8.57029 10.3088 8.55789 10.202C8.50461 9.74362 8.58301 9.46655 8.04671 7.05162C7.81583 6.01201 7.43726 5.03394 6.95717 3.85139C5.58301 0.466553 -1.37223 -3.94526 0.241342 6.71084Z" fill="#EF5DA8"/>
</g>
<use xlink:href="#pattern0_3343_4386_inner" transform="translate(-25.8321 65.3377)"/>
<use xlink:href="#pattern0_3343_4386_inner" transform="translate(25.8321 65.3377)"/>
</pattern></defs>
</svg>
