<svg width="1479" height="1436" viewBox="0 0 1479 1436" fill="none" xmlns="http://www.w3.org/2000/svg" xmlns:xlink="http://www.w3.org/1999/xlink">
<g clip-path="url(#clip0_3343_4566)">
<path d="M113.071 525.36C185.775 225.95 473.839 225.454 608.783 262.633C1025.18 164.151 1207.77 429.523 1217.68 587.325C1310.22 579.889 1375.87 642.117 1378.79 712.079C1384.57 850.878 1275.52 843.167 1245.77 850.878C1282.95 873.185 1272.21 941.759 1207.77 959.935C1154.2 975.043 1126.53 945.064 1110.28 915.321C1081.64 919.727 933.144 959.77 650.919 965.718C368.693 971.667 221.026 911.465 182.471 880.621C174.759 901 145.127 936.471 88.2852 915.321C31.4436 894.17 44.2219 834.355 57.7163 807.09C19.9871 807.641 -72.8213 784.752 -72.8213 683.988C-72.8213 584.846 45.3235 536.652 113.071 525.36Z" fill="#88A2FF" stroke="#054AEA" stroke-width="8" stroke-linecap="round"/>
<path d="M181.197 923.716C128.321 930.986 105.739 904.714 101.057 890.668C83.7334 843.106 101.434 804.601 131.626 775.384C164.789 743.293 213.022 722.408 246.466 713.038C250.597 736.998 267.121 777.205 277.035 794.004C256.546 821.764 245.365 873.318 242.335 895.625L229.116 884.059C218.541 911.819 192.764 922.063 181.197 923.716Z" fill="#88A2FF"/>
<path d="M131.626 775.384C164.789 743.293 213.022 722.408 246.466 713.038C250.597 736.998 267.121 777.205 277.035 794.004C256.546 821.764 245.365 873.318 242.335 895.625L229.116 884.059C218.541 911.819 192.764 922.063 181.197 923.716C128.321 930.986 105.739 904.714 101.057 890.668C83.7334 843.106 101.434 804.601 131.626 775.384ZM131.626 775.384C115.929 806.101 95.4392 873.153 139.062 895.625C182.685 918.098 215.622 885.711 226.638 866.709" stroke="#1A4CFF" stroke-width="8" stroke-linecap="round"/>
<path d="M249.773 727.909C209.565 740.853 131.297 779.628 139.89 831.183" stroke="#1A4CFF" stroke-width="8" stroke-linecap="round"/>
<path d="M210.115 650.247C225.978 617.86 229.944 545.046 229.944 513.926L245.641 511.447C237.049 532.598 238.206 612.793 239.858 650.247C228.622 692.548 185.605 716.342 165.501 722.951C94.7797 741.458 62.2279 715.24 54.7922 699.818C125.018 723.777 190.287 690.73 210.115 650.247Z" fill="#88A2FF"/>
<path d="M161.37 518.057C-54.0992 520.701 -45.4518 646.391 -16.2599 708.08C-57.8996 560.688 83.1581 526.319 159.718 527.971L161.37 518.057Z" fill="#88A2FF"/>
<path d="M210.115 650.247C225.978 617.86 229.944 545.046 229.944 513.926L245.641 511.447C237.049 532.598 238.206 612.793 239.858 650.247C228.622 692.548 185.605 716.342 165.501 722.951C94.7797 741.458 62.2279 715.24 54.7922 699.818C125.018 723.777 190.287 690.73 210.115 650.247Z" stroke="#1A4CFF" stroke-width="8" stroke-linecap="round"/>
<path d="M161.37 518.057C-54.0992 520.701 -45.4518 646.391 -16.2599 708.08C-57.8996 560.688 83.1581 526.319 159.718 527.971L161.37 518.057Z" stroke="#1A4CFF" stroke-width="8" stroke-linecap="round"/>
<path d="M567.028 280.942C473.944 288.378 268.939 349.185 193.591 532.929C127.221 555.237 2.41131 623.149 34.1369 716.343C39.0941 739.476 65.5321 783.264 131.627 773.35" stroke="#88A2FF" stroke-width="8" stroke-linecap="round"/>
<rect x="243.48" y="638.549" width="895.849" height="909.068" rx="174" fill="url(#paint0_linear_3343_4566)" stroke="#054AEA" stroke-width="8" stroke-linecap="round"/>
<path d="M-120.924 1409.63C9.07086 1560.59 234.302 1522.28 331.223 1484.07C331.567 1483.94 331.849 1483.71 332.07 1483.42L333.104 1482.04C333.729 1481.21 333.609 1480.04 332.836 1479.34C304.449 1453.7 283.424 1420.03 276.377 1406.21C253.244 1365.23 245.257 1307.62 244.156 1283.93V1236.9C244.156 1235.09 241.757 1234.45 240.851 1236.02C176.739 1356.97 -2.87445 1368.48 -84.667 1359.12C-140.059 1357.8 -132.072 1392.01 -121.095 1409.39C-121.044 1409.48 -120.987 1409.55 -120.924 1409.63Z" fill="url(#paint1_linear_3343_4566)" stroke="#054AEA" stroke-width="8" stroke-linecap="round"/>
<path d="M650.43 272.184C683.597 320.05 715.106 292.349 727.137 271.869C727.362 271.487 727.442 271.048 727.381 270.609L700.237 75.6671C700.22 75.5427 700.192 75.4225 700.151 75.3036C691.817 50.8293 671.361 16.8616 655.642 75.3118C655.614 75.4189 655.592 75.5355 655.581 75.6459L650.458 129.077C650.268 131.059 647.577 131.606 646.598 129.873C632.472 104.866 607.669 73.0018 600.283 109.978C600.257 110.105 600.243 110.245 600.243 110.375V196.032C600.243 198.081 597.47 198.843 596.38 197.108C585.065 179.092 568.021 158.756 568.021 187.015V245.244C568.021 245.528 568.082 245.808 568.199 246.067L579.057 270.11C579.38 270.826 580.093 271.286 580.879 271.286H648.755C649.418 271.286 650.053 271.639 650.43 272.184Z" fill="#88A2FF" stroke="#054AEA" stroke-width="8" stroke-linecap="round"/>
<path d="M97.9635 1297.65C111.939 1276.54 117.628 1314.51 118.726 1336.14C102.97 1343.26 60.709 1351.93 41.5478 1355.38L32.7462 1332.81C22.3786 1300.71 44.7765 1313.63 57.2715 1324.1C51.7882 1245.8 77.7774 1285.91 91.4574 1315.76L97.9635 1297.65Z" fill="#88A2FF" stroke="#054AEA" stroke-width="8" stroke-linecap="round"/>
<path d="M-17.7145 1316.9C1.09038 1299.95 -2.88695 1338.15 -7.22623 1359.36C-24.2616 1362.32 -67.3496 1360.16 -86.7642 1358.71L-89.6488 1334.66C-91.6688 1300.99 -73.2073 1319.09 -63.7241 1332.35C-49.4736 1255.16 -34.3292 1300.5 -28.5384 1332.81L-17.7145 1316.9Z" fill="#88A2FF" stroke="#054AEA" stroke-width="8" stroke-linecap="round"/>
<path d="M242.504 1137.7V1235.19C220.693 1270.88 193.759 1293.57 183.018 1300.46L162.364 1275.67C127.333 1226.1 161.538 1235.19 183.018 1245.93L179.714 1231.06C159.224 1159.01 197.455 1185.62 219.131 1207.92V1178.18C219.131 1138.53 234.713 1134.67 242.504 1137.7Z" fill="#88A2FF" stroke="#054AEA" stroke-width="8" stroke-linecap="round"/>
<path d="M354.825 326.382C347.168 290.207 349.789 196.865 417.599 103.013C422.374 96.4044 431.812 95.5966 437.543 101.395C438.484 102.348 439.443 103.328 440.419 104.336C459.278 110.153 485.364 132.891 577.896 267.723H542.37C519.236 266.346 471.638 272.68 436.112 284.247C421.241 290.305 376.636 309.198 354.825 326.382Z" fill="#E3FC87"/>
<path d="M542.37 267.723C522.379 198.93 469.522 133.755 437.543 101.395C431.812 95.5966 422.374 96.4044 417.599 103.013C349.789 196.865 347.168 290.207 354.825 326.382C376.636 309.198 421.241 290.305 436.112 284.247C471.638 272.68 519.236 266.346 542.37 267.723ZM542.37 267.723H577.896C462.23 99.1808 450.387 105.79 426.703 101.659" stroke="#054AEA" stroke-width="8" stroke-linecap="round"/>
<path d="M1022.71 326.382C1030.36 290.207 1027.74 196.865 959.931 103.013C955.157 96.4044 945.718 95.5966 939.987 101.395C939.046 102.348 938.087 103.328 937.111 104.336C918.252 110.153 892.166 132.891 799.634 267.723H835.161C858.294 266.346 905.892 272.68 941.418 284.247C956.29 290.305 1000.89 309.198 1022.71 326.382Z" fill="#E3FC87"/>
<path d="M835.161 267.723C855.152 198.93 908.008 133.755 939.987 101.395C945.718 95.5966 955.157 96.4044 959.931 103.013C1027.74 196.865 1030.36 290.207 1022.71 326.382C1000.89 309.198 956.29 290.305 941.418 284.247C905.892 272.68 858.294 266.346 835.161 267.723ZM835.161 267.723H799.634C915.301 99.1808 927.143 105.79 950.827 101.659" stroke="#054AEA" stroke-width="8" stroke-linecap="round"/>
<path d="M1143.16 570.107C1158.72 575.022 1189.36 598.614 1187.39 653.661C1185.43 708.709 1143.98 727.385 1123.5 729.843" stroke="#054AEA" stroke-width="8" stroke-linecap="round"/>
<path d="M1097.81 799.286C1149.6 784.6 1175.12 785.569 1183.93 786.795C1198.28 788.792 1209.37 795.35 1218.21 800.732C1222.11 803.662 1227.02 806.614 1232.39 809.301C1234.86 810.535 1236.8 811.504 1238.8 812.503" stroke="#BDEF05" stroke-width="8" stroke-linecap="round"/>
<path d="M1225.12 787.396V939.414" stroke="#054AEA" stroke-width="8" stroke-linecap="round"/>
<path d="M1384.07 711.521C1388.31 714.477 1395.09 713.788 1399.32 712.726C1400.33 712.471 1400.91 711.427 1400.6 710.427C1398.91 704.881 1395.97 699.717 1393.77 696.457C1392.97 695.275 1391.25 695.41 1390.57 696.66L1383.65 709.243C1383.22 710.023 1383.34 711.012 1384.07 711.521Z" fill="#F178B6"/>
<path d="M1336.91 710.402C1342.76 712.996 1351.92 712.317 1357.56 711.333C1358.75 711.125 1359.42 709.883 1358.91 708.79C1356.33 703.293 1351.88 698.252 1348.91 695.41C1348.1 694.633 1346.81 694.755 1346.11 695.628L1336.37 707.668C1335.63 708.577 1335.84 709.928 1336.91 710.402Z" fill="#F178B6"/>
<path d="M1288.99 712.055C1294.85 714.649 1304 713.971 1309.64 712.986C1310.83 712.778 1311.5 711.536 1310.99 710.443C1308.41 704.947 1303.96 699.905 1300.99 697.063C1300.18 696.286 1298.9 696.408 1298.19 697.282L1288.45 709.321C1287.72 710.23 1287.92 711.581 1288.99 712.055Z" fill="#F178B6"/>
<path d="M1235.54 738.262L1249.05 736.499C1250.33 736.332 1251.12 735.015 1250.64 733.815C1247.37 725.563 1241.79 713.342 1239.99 716.343C1238.29 719.187 1235.23 729.171 1233.36 735.76C1232.97 737.134 1234.12 738.447 1235.54 738.262Z" fill="#F178B6"/>
<path d="M264.347 1546.03C230.413 1457.94 232.098 1178 237.577 1036.07C237.816 1029.89 245.081 1024.97 251.192 1025.94C259.223 1027.2 268.678 1028 274.329 1028.32H453.468C474.936 1028.32 492.339 1010.92 492.339 989.452V944.567C492.339 940.124 495.94 936.522 500.383 936.522C504.826 936.522 508.428 940.124 508.428 944.567V989.452C508.428 1010.78 525.716 1028.32 547.042 1028.32H974.068C993.252 1028.32 1008.8 1012.77 1008.8 993.587V874.542C1008.8 872.391 1009.64 870.324 1011.14 868.782L1013.12 866.747C1018.29 861.432 1027.31 865.092 1027.31 872.508V993.587C1027.31 1012.77 1042.86 1028.32 1062.04 1028.32L1133.66 1028.32C1138.13 1028.32 1141.79 1031.82 1141.91 1036.28C1146.43 1196.74 1141.16 1426 1130.48 1544.63C1130.35 1546.13 1129.82 1547.53 1128.85 1548.68C1112.11 1568.42 1079.83 1559.22 1061.15 1549.94C1057.75 1548.24 1053.62 1548.84 1050.74 1551.33C1021.94 1576.21 988.773 1564.24 970.736 1551.68C967.128 1549.17 962.178 1549.4 958.794 1552.21C928.998 1576.91 893.568 1564.04 874.571 1551.16C871.166 1548.85 866.573 1548.98 863.363 1551.55C824.773 1582.49 787.688 1568.18 768.522 1552.93C764.721 1549.91 759.091 1550.08 755.574 1553.44C723.795 1583.72 691.236 1569.77 673.341 1554.14C669.368 1550.67 663.1 1550.9 659.507 1554.76C627.662 1589 593.1 1572.32 574.163 1554.37C570.33 1550.74 564.054 1550.85 560.437 1554.7C527.058 1590.2 495.793 1573.93 479.053 1555.58C475.33 1551.49 468.656 1551.18 464.756 1555.09C425.712 1594.29 388.062 1574.4 368.888 1554.09C365.456 1550.45 359.623 1550.02 355.791 1553.23C312.689 1589.34 278.14 1565.63 265.217 1547.64C264.847 1547.12 264.575 1546.62 264.347 1546.03Z" fill="#FCDDEC" stroke="#054AEA" stroke-width="8" stroke-linecap="round"/>
<path d="M264.347 1546.03C230.413 1457.94 232.098 1178 237.577 1036.07C237.816 1029.89 245.081 1024.97 251.192 1025.94C259.223 1027.2 268.678 1028 274.329 1028.32H453.468C474.936 1028.32 492.339 1010.92 492.339 989.452V944.567C492.339 940.124 495.94 936.522 500.383 936.522C504.826 936.522 508.428 940.124 508.428 944.567V989.452C508.428 1010.78 525.716 1028.32 547.042 1028.32H974.068C993.252 1028.32 1008.8 1012.77 1008.8 993.587V874.542C1008.8 872.391 1009.64 870.324 1011.14 868.782L1013.12 866.747C1018.29 861.432 1027.31 865.092 1027.31 872.508V993.587C1027.31 1012.77 1042.86 1028.32 1062.04 1028.32L1133.66 1028.32C1138.13 1028.32 1141.79 1031.82 1141.91 1036.28C1146.43 1196.74 1141.16 1426 1130.48 1544.63C1130.35 1546.13 1129.82 1547.53 1128.85 1548.68C1112.11 1568.42 1079.83 1559.22 1061.15 1549.94C1057.75 1548.24 1053.62 1548.84 1050.74 1551.33C1021.94 1576.21 988.773 1564.24 970.736 1551.68C967.128 1549.17 962.178 1549.4 958.794 1552.21C928.998 1576.91 893.568 1564.04 874.571 1551.16C871.166 1548.85 866.573 1548.98 863.363 1551.55C824.773 1582.49 787.688 1568.18 768.522 1552.93C764.721 1549.91 759.091 1550.08 755.574 1553.44C723.795 1583.72 691.236 1569.77 673.341 1554.14C669.368 1550.67 663.1 1550.9 659.507 1554.76C627.662 1589 593.1 1572.32 574.163 1554.37C570.33 1550.74 564.054 1550.85 560.437 1554.7C527.058 1590.2 495.793 1573.93 479.053 1555.58C475.33 1551.49 468.656 1551.18 464.756 1555.09C425.712 1594.29 388.062 1574.4 368.888 1554.09C365.456 1550.45 359.623 1550.02 355.791 1553.23C312.689 1589.34 278.14 1565.63 265.217 1547.64C264.847 1547.12 264.575 1546.62 264.347 1546.03Z" fill="url(#pattern0_3343_4566)" stroke="#054AEA" stroke-width="8" stroke-linecap="round"/>
<path d="M274.18 1357.28V1013.48C274.18 993.133 296.558 940.239 357.589 940.239C419.967 940.239 451.848 987.708 455.239 1013.48V1078.58V1338.36C455.239 1353.38 450.945 1368.08 442.865 1380.73C442.401 1381.46 441.348 1381.49 440.845 1380.79L420.502 1352.45C419.672 1351.3 417.935 1351.35 417.181 1352.56L386.649 1401.41C386.115 1402.26 385.028 1402.59 384.154 1402.09C376.284 1397.6 365.176 1385.55 359.155 1378.37C358.338 1377.39 356.835 1377.4 356.034 1378.38L336.998 1401.85C336.482 1402.49 335.629 1402.75 334.869 1402.45C325.315 1398.6 315.724 1385.34 311.313 1377.83C310.942 1377.2 310.04 1377.15 309.612 1377.75L292.524 1401.52C291.951 1402.32 290.877 1402.59 290.052 1402.06C278.021 1394.28 274.445 1369.26 274.18 1357.28Z" fill="url(#paint2_linear_3343_4566)" stroke="#054AEA" stroke-width="8" stroke-linecap="round"/>
<path d="M297.814 1377.16C293.581 1374.2 286.793 1374.89 282.568 1375.95C281.554 1376.21 280.98 1377.25 281.285 1378.25C282.976 1383.8 285.916 1388.96 288.117 1392.22C288.914 1393.4 290.633 1393.27 291.32 1392.02L298.241 1379.43C298.67 1378.65 298.544 1377.67 297.814 1377.16Z" fill="#F178B6"/>
<path d="M344.981 1378.28C339.124 1375.68 329.966 1376.36 324.328 1377.35C323.139 1377.55 322.465 1378.79 322.978 1379.89C325.556 1385.38 330.007 1390.43 332.975 1393.27C333.787 1394.04 335.073 1393.92 335.779 1393.05L345.517 1381.01C346.252 1380.1 346.051 1378.75 344.981 1378.28Z" fill="#F178B6"/>
<path d="M392.9 1376.62C387.043 1374.03 377.885 1374.71 372.247 1375.69C371.058 1375.9 370.384 1377.14 370.897 1378.24C373.475 1383.73 377.926 1388.77 380.894 1391.62C381.706 1392.39 382.992 1392.27 383.698 1391.4L393.436 1379.36C394.171 1378.45 393.97 1377.1 392.9 1376.62Z" fill="#F178B6"/>
<path d="M446.353 1350.42L432.838 1352.18C431.557 1352.35 430.768 1353.66 431.245 1354.86C434.522 1363.11 440.095 1375.34 441.896 1372.33C443.602 1369.49 446.655 1359.51 448.526 1352.92C448.916 1351.54 447.769 1350.23 446.353 1350.42Z" fill="#F178B6"/>
<path d="M1106.98 789.047C1149.28 769.879 1203.37 790.975 1225.12 803.918V743.607C1225.12 725.416 1230.91 711.824 1235.66 704.435C1237.31 701.863 1240.86 701.983 1242.75 704.39L1258.78 724.838C1260.9 727.55 1265.07 727.35 1266.92 724.447L1293.87 682.297C1294.79 680.86 1296.41 679.941 1298.02 680.482C1304.68 682.707 1314.06 692.043 1320.39 699.311C1322.46 701.676 1326.16 701.747 1328.21 699.37L1343.42 681.726C1344.37 680.624 1345.77 679.934 1347.19 680.252C1354.36 681.856 1362.16 690.536 1367.37 697.836C1369.41 700.697 1373.71 700.982 1375.89 698.228L1387.95 683.026C1389.37 681.239 1391.88 680.596 1393.6 682.094C1403.11 690.384 1406.96 713.733 1407.71 725.431V1009.07C1407.71 1009.45 1407.66 1009.84 1407.58 1010.21C1385.46 1104.1 1276.79 1089.74 1225.12 1070.78C1175.83 1048.75 1071.12 990.967 1046.66 936.108C1016.1 867.535 1054.1 813.006 1106.98 789.047Z" fill="url(#paint3_linear_3343_4566)" stroke="#054AEA" stroke-width="8" stroke-linecap="round"/>
<path d="M241.132 680.239V658.509V602.328V549.375C241.132 394.735 366.492 269.375 521.132 269.375H580.695H828.551H859.197C1013.84 269.375 1139.2 395.639 1139.2 550.279V564.079C1139.2 566.205 1140.55 568.078 1142.49 568.931C1160.53 576.83 1190.63 602.2 1188.77 651.9C1186.86 702.784 1149.6 728.164 1129.13 735.404C1127.67 735.921 1126.48 737.021 1125.94 738.471L1102 802.014C1076.06 870.865 1014.41 919.915 941.491 929.719L863.251 940.239H537.733H501.132C357.538 940.239 241.132 823.833 241.132 680.239Z" fill="url(#paint4_radial_3343_4566)" stroke="#054AEA" stroke-width="8" stroke-linecap="round"/>
<path d="M578.216 622.984L292.355 556.062" stroke="#054AEA" stroke-width="8" stroke-linecap="round"/>
<path d="M578.216 697.342L292.355 764.263" stroke="#054AEA" stroke-width="8" stroke-linecap="round"/>
<path d="M576.564 657.684L292.355 654.379" stroke="#054AEA" stroke-width="8" stroke-linecap="round"/>
<path d="M1093.76 623.809L1379.62 556.888" stroke="#054AEA" stroke-width="8" stroke-linecap="round"/>
<path d="M1093.76 698.167L1379.62 765.088" stroke="#054AEA" stroke-width="8" stroke-linecap="round"/>
<path d="M1095.41 658.51L1379.62 655.205" stroke="#054AEA" stroke-width="8" stroke-linecap="round"/>
<path d="M686.448 702.298C650.8 685.624 647.162 664.406 650.627 652.46C651.566 649.222 652.779 646.038 653.78 642.818C661.34 618.492 688.118 617.09 701.319 619.679C807.406 642.412 915.907 627.237 962.84 615.511C966.945 614.485 971.201 614.112 975.235 615.389C986.633 618.997 1002.33 628.522 1004.53 647.769C1007.17 670.902 988.006 688.803 978.092 694.862C906.213 741.955 737.671 726.257 686.448 702.298Z" fill="#D6DFFF" stroke="#054AEA" stroke-width="8" stroke-linecap="round"/>
<path d="M813.079 579.477L840.721 579.477L826.9 603.417L813.079 579.477Z" fill="#88A2FF" stroke="#1A4CFF" stroke-width="8" stroke-linecap="round"/>
<path d="M683.969 656.031C733.064 673.488 859.63 697.928 973.134 656.031" stroke="#054AEA" stroke-width="8" stroke-linecap="round"/>
<path d="M827.725 603.154V630.418" stroke="#054AEA" stroke-width="8" stroke-linecap="round"/>
<path d="M599.528 570.107C615.092 575.022 645.728 598.614 643.762 653.661C641.796 708.709 600.347 727.385 579.868 729.843" stroke="#054AEA" stroke-width="8" stroke-linecap="round"/>
<path d="M1052.16 570.107C1036.6 575.022 1005.96 598.614 1007.93 653.661C1009.89 708.709 1051.34 727.385 1071.82 729.843" stroke="#054AEA" stroke-width="8" stroke-linecap="round"/>
<path d="M240.286 512.142C559.421 470.202 748.361 351.955 802.94 298.074V262.25C718.922 238.659 516.252 223.935 343.58 321.425C180.054 413.751 208.862 484.473 240.286 512.142Z" fill="#88A2FF"/>
<path d="M800.956 298.073C746.377 351.954 557.437 470.201 238.302 512.141" stroke="#054AEA" stroke-width="8" stroke-linecap="round"/>
<path d="M325.219 334.234C380.002 302.34 499.729 238.806 726.48 245.81" stroke="#054AEA" stroke-width="8" stroke-linecap="round"/>
<path d="M771.283 494.793C790.94 494.793 806.875 510.729 806.875 530.386C806.875 550.043 790.94 565.977 771.283 565.978C751.626 565.978 735.691 550.043 735.69 530.386C735.69 510.729 751.626 494.793 771.283 494.793Z" fill="#FAFAFA" stroke="#054AEA" stroke-width="8" stroke-linecap="round"/>
<circle cx="769.758" cy="528.863" r="12.7507" fill="black" stroke="#054AEA" stroke-width="8" stroke-linecap="round"/>
<path d="M745.909 502.127L734.95 485.836" stroke="#054AEA" stroke-width="8" stroke-linecap="round"/>
<path d="M740.609 507.526L724.601 496.408" stroke="#054AEA" stroke-width="8" stroke-linecap="round"/>
<path d="M735.153 514.74L717.016 507.82" stroke="#054AEA" stroke-width="8" stroke-linecap="round"/>
<path d="M877.56 494.793C857.902 494.793 841.968 510.729 841.968 530.386C841.968 550.043 857.903 565.977 877.56 565.978C897.217 565.978 913.152 550.043 913.152 530.386C913.152 510.729 897.217 494.793 877.56 494.793Z" fill="#FAFAFA" stroke="#054AEA" stroke-width="8" stroke-linecap="round"/>
<circle cx="16.7507" cy="16.7507" r="12.7507" transform="matrix(-1 0 0 1 895.832 512.112)" fill="black" stroke="#054AEA" stroke-width="8" stroke-linecap="round"/>
<path d="M902.932 502.127L913.891 485.836" stroke="#054AEA" stroke-width="8" stroke-linecap="round"/>
<path d="M908.232 507.526L924.24 496.408" stroke="#054AEA" stroke-width="8" stroke-linecap="round"/>
<path d="M913.688 514.74L931.825 507.82" stroke="#054AEA" stroke-width="8" stroke-linecap="round"/>
<path d="M1139.27 492.445C939.131 455.602 820.643 351.724 786.416 304.391V272.921C839.105 252.196 963.279 261.872 1064.84 345.384C1166.4 428.895 1158.97 468.139 1139.27 492.445Z" fill="#88A2FF"/>
<path d="M787.661 301.778C821.888 349.768 940.376 455.087 1140.51 492.441" stroke="#054AEA" stroke-width="8" stroke-linecap="round"/>
<path d="M1039.23 327.208C1006.06 300.86 911.693 251.108 799.636 262.888" stroke="#054AEA" stroke-width="8" stroke-linecap="round"/>
<path d="M568.047 399.893C486.364 438.149 279.837 526.242 171.733 464.503C233.584 480.955 391.37 482.091 527.709 355.025C543.444 335.288 588.297 295.153 641.834 292.509" stroke="#88A2FF" stroke-width="8" stroke-linecap="round"/>
</g>
<defs>
<linearGradient id="paint0_linear_3343_4566" x1="691.405" y1="634.549" x2="691.405" y2="1551.62" gradientUnits="userSpaceOnUse">
<stop offset="0.625" stop-color="white"/>
<stop offset="1" stop-color="#E3FC87"/>
</linearGradient>
<linearGradient id="paint1_linear_3343_4566" x1="102.605" y1="1230.29" x2="102.605" y2="1518.46" gradientUnits="userSpaceOnUse">
<stop offset="0.740385" stop-color="#EDFFAB"/>
<stop offset="1" stop-color="#CBFF0C"/>
</linearGradient>
<linearGradient id="paint2_linear_3343_4566" x1="364.709" y1="940.239" x2="364.709" y2="1402.9" gradientUnits="userSpaceOnUse">
<stop stop-color="white"/>
<stop offset="1" stop-color="#E3FC87"/>
</linearGradient>
<linearGradient id="paint3_linear_3343_4566" x1="1190.42" y1="960.068" x2="1407.71" y2="741.128" gradientUnits="userSpaceOnUse">
<stop stop-color="white"/>
<stop offset="1" stop-color="#E3FC87"/>
</linearGradient>
<radialGradient id="paint4_radial_3343_4566" cx="0" cy="0" r="1" gradientUnits="userSpaceOnUse" gradientTransform="translate(936.781 626.288) rotate(125.239) scale(384.391 543.023)">
<stop stop-color="#E3FC87"/>
<stop offset="1" stop-color="white"/>
</radialGradient>
<clipPath id="clip0_3343_4566">
<rect width="1479" height="1436" fill="white"/>
</clipPath>
<pattern id="pattern0_3343_4566" patternUnits="userSpaceOnUse" patternTransform="matrix(77.4964 0 0 196.013 230.413 1208.26)" preserveAspectRatio="none" viewBox="0 0 51.6642 130.675" width="1" height="1">
<use xlink:href="#pattern0_3343_4566_inner" transform="translate(-51.6642 0)"/>
<g id="pattern0_3343_4566_inner">
<path d="M0.241342 6.71084C0.547975 8.73585 4.65507 19.8029 6.90288 24.7167C7.20837 25.3845 8.09049 25.4608 8.52578 24.8693C11.4359 20.9151 19.9761 9.22641 20.4279 7.84398C20.6787 7.07627 20.9237 5.66525 20.0835 4.96647C15.2693 0.962498 9.30139 10.3007 8.62805 10.3097C8.61012 10.4125 8.57029 10.3088 8.55789 10.202C8.50461 9.74362 8.58301 9.46655 8.04671 7.05162C7.81583 6.01201 7.43726 5.03394 6.95717 3.85139C5.58301 0.466553 -1.37223 -3.94526 0.241342 6.71084Z" fill="#EF5DA8"/>
</g>
<use xlink:href="#pattern0_3343_4566_inner" transform="translate(-25.8321 65.3377)"/>
<use xlink:href="#pattern0_3343_4566_inner" transform="translate(25.8321 65.3377)"/>
</pattern></defs>
</svg>
