<svg width="1479" height="1436" viewBox="0 0 1479 1436" fill="none" xmlns="http://www.w3.org/2000/svg">
<g clip-path="url(#clip0_3343_5301)">
<path d="M-533.978 526.722C-363.303 -176.149 312.932 -177.312 629.715 -90.0353C1607.22 -321.223 2035.85 301.742 2059.12 672.184C2276.34 654.729 2430.48 800.811 2437.32 965.047C2450.9 1290.88 2194.88 1272.78 2125.06 1290.88C2212.34 1343.25 2187.13 1504.22 2035.85 1546.89C1910.1 1582.36 1845.13 1511.98 1806.99 1442.16C1739.75 1452.51 1391.16 1546.51 728.629 1560.47C66.0999 1574.43 -280.552 1433.11 -371.061 1360.7C-389.163 1408.54 -458.726 1491.81 -592.163 1442.16C-725.6 1392.51 -695.602 1252.09 -663.924 1188.09C-752.494 1189.38 -970.363 1135.65 -970.363 899.104C-970.363 666.366 -693.016 553.229 -533.978 526.722Z" fill="#88A2FF" stroke="#054AEA" stroke-width="10" stroke-linecap="round"/>
<rect x="-346.666" y="789.675" width="2111.8" height="2173.86" rx="173" fill="url(#paint0_linear_3343_5301)" stroke="#054AEA" stroke-width="10" stroke-linecap="round"/>
<path opacity="0.3" d="M294.185 1579.87C-47.1653 1567.45 -239.821 1338.08 -293.48 1224.94C-288.308 1210.72 -273.698 1177.23 -256.63 1157.06C-140.261 1389.8 151.309 1484.18 282.548 1502.29H1085.5C1212.73 1494.53 1316.94 1456.38 1353.15 1438.28C1253.84 1536.03 1079.03 1573.4 1004.04 1579.87H294.185Z" fill="#001970"/>
<rect x="-350.545" y="-75.3379" width="2111.8" height="1572.62" rx="173" fill="url(#paint1_radial_3343_5301)" stroke="#054AEA" stroke-width="10" stroke-linecap="round"/>
<path d="M137.085 757.521L-533.979 600.423" stroke="#054AEA" stroke-width="10" stroke-linecap="round"/>
<path d="M137.085 932.075L-533.979 1089.17" stroke="#054AEA" stroke-width="10" stroke-linecap="round"/>
<path d="M133.206 838.98L-533.979 831.222" stroke="#054AEA" stroke-width="10" stroke-linecap="round"/>
<path d="M1300.78 759.461L1971.84 602.362" stroke="#054AEA" stroke-width="10" stroke-linecap="round"/>
<path d="M1300.78 934.016L1971.84 1091.11" stroke="#054AEA" stroke-width="10" stroke-linecap="round"/>
<path d="M1304.66 840.919L1971.84 833.161" stroke="#054AEA" stroke-width="10" stroke-linecap="round"/>
<path d="M-80.8907 61.2448C-99.3118 -25.7793 -92.3935 -253.731 78.5771 -479.481C83.4991 -485.981 92.9202 -486.875 98.7976 -481.225C105.377 -474.9 112.497 -467.809 120.042 -460.012C164.314 -446.357 225.552 -392.98 442.772 -76.459H359.374C305.068 -79.6915 193.329 -64.8221 109.931 -37.6692C75.0206 -23.4463 -29.6883 20.9034 -80.8907 61.2448Z" fill="#E3FC87"/>
<path d="M359.374 -76.459C309.276 -248.853 171.26 -411.568 98.7976 -481.225C92.9202 -486.875 83.4991 -485.981 78.5771 -479.481C-92.3935 -253.731 -99.3118 -25.7793 -80.8907 61.2447C-29.6883 20.9034 75.0206 -23.4463 109.931 -37.6692C193.329 -64.8221 305.068 -79.6915 359.374 -76.459ZM359.374 -76.459H442.772C171.243 -472.115 143.444 -456.599 87.8449 -466.296" stroke="#054AEA" stroke-width="10" stroke-linecap="round"/>
<path d="M1486.97 61.2448C1505.39 -25.7793 1498.47 -253.731 1327.5 -479.481C1322.58 -485.981 1313.16 -486.875 1307.28 -481.225C1300.7 -474.9 1293.58 -467.809 1286.04 -460.012C1241.77 -446.357 1180.53 -392.98 963.308 -76.459H1046.71C1101.01 -79.6915 1212.75 -64.8221 1296.15 -37.6692C1331.06 -23.4463 1435.77 20.9034 1486.97 61.2448Z" fill="#E3FC87"/>
<path d="M1046.71 -76.459C1096.8 -248.853 1234.82 -411.568 1307.28 -481.225C1313.16 -486.875 1322.58 -485.981 1327.5 -479.481C1498.47 -253.731 1505.39 -25.7793 1486.97 61.2447C1435.77 20.9034 1331.06 -23.4463 1296.15 -37.6692C1212.75 -64.8221 1101.01 -79.6915 1046.71 -76.459ZM1046.71 -76.459H963.308C1234.84 -472.115 1262.64 -456.599 1318.24 -466.296" stroke="#054AEA" stroke-width="10" stroke-linecap="round"/>
<path d="M807.533 -67.1913C728.943 47.463 654.165 -19.1934 626.172 -67.5119C625.95 -67.8954 625.87 -68.3317 625.931 -68.7708L689.814 -527.565C689.831 -527.69 689.859 -527.81 689.9 -527.929C709.424 -585.432 757.57 -665.638 794.527 -527.921C794.556 -527.814 794.578 -527.697 794.588 -527.587L807.505 -392.885C807.695 -390.903 810.364 -390.371 811.311 -392.123C843.477 -451.643 906.416 -537.714 924.478 -446.497C924.504 -446.37 924.518 -446.229 924.518 -446.099V-234.639C924.518 -232.59 927.25 -231.835 928.301 -233.595C954.44 -277.394 1000.16 -336.836 1000.16 -265.922V-128.649C1000.16 -128.365 1000.1 -128.084 999.981 -127.826L973.537 -69.2703C973.213 -68.554 972.5 -68.0935 971.714 -68.0935H809.208C808.545 -68.0935 807.907 -67.7375 807.533 -67.1913Z" fill="#88A2FF" stroke="#054AEA" stroke-width="10" stroke-linecap="round"/>
<path d="M391.157 943.713C300.592 901.352 298.038 846.5 309.378 820.261C310.715 817.166 311.909 813.979 312.675 810.696C327.487 747.236 393.922 743.461 426.067 749.764C681.649 804.531 943.197 765.574 1048.37 737.83C1052.46 736.75 1056.62 736.454 1060.75 737.405C1087.43 743.556 1132.13 765.593 1137.86 815.707C1144.07 870.012 1099.07 912.035 1075.8 926.257C907.061 1036.81 511.405 999.958 391.157 943.713Z" fill="#D6DFFF" stroke="#054AEA" stroke-width="10" stroke-linecap="round"/>
<path d="M680.822 651.001L760.92 651.001L720.871 720.369L680.822 651.001Z" fill="#88A2FF" stroke="#1A4CFF" stroke-width="10" stroke-linecap="round"/>
<path d="M385.34 835.101C500.591 876.081 797.708 933.453 1064.16 835.101" stroke="#054AEA" stroke-width="10" stroke-linecap="round"/>
<path d="M721 724L721 775" stroke="#054AEA" stroke-width="10" stroke-linecap="round"/>
<path d="M187.114 633.395C223.651 644.932 295.571 700.314 290.956 829.539C286.34 958.763 189.037 1002.61 140.963 1008.38" stroke="#054AEA" stroke-width="10" stroke-linecap="round"/>
<path d="M1249.67 633.395C1213.14 644.932 1141.22 700.314 1145.83 829.539C1150.45 958.763 1247.75 1002.61 1295.82 1008.38" stroke="#054AEA" stroke-width="10" stroke-linecap="round"/>
<path d="M-378.301 495.691C252.846 402.596 626.51 140.118 734.449 20.5163V-59.0028C568.289 -111.369 155.898 -163.347 -164.386 47.6691C-484.669 258.686 -440.447 434.274 -378.301 495.691Z" fill="#88A2FF"/>
<path d="M730.522 20.5156C622.583 140.117 248.919 402.595 -382.228 495.691" stroke="#054AEA" stroke-width="10" stroke-linecap="round"/>
<path d="M-105.35 20.515C-26.9346 -28.9674 196.113 -122.402 460.981 -100.28" stroke="#054AEA" stroke-width="10" stroke-linecap="round"/>
<path d="M1752.62 495.691C1168.52 402.596 822.705 140.118 722.812 20.5163V-59.0028C876.587 -111.369 1258.24 -163.347 1554.65 47.6691C1851.06 258.686 1810.13 434.274 1752.62 495.691Z" fill="#88A2FF"/>
<path d="M726.445 20.5156C826.338 140.117 1172.15 402.595 1756.25 495.691" stroke="#054AEA" stroke-width="10" stroke-linecap="round"/>
<path d="M1512.18 20.515C1438.06 -28.9674 1227.24 -122.402 976.884 -100.28" stroke="#054AEA" stroke-width="10" stroke-linecap="round"/>
<circle cx="598.066" cy="540.147" r="87.9442" fill="#FAFAFA" stroke="#054AEA" stroke-width="10" stroke-linecap="round"/>
<path d="M538.504 473.811L512.778 435.566" stroke="#054AEA" stroke-width="10" stroke-linecap="round"/>
<path d="M526.061 486.481L488.481 460.382" stroke="#054AEA" stroke-width="10" stroke-linecap="round"/>
<path d="M513.256 503.422L470.678 487.177" stroke="#054AEA" stroke-width="10" stroke-linecap="round"/>
<circle cx="92.9442" cy="92.9442" r="87.9442" transform="matrix(-1 0 0 1 940.5 447.203)" fill="#FAFAFA" stroke="#054AEA" stroke-width="10" stroke-linecap="round"/>
<path d="M907.119 473.811L932.845 435.566" stroke="#054AEA" stroke-width="10" stroke-linecap="round"/>
<path d="M919.562 486.481L957.142 460.382" stroke="#054AEA" stroke-width="10" stroke-linecap="round"/>
<path d="M932.367 503.422L974.945 487.177" stroke="#054AEA" stroke-width="10" stroke-linecap="round"/>
<path d="M423.078 -53.1846C204.562 -35.7292 -276.69 107.017 -453.571 538.36C-609.377 590.726 -902.369 750.152 -827.893 968.926C-816.256 1023.23 -754.192 1126.03 -599.033 1102.75" stroke="#88A2FF" stroke-width="10" stroke-linecap="round"/>
<path d="M164.239 135.808C-97.9804 410.44 -401.446 407.983 -520.401 372.426C-312.488 505.863 84.7195 315.466 241.818 232.783C536.62 77.6237 645.83 -23.2295 573.471 -42.6248C428.009 -81.615 237.939 59.5216 164.239 135.808Z" fill="#88A2FF" stroke="#88A2FF" stroke-width="10" stroke-linecap="round"/>
<path d="M1190.63 136.406C1422.24 411.927 1690.28 409.462 1795.35 373.79C1611.7 507.659 1263.93 328.893 1118.47 247.435C865.884 105.988 780.996 -2.75957 829.163 -42.6052C932.648 -128.212 1125.53 59.8721 1190.63 136.406Z" fill="#88A2FF" stroke="#88A2FF" stroke-width="10" stroke-linecap="round"/>
<path d="M994.602 -53.1846C1213.12 -35.7292 1694.37 107.017 1871.25 538.36C2027.06 590.726 2320.05 750.152 2245.57 968.926C2233.94 1023.23 2171.87 1126.03 2016.71 1102.75" stroke="#88A2FF" stroke-width="10" stroke-linecap="round"/>
</g>
<defs>
<linearGradient id="paint0_linear_3343_5301" x1="709.235" y1="784.675" x2="709.235" y2="2968.54" gradientUnits="userSpaceOnUse">
<stop offset="0.625" stop-color="white"/>
<stop offset="1" stop-color="#E3FC87"/>
</linearGradient>
<radialGradient id="paint1_radial_3343_5301" cx="0" cy="0" r="1" gradientUnits="userSpaceOnUse" gradientTransform="translate(705.356 710.974) rotate(90) scale(791.312 1060.9)">
<stop offset="0.379808" stop-color="#E3FC87"/>
<stop offset="1" stop-color="white"/>
</radialGradient>
<clipPath id="clip0_3343_5301">
<rect width="1479" height="1436" fill="white"/>
</clipPath>
</defs>
</svg>
